<mxfile host="app.diagrams.net" agent="Mozilla/5.0 (X11; Ubuntu; Linux x86_64; rv:136.0) Gecko/20100101 Firefox/136.0" version="26.1.1">
  <diagram name="Page-1" id="rlQp_aDmt6KxIrTtDRO7">
    <mxGraphModel dx="1396" dy="842" grid="0" gridSize="10" guides="1" tooltips="1" connect="1" arrows="1" fold="1" page="1" pageScale="1" pageWidth="827" pageHeight="1169" math="0" shadow="0">
      <root>
        <mxCell id="0" />
        <mxCell id="1" parent="0" />
        <mxCell id="RpmGVlQQaQAQjmuWH_eU-29" style="edgeStyle=orthogonalEdgeStyle;rounded=0;hachureGap=4;orthogonalLoop=1;jettySize=auto;html=1;entryX=0;entryY=0.5;entryDx=0;entryDy=0;fontFamily=Architects Daughter;fontSource=https%3A%2F%2Ffonts.googleapis.com%2Fcss%3Ffamily%3DArchitects%2BDaughter;curved=1;strokeWidth=6;fillColor=#dae8fc;strokeColor=#6c8ebf;sketch=1;curveFitting=1;jiggle=2;shadow=1;" edge="1" parent="1" source="RpmGVlQQaQAQjmuWH_eU-2" target="RpmGVlQQaQAQjmuWH_eU-4">
          <mxGeometry relative="1" as="geometry">
            <Array as="points">
              <mxPoint x="38" y="521" />
              <mxPoint x="38" y="445" />
              <mxPoint x="159" y="445" />
              <mxPoint x="159" y="450" />
            </Array>
          </mxGeometry>
        </mxCell>
        <mxCell id="RpmGVlQQaQAQjmuWH_eU-2" value="" style="shape=image;verticalLabelPosition=bottom;labelBackgroundColor=default;verticalAlign=top;aspect=fixed;imageAspect=0;image=data:image/png,iVBORw0KGgoAAAANSUhEUgAAAgAAAAIACAYAAAD0eNT6AAAAAXNSR0IArs4c6QAAIABJREFUeAHsXQeYHMXRrcun0ynniHLOOaIcTznnHE7SKRIEKJAMlohGgEkWQjbZBGEyBpMzJplsY4wNGGOM8Q+2sS1Uv+p0A3t7t7sz0z07PTNvv2+/2TDT0/26ut7rnu5qIryiiEAuEfUlomIiuoKI7ieiN4nob0T0f0TEAXv/h4i+IKK/EtE7RPQUEd1FRJcS0QlENJOIOhNRdhQrG2UGAkAACACBaCNQh4jWEtGho6T4VcAIXpcgEaHwMhFdQ0RLiahttE0CpQcCQAAIAIEwIzCGiO4kIiE/XUQapnT+RERXE9EMIioMsyGgbEAACAABIBANBITQpLcbJrL2uiz/IqLbjj4OmU1E+dEwE5QSCAABIAAEwoJAv7Jn4F6TZdjTlzkFlxwVBF3CYhgoBxAAAkAACIQTAemx7iGiw+j1ax/1kEmFMiqQFU7TQamAABAAAkAgqAjIDPe3QfzaiT9+lENWSswhosygGgryDQSAABAAAuFBYG6EZ/XHE3S6vr9GREXhMSGUBAgAASAABIKGwCYi+hY9f897/omExd1E1DJoRoP8AgEgAASAQLAROAfE7xvxxwqCfxLRaUQkwZXwAgJAAAgAASDgKQI7QP5GkH+sEJAIhCM8rXUkDgSAABAAApFGYBXI3zjyt4TAESL6IUIOR7p9ovBAAAgAAU8QGEBE30AAGCsALCHwPBG18MQCkCgQAAJAAAhEDgGJ5f8RyN948rdEgGxMNDFyVooCAwEgAASAgHYEbgb5B4b8LREgjwTOIqIM7daABIEAEAACQCASCMh2thap4Bg8LK7FvIBItFMUEggAASCgFQEJ8fuBlwIgIyODa9epx63bdeRO3Xpxr35DuN+g4YF4S1679erPHbr0KM1/85ZtuF79hpybm2eaULqLiKpotQwkBgSAABAAAqFG4FQvyF9Iv2nzljx64nResnoLr954SujeC1eUcNH0+Tx4+Dhu074zF1Qt9FsUPHl0g6FaobZWFA4IAAEgAAS0ICD703+uWwC0bN2e5y5ZGzrCtyNiZi9czYOHjeVmx7ViEUG6sbWR3m+IqJ4W60AiQAAIAAEgEFoEttogFNskJj3g8ZNnR5L4KxMHC1du5AFDRnKduvVtY6ipPl4komqhtVoUDAgAASAABJQQkJnjv9dEOFynXgNesHw9yD/Bo47pc5dxyzYd0jkq8EuED1ZqH7gYCAABIBBaBIbrIv96DRrxsuJtIP8E5B87OiCPCNp26MKZmZnpGBWQpZ3YWji0TRgFAwJAAAi4Q0CWjimTULXqNXnRyo0gfxvkHysE5ixeWzpPQEcdpEhjnzvzwFVAAAgAASAQRgRkZ7m/pyCOlOJAerEz5i0H+Tsk/1ghIKskqhZWS4m1Yl0Vh9GIUSYgAASAABBwjkCRIqGUEla3nv1A/grkbwkBeXzSpXsfL0XAv4moh3MzwRVAAAgAASAQBgQkSMxQIpJ1/7JUTIlw8vOr4Lm/BvK3RIAcxxbN5Ly8fKV6SVKv72JlQBiaMcoABIAAELCHQAERzSGiW4non0nIwTHpdO81AL1/zQJARMD8Zeu4fsPGjuvDZt3eaM9scBYQAAJAAAgEFYHjiOg8IvqbTWJwRDgS4Gbe0nUQAB4IABEBKzecXLpSwIu6I6I1QTVq5BsIAAEgAAQSIyAR4C4hov95RB6lQqFRk+Ygf4/IP/aRgOxD4EE9ykiQCES8gAAQAAJAIAQI5Bwl/R1E9LUHhFGBhAYNGwMBkAYBIGKg/5CRFfDXUMc/D4HNowhAAAgAgcgj0JuIXtVACraIRob/ZROc2J4qPnu70ZFsNuRB/Y6LfMsBAEAACACBACMgz3P/4wE5JCQcDP97S/aJxFTv/tofB/yWiGQraLyAABAAAkAgQAhIIJ/r0kn81r0w/O+PABBh0Klrr4TCzKofh8ddAbJ5ZBUIAAEgEHkEqhLRAw4dvRbiwPC/f+QvAmBVyXZu0aqdlross59/EVGjyLcoAAAEgAAQCAACssXrM36Qv9yzUeNmePafpsl/iR4FLF27lavVqKlTBFwaALtHFoEAEAACkUZAhv0f8ov85b4Y/vd3BMASBdPmLuPMrCxdIuAbImoW6ZaFwgMBIAAEDEYgg4hu8JP8MfxvBvlbImDg8aN1CQBJ52KDbR9ZAwJAAAhEGoGtfpK/3BvD/2YJABECTZq10CUC/o+Iaka6haHwQAAIAAEDERhMRP/1WwBg+N88ATB70WqdjwJONtD2kSUgAASAQGQRkB38ZL22rp6eq3Qw/G8e+VuPAnr0GeiqTiuxqd8TUWZkWxoKDgSAABAwDIG9lThqXQ7fdjoY/jdXACxfdwIXVqthuy5T2NNow+wf2QECQAAIRBKB9l5u6pOVlcUS1U96kMNGF/GEqXN58sxFPH3usgrvBcs3YPmfz8v/rB5/ZUepvxTEbvf/myLZ0lBoIAAEgIBhCNyqyamXc/61atfloSPHs6wnr4xM8Ju5vf1EdSPbB1errmUUQDaTkkBTeAEBIAAEgIBPCPQkoiM6BUBB1UIeOW4qSN/gnnwigrfzu8YNg+b6ZPO4LRAAAkAACBDRQZ3k36J1e166ZgvIP6TkLwJhxfoTWUSeBrvBVsFwQUAACAABnxCoS0T/1uDIS8lAnvHb6UHinOAN/cfXmaYdA78kohyfbB+3BQJAAAhEGgFtQX969R0M8g9xrz9eAMxbUqxjBEDSOD7SLRCFBwJAAAj4hMBTOnr/bdp3BvlHiPwtMdCwcVMdIuAHPtk+bgsEgAAQiCwCsjXrt6oCoHqNmryseBsEQAQFgKzwULUfIno8si0QBQcCQAAI+ITAYg3Om8dPmRM68p+3tJjHTppZGrNg4NBR3KvfYO7eewD3HjCUBw8bW7rCoWj6fF68anPoym717u0cl6zZwhK5UdGO/kVEsvskXuURKCCiHkRURETLj87V2U5EpxDRnqOnnVH2fSMRzSaioUTUpPzl+AYEgAAQSIzAFYqOOzSb9ixauZFlx7vmLVpzfpUCR4RWo1ZtbtexK48YN4WXrzsxcoKgXoNGjvBKYHP9E5tpJP7JJqIhZQR/51HC/9Dl0lzZaOnZo5st/YiI5hFR/Uigh0ICASDgGIFXEzhj2w5desl2eoqmnjOmaAY3O64VZ2Zm2i5zMsxy8/K5U9eePGPe8kDj4qS+ZGQkGSY2/1vj2HqDf4H08IWkbyMiWQ2hA8f4NOQR30tHxcRuImoXfMhQAiAABHQgIBuxfKPidKpUKWCJCueELEw5d+K0eayp5xrvcL/73rpdR56/bF0g8XFSTxLWWcWOyq69VIdRBySN3kS0n4i+0oCbU+yfJ6IVRCQbf+EFBIBARBForup8gjjzX57Zt2jVzqnTdH1+dnZ26f4HYX40IBsEZWZlucaozA4fi0A7HE9EWlbdqLZdIvr8aBqnE1GtCOCOIgIBIBCHwHBVJzJkxPhA9W6l168pep1jspN5AlNmLQ4UXk5GAWTPB0V7+lOcfYbpq+x6KD1vVYy8uP4fR4GWCYXVwgQ4ygIEgEByBKarOqRJMxYGhtBkgp+G2epKDlju361nv1BOFJTwz4r2JM+qw7YSoN/RiX0PK+Kiiqvd6/9KRBIULD+528C/QAAIhAGBRaqOae6S4kAIgL4Dh9l1gmk5L4yjARICWtWeiKhNGBoWEXUkottdzuLXgaNKGrL6QOYIZIWkLlAMIAAEKkFgrarDlqVzToaJ/Ti3z4DjVZyhZ9eGbTRg2OgiHVgNrsROg/STzKu5logOq7YtA65/m4hmElFGkCoAeQUCQMAeAutVnYzpQXBkiZ9qGb2+vkbN2ixzE/wQRzrvOXnmIh1YT7VnusadVY+ILlZdVeO1rblM/4WjExdlDgNeQAAIhAiBUAuA2YtWc25ung5SSksabdp14oUBGFFJJBpmLVipAycZeg7SSybOyQQ6Cb6jo/wmpyFzGWROA15AAAiEAIHQCoBVJdu5Tr0GJjvTSvOWk5vLsqPi0jVbAjciIPEONJDg5oC0K5koJxPmZOKcjnIHJY0jZXMbZI4DXkAACAQYgdAKgMHDxwXFoVaaz7y8fJa5C6Y/YokdDViyekulZXFIkCcb3p5kYpyMUshEOR3lDWoaMsdB5jrInAe8gAAQCCACoRQAQkT5+VWC6ljL5TsrK5vbd+oWiLDCEhFSAynuMrQdyUQ4mRD3loYy6sDJlDQkkqjMfZA5EHgBASAQIASUVwGY+My6a89+pjhHrfmQQDsyKjB3yVojHw/IYxcN5Cjx6k17yQQ4mQino3xhTUPmQCCYkGmWi/wAgSQIyPaiSg5pzmKzyEiWJWZn5yiVSRWTdFwvcQRkw6HRE6ezKUsxl67dqgP3bUnsNd1/BSmIjw7sdaSBYELptlLcDwi4RGCBKllNn7vMqN5oWHv/qepJwhvLjobdew3gQcPGsOzQKHUzb0kxL1xRwkvWbPF806YFyzfoIBAZlfL7FeQgPjrqQEcaCCbktxXj/kAgBQIzUhFLqv8nzVhghABYtnYbj5k4XWvvPzsri+cWjeBbLzuDP3j8Jv7y1XtK339/5W5+44EDfNU5J/DQvt10OEsj0pBIfrGT+px+nrVwlY5yLExhs17+bVQQn8yMDB7YrBFvGdiDr5sxhl9eN58/Pmklf71zHfNZm/h/Z5Tw56es4fc2L+F7F03hc0cP4tmd23LtKvk66kFXGggm5KXFIm0goIDAiFQEn+p/6Wk6JQpd58vuekNHTuAmzVro2ImunMPr0q4lP3f7j78jfYv8KzuKQGjasF6561PhZuL/qgJg6uwlOjDwIxCQUUF8jm/RhK+eOpI/PXlVKdEL2Tt5izB4ZNkMLunfnavn5eqoEx1pIJiQgqPGpUDACwS6qBLR8aMmpF0ALF69mXv2HcT5VQp0OKYKaQzo0Yk/evrntsjfEgR/evpWXjpjnO+bDanUp6oAGDtpVgUsXeQnnRHnjAniI7196b2/sHauI7JPJQy+PK2Yzxs7hJtUL9RRNzrSQDAhLzw50gQCLhCo78JBl3MCsrOdrh59qnRklvnQEeM9XeJXv05N/u2vrndE/pYIkOMdV5wd2NEAVQHQb/Dwcrbh0rY6u7Bjp5cYFcRnaodW/EbJQq3EHy8M/r17A18wbgjXKTDi8QCCCTm1WJwPBDxAQIKa/Neloy519jLxLBVx6/h/3tJ1XL9hYx0EkzSNS3ZvdE3+lhAI6miAqgBo17FrUmxt2JkQQxUP7NxK0qggPsNbNuVnV8/xlPjjhcA/dhTzruH9uDDXiJUyCCZkWSaOQMAnBN614ZgTOvbCajU8FwATps71tNdvlb9F04b815cOKQsASwgEbTRAVQDUa9AooZ1YGKc4fuRRGzAqiE+vRvX5gSVT00r88ULgL9tX86YB3TkvO0u1znRcj2BCHhk+kgUCqRC4N4VTTtnAlxVv80wEDB05Pm3P1S87Y7M28rdEgMwlKF44hbMyM1PiqFoPqterCgDZx0AxD0+kMlYX/xsTxKddnZp8y5wJfORMZ5P64slb5/c/bFvOS3t05KzMDNW603E9ggm5MHBcAgRUELhE0WmzbAOrY5g/Pg2Z4Z+RkR7HpLv3bwkA6/jYjT/iHp3a6HCSnqWhIgDmLF6jI18HVAw57lpjgvg0rV5YOqtfZufrJG+dackchGkdW3NGhlpgMFVfUnY9ggnFGTO+AgGvEFip2mhl97p48lb9PnLclLSRv5Tfi96/Rf7W8YuX7+Yrz95m7CRBFQEgwYdU7ejofJTTNBi5MUF8ZMLd+eOG8L92rTeW+ONFxHNr5vCIlk111KWONBBMSEODQBJAIBkCPVQdtzz7VSX82OtlX/nsnPRNUvK6928JAOv46fN38JlblnPdWjV0OEltaagIgOYttIxujEpmqCn+MyaIj0yw2zmsL8sSvHiCDcr3B5dM496N62uzLUUfg2BCKYwffwMBtwjkENG/VRqoDNPL2vxYEnf7WeLJ16hZO62OJx29f4v8Y49/fu523nPyGm7SsG5ay5uort0KgJXrT+KcHOXn//8jokIXRmxMEJ/crCzeOKC76wA+pokDmatw69wJ3L5uLSPss2xDpnTGiXBhjrgECAQPgWcSkYLd30eNn6pFAHTp3ietzibdvf9YAWB9/uzFQ7x/z8k8qHeXtJY9vm7dCoCi6fN15PvXDpuNUUF8lvToyB9sWxbYHn8y8SFzF66ZOoplLkO8zfj0HcGEHDYWnA4EkiFwjmpDbtWmg7IAkFjymWmeLe9X798i//ijhB9ev2gaN6pfJ+3O1q0A6NStl468XprMQGP+yyOirUT0marN6rg+HUF8kpFzOv9DMKEYK8RHIBAiBOTZq5ITz8zK4kWrNimJgKbNWyrlwWkZTOj9xwsA67tMGLxv/x5ePXcSH9ekQVpwcSMAlq87gXPztESXm5eiPUU+iE86yT7ZvRBMKIWl4m8gEDAEJPqa0jwAIV8JBev22f/M+SvSQnKxIsG03r9F/pUdXzx0Je85aQ1PHD6AG3j0TNaNABg2ukhHvUlEOAlLXdkLQXwcbgaUjLx1/mcFE5K5D7HtyqfPCCZUWevBb0DAJgJ3qzbc6jVquRYAHTr3SKsTMbn3X5kAiP/ttXv387V7t/NJq+fx1DGDuUOr5srLJt0IgAaNtCwZeyyBjSKIj6HkHyskEEwogfXiZyAQIASWqwoAuX7w8HE8Yuxk7j94BEt8gO69B9h6Z2frXfZXtSCfJ40cyBuXzuAzNi+r8L7/2r3ao/7Fk3S6v+crbv3aoGGTlHUluzD2GzSch4+ZxBKrQYfNENHGuHaCID4BIP5YESCfEUwozorxFQgECIE6RCRLsXQ5dV/SqVOzOu/dvpZlrX26Cdjv+6kKAJ/qXjYAalrWThDEJ4DEHy8EZIMjBBMKkOdHVoFAGQL3+0QCWsRCl3Yt+Y0HDkSO+C3hEVAB8CwRIYhPCIg/XgggmBB4BQgEC4E5QRUAzRs34N89ekNkyV9EQEAFwPtEJBO4tIhAt+lYQXxkYls8kZn0XYLz3Dm/iAc0a8gnD+nNnwUgvwgmFCwSQG6ji4Cssf7crRP187p79++JNPkHWAD4SvyyC14QgvgI8d+1YBLLVsKx7UzCDp8ytA9/fsoao4ULgglFl1RQ8mAhcHGsgwnC5+H9e0Se/CEAnI8gBCWIz90LJ3OfJuWJP75dVsvL5dOO78t/O9VsIYBgQsEiA+Q2egi0CNpkwH27N0IABPcRQLkebTyxefF9UPNG/PiKmUb3mOWxwy+XTud+TZ0FgZIRge1DexsvBL7auY73jBnM1RVXrmiyj2+J6FYiahU9d48SA4GKCEhjSLtjdnvPp2+9DAIAAiClvcrudg8smWo88Use5Rm/2/Yg19XIz+XTR/Tnv5+21ujyIphQReeLX4CA3wgohwZWcV5Or/3tr66HAIAASEiYspvdLXMmsDxHN2lCX3xeHlo6jWV0wqn9Jzu/Zn4enzlygPFbEyOYkN8uH/cHAscQkJjr9yVzKqb99+GTt0AAQABUIM4m1Qv5qikjWSagxZOtSd+fXDnL83XzMkdAHg2YPiLw1sZFPLtzW87IMGIEUiZEbyciCZWOFxCIBAIXmEbwqfIDAXBPqQAK6DLACsSdqr5T/V+nIJ8vGDeE/7VrvdHE/+jyGXx8iybay58Mn9pV8vmc0QP5/3YUG40NgglFgmtQSMMQGEJEMiEmrU5J9X4QABAAYkNVyybAmd7LfWrVbB7dupmvbUxEkswR+PI0s4WATIRMtQJC1X84uP5tIppNRLJBFV5AIFQISAyA3zloDL46sNh8QgBEWwBIEJ9NA7qz6UF8ZKh/ZCstmydpa3v1qlbhvWMH89c71xk7IiBzNxBMKFRcg8IYiMAJsaQapM8QANEUAJkZGaXPi3+3Zamx5CVzDZ5ZPZsntW+pjbS9aJt1C6qUjgj8w+BHA9+eubFUCLSsVd0ULJ8ioqEG+nJkCQg4QqAgqBEAxRlCAERPAEzr2Lp09zmTJvPF50WeY49rc5wpZGUrHw0KC/ii8UONnj+BYEKOfDtOBgIpEVjnRa8iXWlCAERHAAQhiM+r6xeYNJPdFvHHt1V5NCCBekyeSIlgQin9Ok4AArYQeD3eAej6Xq1qAdesXpjwXSU/z5WDis0fBIAeASCrCJLVVfXCqsp1FVtvTj5LEB/ZXS6+l23S9xfXzuOidi18w8gJnnbPbVytKu+bOIyl120S1rF5QTAhWz4eJwGBShHobNcZ2DmvUf06vKtkCUt0vk+fvyPl+vw9J69RdpgQAHoEwAmr5qSsr7+8cCe/cOeV/INtK7llM71BayqzLwniIxPATA7i8+t183hy+5amrF1Xbk+V1YPEVLisaDh/Y7AQQDChSv07fgQCSRHYWVmDd/PbpqUzbZG+tX+9HCEAjpF3LCZuP6vGAbAjAGLz9tmLh3hnyWLOzMzQTjpNqxfyNVNHGR3E55X181k2FDIkaI32OqjMBzSrUY1/PGkE/+d0c0cE3ihZyDJHxJB6+SsRbSWi/KReGH8CAZ8QeKiyhu70t4t2bEjZe4wlD+szBEBwBYBVhwfPP1WbCLCC+Jg85PzahgU83RyCSQvxx/uD5jWq8ZWTRxotBBBMyCdGwW0Dg0AmEX0V37idfl8zb5Ir8hcCgQAIvgCQejyleIEWIvroxBXGPmv+TclCntW5jSk9Sy14O23r8ee3qFm9dKTmv6ebG25Z5o7IHJL4vPv0/S0imolgQoHhyFBntLlqI6hdo5rSMjwIgHAIAJkb0Lyxs61rK7O9l4rnGScAZEh5Tpe2LHEHKstzun+TfExp1YgbV803Ij9Sflmbv3/aaDZVCCCYUKh5DIVzicBIVedVvHCK694/RgD0kb9gme45AHLP2LdM/lS1p5tmjzdGAMjGNPO6tjOK+Oe0a8qvLxrNhzdN5683TOGLju/GjQwSAq1r1+AD08cYO3dDNoaSuSUyx0TVVjVd//DRzdf6ufTfuAwIKCEwR9WI77ji7HIkEEsIdj5jBKA8idrBLNE5fguAJ2/Zp+xUZaZ57BIvPz6/s2kxL+zW3ijin9W2Cb+2cFQp8Qv5x76/Wj+FLxjalRsUqC+pVfUH1vVtatfkgzPG8OEzNvpen5XZEIIJKfEGLg4JAiusBuv2+PLd10AAxPWEExG017/7LQD+9PStygLgh2MG+UYYv9+6jNf06cLZmZnK5XDbnmKvyyDiopYN+cV5I8oRfiz5x37+54apfMXInkaNCMijAZO3ZEYwoZAwGYrhCoHVsQ7Hzec3H7gOAgACoNQGZFlghuJz8rNGDki7APjtliW8tEdHo4h/autG/PKCkbaIP1YEyOd/rJvCe4Z04XpVzBkR6FC3Ft8waxxLPP/KeuR+/4ZgQq74AxcFHIH5bkg/9ppf3XAxBAAEQKkN/Ob+a5V7zhdPOD5tBPH+1qW8vGcno4h/cqtG/NJ8ez3+eOKP//7lusl8zqDOXLdKrnK9xLZ5lc8d69VmmedhqhBAMKGAMxqy7wiBIpXGLNeee+IqCAAIgFIbuPrcE5WJRmaSe90b/GDbMl7ZqzPnZJkx1C/tSIb6X7A51B9P9Km+/714Mp89sBPXzjdHCHSuX6c0wqOpQsAKJqTqHzVdj2BCjmgNJ9tFQDkMcK/ObSEAIABKbWDskD7KAuBXy2d4JgCkd7e6dxejiH9Ci4b83Nzhrob6UxF//P9fFE/mMwd24lp5Ocr1pInYuGuDOnzbvInGhnpGMCG7VILzgohAHhEdVm3MP7vwNNciAKsAwrEK4L79e7SQyscnrdQuAD48YTkX9+3KuVlZWvKo2l7k+nHHNeBn5qSH+OOFwN+KJ/HpAzpyTYOEQPeGdfmO+UXGCgEEEwoivSHPdhB4Q9WhSTCgV+/5iSsRAAEQfAHw3iPXc5OGdZXJtX7VKloJ4E8nruD1/boZRfxjmtfnp2YPS0uPP574479/vnYS7+7fgWvkmjMi0KNhPT60YJJWO9D1SAnBhOzQCc4JGgKXqgoAuV52AXz0RucTAiEAgi0AZBloh1bNlclfbEiC7uhw1jKje/vQ3lwlJ1tLvnS0j0GN6vDDM4YYQfzxQkDmCJw7uLNRIwLyaMDUXSBl3oLkTZY46rANDWk8RURDg0Y8yK8ZCEzRYIClDUHWocuOgO8+/DPbowEQAMEUAL9/7CY+dd1CrlqgLxztT6aNUhIAn5y0kjcN6M752eYM9Q9vWo8fm3W8kcQfLwQ+W1PEp/Ztz9VyzRFOfZrU53sWTVGyCx2isrI0EEzIDAJDLtQQkHkAf9MlAiQd2R5WJgfOLRrBJUum85blsxK+h/fvoayiP3zyFtuCw+tgPH6mrxoIqF+3DgnrSepQxN28ySN5QI9OnKU5WE5edhZ/cepaV47+zyev4i0DexjV4z++SV3+1cyhgSD+eCHwlzVFvL1POy40aASlf9OGfN/iqa7sozLy1vnbP3YU867h/bjQjEcpMqfr2qNv2ecFLyBgC4HLdQqAdKcFAXBsFEFVAKS73mLvN7tzW9fO/QejBiqLyNi8qHwe0tjcof54ok/1/dPVRXxS77ZcNcecEZWBzRqxTMjTSeC60kIwIVtcg5MMRKCNjtUAKo5T5VoIgOALgKdWzXbt1CWca72qVXwVAQMa1eZDkwcGssdvRwjIZMHqBj0aECHwi4WTXduMLtKvLJ0/nrC8NKR0VqYRu0d+TUR7iKiGgbyDLBmEwM0qJOzntRAAwRYAo1s3U3bk54z2ZxSgf8PwEn+8MJARgZN7t+MCg+ZYDGpurhCQ3SRlZCsjg3wVp2W++XMi2n5UDOQbxDnIikEItD5qIP/2k8jd3hsCILgCQPa2f37NXGUBkO5RgG51a/DNE/qFsscfT/zx3/+8emKpEKhikBAY3LwR/3LpdGU7qqxHr/qb2PeoVs1MEAGShz9akfksAAAgAElEQVQR0RoiyjaIe5AVQxA4wy0J+3kdBEBwBcCG/t20OW3ZSdBrO+xaRvz/i9uSN54ko/D9E0OFwMPLzBQCIlBkVYPXNmoz/beJaDYRZRjCPciGAQjkENGzNg3IFENmCIBgCgDZM15mUKv2sKzrv965jiWYkBf2C+KfnnC0wxIC+QZFWpQRAS/DSls25/QowYRk7oLEOfDCTl2k+QIRTTaAe5AFQxCQRwFfujAk3wwaAiB4AkDW6r+yfr428rcc8Xljh2i1wx71avKdkwYwevyJBYA12vHB8vFc3LUl5xq0ydKY1s35mdXuJ5hadqX7+L8zSviaqaO4afVCrfaq4LcfJqJ+hnAQsuEzAiOI6BsFY0qrUUMABEsAyHN/iaSm26nymZu+/fKExc/Uzs9V3t+ic53qpc/4Qfypid8SANZRhMDG7q3ZtBGBx1bM1G9zZ21SSvM/p2/gq6aM5AaFBWn1mUl8+y+JqJvP/IPbG4CAPB/6XxJDMcVg8QigbDfCIMQBkBnRV0weoeQ0KwiHMzcdOXLaihe+3TzjbSGh84Z0cW2bXepU51sn9kePX8Mch98tG8erurTgHM1Bo1R80sR2LfiFteqTTivYoKIQQDAhAxgPWaiAwCQi+qdKg0vHtRgBCMYIQHZmJquG+y3neC3i33SM+K0e6Ffrp3Djqs5CFHeqXY0PjOnN/9k4LeGzbit9HJ2NCry/fFzpiECeQY8GZOmpiULgr6cc28fCkHDW/yGiq4ioYQVmwA+RQaA/EX2YDiJ3ew+JS+9nCF5T7p2TbU4M9/i6lMl5GmdnHzmyY/XT326e8VYiMr5gaFdbowBC/DeO78v/BfF7LnzeWzqWl3ZsztlmBMgpXZ8/pUMrfnmd/rko5YSqi9GBD7Yt46U9OrIhwYT+7yjbyQqxapFhPRS0HAK1iejOeKduyne3WxGbQtw68vHn5263RXh+1Jmsgf74pJVahv2P7Fj962+3TE9I/JYgkFGARklGATrUqsY/G9cHxK9hqN/C3O7xnSVjeXHH5pyVYUSkvFIhMK1ja351/QItNqpK/rHXv1GykCVvfrTbSu65thwr4EvkEJhKRH+oxDB8NdAnbr4k8iMA7/zyp77WQWU20bCwgK+fNU7L3u6lxL955pt2SUbOu+j4bhUwaVezkA+O7YOhfh+IP77u3loyhhd2aGaUEJjRqTW/tsE8IfDs6jk8omXTCvZcWbvz8DcIgMhRfsUC5xLREiJ6z0NDc2Tod19zbuQFwHO3/9gRZl7WnQz3nz6iv5Y1/sd6/DPfiCcPO9+/3jCFmxQeiwvQonoBXzGyJ39Tgmf8drBL5zm/XTaOV3dpYZQQmNS+pZGPBnwOJgQBUJEPI/tL1tGgQeOI6Hq/4wZcd/4pkRcA9+7f46sAqJqbwzM7teFDCyaxLG2KHcZ08/nIzlXPf7t55suqRCTD/PvH9AbxG9DjT1WXv1k0mue2a8qyTNRLgWo3bcnH3C7t+M2Ni5Tt2U0bSHSNBBOSZbTt69ZKN04QAJGl++QFFzEgQSROIKJriOhxIpJQkx8R0Rcp3spBh7avnR95AXD+qcXKzqB6Xi7XqpKX9N24WlVuV6cmS6S1Fb068Z4xg/nJlbP4v6eXaHGSR3atfkEH8aciG/zvbCZ/OvF6feEontW2iVFCYH7Xdiyb+yQiZT9+9yGYEARAch7Evy4QyFONNzBheP/IC4DF08cqCwBdE/XcOMMjO9e8/u1W9R5/OokK9/JWRIgQWNTBnMmCMiIgu/u9vWmxUUIgjcGElrnw77gECKRE4B27w3KVnde0Yb3IC4AendooCQDp/cvQohvyVrmmlPg3z1Ie6gcZe0vGfuJrCQGTHg2IEHjHMCEgO2LKiJy05cr8pIbfJDgcXkBAOwK3qxrne49cH1kR8Onzd7BqFMB+TRuklfyP7FjzyrdbZrzkJ7Hg3sESDb+eP5KntGrEGUReEZyjdCWwlazV/92WpWltO6kE91+2r+ZNA7pzrv7NmSZo9/xIEAgQ0VmqAmDf7o2RFQA3XLzTkeOqDGtxZKkci47/pcd/eMvsF0C+wSJfk+rr1bI5AqYIAevRwHubl6SlDdlth388YTmv6dNFZzAh7BEAuvYEgbmVkZKT38YO6RNZATB/8ihlAXDR+KGeOq8ju9a8fnjzrOdMIhLkJdgi5Pl5w3lii4bKtu/EzyQ7Nycrk1f26swSxc8uSafjPAkmpGmzoeqeeH8kGnkE2iZrWHb+y8vN4T89fWvkRMBfXzrEtWpUU3aCv143zxOndWTn2t+gxx9sojVdKD07dziPP66Bchuw42fsnCNCQHref9i23JM25VQ0fHjCch0rKj6LPEsBAE8ReN9O40p2zmVnbI6cALjpR7uUHV/N/Dw+fMZGrc7qyK617x7eMvuZw5umHzGdQJC/cAiUp+cM4zHN6yu3h2Q+xsl/8gy+uG9XlqF4p6St8/yzRg7Qgcl9nnp/JB55BC530rgqO7ddy6b8xct3R0oEDOzVWblxy4YouhzOkV3r3ji8ZfaTIP5wkGoQxdFTs4dxUUtzHg2IEFjcvQO/vzX9kwX/ftparltwLBpmZT7TwW+7I89QAMBTBCY7MMaEpHfzvt2REQCPXH9RQhycYPmjCccrC4Aju4rfQ48fpG+SYHh81vE8omk9LW3ESXtKdG5edhaX9O/OH524Qrm92RXs24f21lX+4Z56fyQeeQSqEtE3iRqP3d8H9e4SGQEwdcxg5cYtM5hVHNKR04vfPrxl9lPo8YP8TSL/2Lw8OnMoH9+krnJbseuDUp2Xn51VukzvE007ZCYSA8+sns0yHyFVfmz8L9FccyLPUADAcwTkOZOywcpzcR1b7JqcxoMHz+dMDfuqD2vRxFVv5Mjp6357eNscIf5vY50tPkMImGoDD88YwkMa11H2Lzp8lKRRJSebtwzswX8+eZWrNpiI+OV3iQXQtHqhrrLe4Lnnxw2AABHN1NG4JDLgx8/cFloR8Pmv7+Ku7VtpadxXTh7pyPkcOWPde4e3zX788Kbph0119MgXREgyG5BHA8MNezQgqwZ0jQh8tn01d2ugdcRDNn3DCwh4jkA2EX2iQwRsXjYztALg7K0rtJC/PJP86ymr7QmA3cW/K+vxg/gDsLNeMgLEf8cE0gPTBvOARrW1tCUdPkt21DxpSC8WAk/Wu0/2n8Qg6FJf6yjH748Gasv03PPjBkCgDIGzdTSmnOxslklyJg/ju8nbC3deyQVV8rU4reU9O6V2NLuL3z+8dfYT6PGjVx1W4XDv1EHcr2Hat9ZN2IYLc3NYJu/ZFudnHdvD4+Y547lGvvZ9AE4GMwGBdCLQjIgO6xABDevW5nd++dPQiICPnv45d2jVPKHjcIrZq+sXJBYAp697//DWeY+A+EH8YSX++HI9OH0w921gjhCQEQGJ6f9pijkCz6+Zy5Pat9TmF2L8yOdEVC2dzh/3AgKCgPLmQJYRyzp5iZbnprdt0jUS30C2PbbKpXoc3bpZ5eR/+roPDm+b+6vDm6b/L95B4jvEQBRs4K7JA7lX/Zra2ppqW62Wl8s7hvXlv5265rs2Kyt3LisazoObN+KMDPWJ0wnyeAroCAj4gUAnXaMAYthLZozjv78S7ABB21bO1uqQxHHIxCPrvbRHh69nt2/+51WdW3y7uksLxhsYRNkGVnVpwc2rFWhtcwlI1vY9ZJtfEe6a4vqnuu/viKiKH84f9wQCgsB+1QYTe72IgKBGCdy+dn6qxor/NSwfjbUXfPasVwlbDYatTgINAQE/EZC5AP/W6YgXTBnNf3v5F4F5HCCjFiVLpsNhBsNhop5QT2GxgZ/56fhxbyBgIXC+TgEgaU0ZPZhlMp1Jz/cry8unz9/Bi6aNCYtDQTlAjrCBYNiAbMqGbX8tBsLRVwRqENEfdYuAti2a8jM/v8xYEfDK3ddw946t4TCD4TBRT6insNjAP4moj68eHzcHAnEIjCaiI7pFQJX8PL78zC3GiYDrL9rBNapVDYtDQTlAjrCBYNjAt0Q0I8734isQMAKBS3ULACu9icMH8LsP/8x3IfCHJ27m+ZNHwVkGw1minlBPYbIB6WCVGOHpkQkgUAkCBUT0rkXauo+1alTja/du900E3Hb5mdywnjkhSXXji/Qwox42YKwNCPlvrMTn4icgYBQC/XSvCoh3SitmT+C/vHBn2oSArEjYumI2Z2RkhKk3gbKgdwwbCIYN/JeIVhrl5ZEZIJAEgflezAeIFQKjB/dmmYFf2cx8nb/Jjn4zxx8PRxkMR4l6Qj2FzQa+IKKRSXwt/gICRiKwM5awvfg8bmhfz4MGzZs8MmwOBeUBScIGgmEDTxHRcUZ6d2QKCKRAIIOIrvOC+GPTPGHVHM9GAc49cRUcZTAcJeoJ9RQmG5DAatKBkm3X8QICgUUgl4geiiVs3Z8zMzM82U74pbuu4rzcnDA5FZQFJAkbMN8GfkFErQLr8ZFxIBCHQB4RHdJN/LHp9ejURvsmQjLHIPYe+Gzs7GjUk/mkhjpKXUcPEtHgON+Jr0AgFAjIUNZPvSRRWaKna/LfozdeDIeV2mEBI2AEG1CzgX8Q0RVE1CsUXh6FAAJJEMgkIs8CBY0Z0kebAJg3CRP/vBRrSBujKRG2gS+J6Foimk5EEjcFLyAQKQROOTrB5bBuB5Cbk80fPnmLsgj47MVDnoT4lRgCNWrWxBsYwAYCbANZWVmqox43R8rbo7BAoBIExh4Nafm5bhFw8PxTlQXAvfv3qDbwCtfXrFmLr/vpDfzJX/6GNzCADQTYBtq371ChfTv0YxAAlRACfooeAg2J6H6HjSdp4ztx1VxlAaB76V/Pnr34uRdfhtMPsNOHcINwtWwAAiB6RIUSe4eAzAs4UVfo4MmjBikLAAkzrEOUZGdn8+Yt2/iPH/8F5A/yhw2ExAYgALwjA6QcXQRaE9HjqsQ7tG83ZQEwfexQZQEgTuK+Bx+G0w+J07d6fzhiJAACILokhZJ7i0AWET2pIgJ6dW6rLADGH99PSQC0aduW//CnT0D+IH/YQAhtAALAWxJA6tFGQClgUM9O6gJA9hdQEiG9esPxh9Dxo/eP3r/YAARAtAkKpfcWAQgAkCcEFGzAWBuAAPCWAJB6tBGAAIDzN9b5YxQAowAQANEmKJTeWwQgACAAIABgA8baAASAtwSA1KONAAQAnL+xzh8jABgBgACINkGh9N4iAAEAAQABABsw1gYgALwlAKQebQQgAOD8jXX+GAHACAAEQLQJCqX3FgEIAAgACADYgLE2AAHgLQEg9WgjAAEA52+s88cIAEYAIACiTVAovbcIQABAAEAAwAaMtQEIAG8JAKlHGwEIADh/Y50/RgAwAgABEG2CQum9RUCLAPji5bv5tXv3822Xn8n7dm9k2eL31HULeePSGbx2/mTeumI2n7F5GZ9/ajH/5Icn8WM3/og/evrnpfsIIBQwnLwbov/TJ5/xsy/8mq+/8RY+59y9vGPnbt6wcTMvX7mK12/YyCectJ13n3EWX37FVfzAQ7/i997/EEIngGIXAsBbAkDq0UZASQBUq1rA3Tq05vy8XFfx/BvWq83VC6u6utbaP6AX9gKIBLF9+NGf+ed33MVbt53Iffv159zcPMd206xZc547bz5fcumP+ZXX3owEbm7ElUnXQABEm6BQem8RUBIAFgn7eYQACPcIwqNPPF3as69bt65jwk9ml5mZmaVC4rwLLsLogMEjAxAA3hIAUo82AhAABjs/k3pi6czLx59+zgd/dgP37NlLK+knEgRVq1bllavXYFTAwLYAARBtgkLpvUUAAsBAp5dOsjXtXj+9/iZu1659Wog/XhDk5+dz8boN/O7v/oDHA4a0CwgAbwkAqUcbAQgAQxydaUSc7vy8/OobPGv2HF+IP14INGjQoHSegIxEpBsH3K/8Iy0IgGgTFErvLQIQABAAvpPcpZdfwTIMH0/Efn+fMLGI33nv977jE2VRAAHgLQEg9WgjAAEAAeAbwf3+w495/oJFxhF/rPCQlQP3PvBL3zCKMvlL2SEAok1QKL13CBQR0Uexzi6In1u3acOyRCzqjjJo5X/znd9y7959jCZ/qz3k5eXxT649CBvzQSxDAHhHAEg5mgj0IaJfWc4tDMc+ffvx62++Cwftg4N2Izxeef0t7tipcyDI32ofWVlZvOe8C2BjabYxCIBoklQQSl2XiFqVvWsTUabhmZa83kxERyynFqZjixYt+YmnnoODTrODdioAhPyPO65FoMg/tp38cO/5sLE02hgEgOGsEoHsZRPR0KMEfxYR/YKIPiCi/8U6hbLP/yGi3xPRPUS0i4hGElGOAfiIUPkREUn+Aut47eS9eo0apdHinJISzi8/89orPGRCXdB6/vF2JyMBV//kAERAmkQABIABDBLRLMhQ+ZVE9EW8E3Dw/W9EdB0RDfQBw4KjpH8qEX3pIL+BFwgFBQX8i3vuh4NOk4O2Kxb++PFfeNCgwYG3L2lLEob4rrvvg42lwcYgAHxgjojfchgRPekBab5IRDLxzutXFhGtCMMEP7d1ICMBDz38KBx0Ghy0XQFQsmlLKMjfssnGjZvwG2+/Bxvz2MYgALymC6RvIdCBiO6zGriHx0ePPouXe3nxEoHxGw/zHhgnXqdOXcwJ8Ng52yX/G266lSX2ftjsctToMYxgQd4+PoIA8IImkGYsArWI6GIi+m8aHdS/iGgrEWXEZkThc18iEmEROierUiaZbIZALt466FQiQMLqNmjYMLR2eeHFl2AUwEOhCQGgwAq4NCkCMlReTER/VSEZxWtvISJ5Vu/21drkmf1VquZyYY18zs72r/c3sWiS5720Dz/6lF97453Av6UcqQjd6f+r1xSnjfxzcnO5amE1LihIX1TB2rXrsMQ0cIpLqvPfevd3gbend377gTIuEABuqQHXJUNgBBG9pkjeuhzbC0QkoxBOXkbN7G/UvBZPmN+bN/xgEl90xyq+6dcn8y/e2833vH/6d+9D7+zkKx/awDuvnMsLNg3jzn2bc3ZOli4Mk6Zz1g/OVXZEyRy2TAgzxJaU8nH7nb/QitMjjz3J2dnZSnlKhGtGRgZ36NSFFyxZxWftuYT333An3/qLR75733jHg3zxjw/wxm2n8vBR47hq1UJP8iH5W7xkmVbcxNa6duvmWX4TYar7dxHfydqNnf8gAJzQAs5NhUBLIrpNt6FrSO8lmyLAmJn9tesX8ryS4/nSe4q/I/lYwrfz+dbXTuHNe6Zwl37HeerscnJy+f4HH1F2RokcFgRA5Y8ZiiZN1l6vOTk5PHbCFN531U+/I/tY4k/0+Ybb7ud1m07iRo2beJKn5196Rat9QQAcsykIgFSUhv/tIFB4dE3+OUT0bw1krd2BlOXpkSRxA4yZ2d+4RW3eeM5kvvPtna6JvzJxcPGdq3nA6PackeHNPIYuXbvxnz75TKuTtgQBBEBFAfD4U89qn/jXtXsvvuRKZ8QfLwhuuvNBXrhsDcvjAp2+YMnS5VptCwIAAsAOseGc5AjIJLslRPSxzsbuYVqXVVIcI2b2S4+/5JxJfNd7u7QSf7wY+OGNS7l5m3panbNVX16FcoUAqCgA5s6br60OZbh//uKVfMtdDzvq9ceTf+z38y+5mhs0bKwtjxIb4NXfvK1NBEAAQABUwgX4yQEC/YnoOcv5B+g4uayMRszsl4l8C7cM59t+c5qnxB8rBA69u4tnrB6kfTRAJmzJ5Cqr567rCAFQXgC89/6HXKVKFS3kKpH3Np+4Qxvxx4qAa356G7ds1UZLPsW/7D7jLG22BQEAAeCA63BqDAL1iOhggGPe/9mEmf0yc79oUV++/oUT00b8sSJAPu++ej6LANEp3pavXKXNSVsCAgKgvAC4+JLLtNSZ9Pw3bNnuCflbQuAnP7udGzVpqiW/nTp30WZbEAAQADGcho82EVjg87I+LY5EJ+E5TUuewQ8e35GverjEN+KPFQIXH1rNNevoW9YlQ7WyIY1F3jqOEADlBcCQocdraQdFU2d5Sv6WCLjo8ms5Lz9fS55/9fhTWmwLAgACwCbn4TQiyiWiK5ySHc4vP+GuU5/mfMFtK40g/lgR8OMH13O1mnqGlKXOt2w9QYuTtsQDBMD3AuD9P3xUGitftW01a96CZSmfRdJeH1eu3aRFAOh6DAABAAEAZreHQHUielzV4UT5+mZt6vLOq+YZR/yxIkCESV6VHC1OWsIE//7Dj7WJAAiA7wXAzbferqWOTj/norSRv4iLmw/9kltomA8wesxYLXYFAQABYI/+on1WzYBO9NPiJFVFS7pm9scSucrnredP04bb+RderMVRyygABMD3AmDjZvVNfzp16Z5W8rdGF0449Qxl+yosLGTZ+dAaHXJ7hACAAIg2tacuvQz7P6FKgm6u79ahNa9bOJX3bl/L551SzOsXTeMBPTqxTFpyk166r/FjZr8K8cdeO2pGdy0Y9+jRU9lJW84dAuB7ASA9YFV73rp9ty8CQJYZ1qmrvgT16WdfVLYtCAAIgNQUGO0zrlV1NE6vHzukDz/00wv4y1fvqfT94qErecyQPsoO0Gm+7J5vwsz+WDJ38/nml7drmRQoYu3lV99QdtQYAfie/AWLFi1bKtl/lSoFLFH7rF55uo+Tp81Wyr+0xYPX36hsVxAAEADRpvfkpZfgPsoN1W4a7Vo25Z9fdkalpF+ZGNi9cWna8manDKbN7HdD/LHXbDlvqhZ8f7j3fGVHDQHwvQD4w58+YVm3b8cmE53Ts09/38hfxMaOM/cq5V/KpWMiIAQABEByCozuv82I6O+JHIjO32tUq8rnnriK//rSIdvkbwmCLctnKTsSHWUxdWZ/LKE7/Xz3b3dz09Z1lfEdMXIUBECMkFbdDOjFl19TrpPZ85f6KgAO3HSXchnWrF2nbFcQABAA0aX45CW/SQcxJksjKzOTl8+awL979AbHxG8JABENMlcg2X28/C8IM/udEn/s+dsuUJ8QKDEBJGqd9Szf7RFzAI4560efeFrZ3r2K+ufkUUKNmrWUyrFg4WJlm4IAgABIToPR/FfC4x7xkjiH9OnKT916qWvitwSAHB88eH7aJwZWr1XAa3aN9zxmfywZ+/FZtheWsqrawp133aPsrCEAjjnru+97ULk+ZAjeCVl7cW7TZmq7U06ZOl3ZpiAAIACiSfHJS31I1eEnur554wZ88PxTtRB/rAiYOV5PVLRE+bZ+l5n9i7aOSGvMfj+IP/aeEqrYKr/b4znn7lV21joEQLclG3jYGZe4fndfrh7IRvURwK23H1Kuj7P2XOK7AGjTroNSOcaMGadsU6oCoE77rq5tybLDwgZqWydPLJqkjAO2A05OiFH6tyURHXbr6BNdV1Aln3eWLOZPn79DO/mLEHjzgeu4Sn6ekkNJlHf5PQwz+2NJ3cln2TkwGTZ2/lu4aImyk9IhACZfew+ve+tr1++pBx9QxkJZANx2p3Iezt7rvwBo266jUjl0BANSFQAtRhS5tiXLDuu076KEAwRAlOjZ+7KeZceh2z1HloHNmzSS337ooCfEHzsKcErxAqWGVFmZwjaz3wnxW+fe+fZOzs3PVsK2Z89eEABlEwEhAB4pHX2AADgmRCEAvCc13ME+Ar+pjAjd/NajUxv+ZZL1/LHkreOzjC40bageYMQqaxhn9luk7vTYbUALJQFQUFAAAQABUO6xAwQABIB9WsKZ6UBAhv+VHL11/aalM10t61MVAgfO266c/xq1C4yP2e+UwFXPn7SknzKu77z3eyURgEcAxyZs3YpHAKW2iEcAx3w1HgGkgxqjcY9FFoGrHLeumO35cH8ioSCjAE0aqq1d79q/hdEb9qiSuZvri0+foCwAnnz6eQgAIsYjADwCsJ7/yxGPAKJBrkEo5aUqxC/X9u7Sjr94+W5fBICsLpBVBqpl6Dm0NQTA+6eXw+C0H89RxvWe+x+CAIAA+O4xAB4B4BFAEEgxSnl8QJU8777m3LSTv8QTkLgCqnm3rh9a1Lkc+bnpMYftmh/8dLEyvqo9XzwCwCMAq43KEY8A8AggSuScjrK+HdvAnH5u1qg+//2V9PX+JYKgRBKUiIJO85rsfFnnHzYCVy3PBbetVMb4pltuwwgARgAwAhC3DBWPANJBbbiHHQQ+T0aMqf6bMW5oWnr/Ev5X9g6QPQRS5cnN/7uumhdoAXDHWzv4nOuXaC3DhbevUsb6xpt/DgEAAQABAAFgh4twjg8IfOWGMK1rZOZ/osl5un6X3QLbtmiqTEZWnuOP2TlZfMsr27WSp2rv2+71Qvxrdo/n2g2qsZTj2ie2aCsHBMCx57UIBHRsAp+O0MCYA4A5AD5wHG6ZBIF/xROik+/rF03zTAC8eOhKHjukj2fEb5Wz36h22kjTLnGrnhdL/FY55Dhhfm9tZYEAgADQQfqxaUAAQAAk4SL85QMCn8QSiNPP44b21S4APnzyFhZhkZOtFonOblnOOrBIG2mqEnuq6xMRv1VWnaMAEAAQALHkreMzBAAEgA8ch1smQeB1izzcHGtWL9QW6/9vL/+Cf7SrhOvWquF5r98qa8dezfju3+02XgCkIn6rPHLUNQoAAQABoIP0Y9OAAIAASMJF+MsHBJR3Abxk90blUYB79+/hru1bpY34hSizsjL54kOrjSZ/J8RviQBdowAQABAAseSt4zMEAASADxyHWyZB4AcWcbg9ylJAtzv+vX7ffp46ZnBaid8q54JNw4wlfzfEb5VLjjpGASAAIAB0kH5sGhAAEABJuAh/+YDAjFjicPv5tPWLHI0CfPLsbXzS6nmcn5frC/kPGteR7/6teUP/qsRv1Z+OUYCwCICxF/2Ulzz6nuv3uB/doGyjqgGRsBfAsQA4JgQCajZ4lGtbsuywVusOSjaFvQB8YMqQ3rI6Ef3XIg63RyHy39x/bUoRIDCj0JEAACAASURBVEGDrjv/FJZRA7f3Ur2u74i2LESbasJdOv8/9M5OLjlnEtdpUE0bLhMW9FEqY1gEgKq96LgeAiA8ewHosAfVNCAAQsrGPhXrCVWDlOtnTxieVAA8cv1F3LebmvJVzeeUZf35rvd2KRGjTmGgq8dfGS6qowAQAHp2yZS6gQCAAKisjbr9DQLAJ6YM6W1XuzXE2OsyMjL4wYPnVxAB7zz8U54/eRTL/7Hnp/Nz3UbV+fSfLIgE8cfiqjIXAAIAAiD2+b2Oz2GYAxDbvvz6DAEQUib2qViFRPR/Ooy5e8fW3+0M+NmLh3jPSWu4WtUC34hfesFTlvbnn79+qhHk78VQf7J6y87O5P2Pb3ZVdggACAAdpB+bBgSAHpuCAPCJKUN82wuTEYmT/y4/cwvffMlubtG0oW/EL/ntN7Id/+SxTa7IT+cwv6SVbuKPrS+3cwEgAPQ4a6kLPALAI4DYNqn6GQIgxEzsU9HqEZHSvgCWUWdnZflK/C07NuAf3rjUCOL38hm/hXeqo4yCHHjS+R4BEAAQALG9dx2fMQKgx6YgAHxiyZDf9oxUZGLy/zVqF/CGH0ziX7zn//I+E4g/tq7czAWAANDjrKUeMAKAEYDY9qj6GQIg5EzsU/EKiOiPqsaZ7uvlOfe0FQOM2NHPNOKXuqhaLY8XbRvheEQEAgACQEevPzYNjADosSkIAJ8YMgK3XZBuAle5X4/BrfjHD6x3TG5hesafCL/8glyetXYw3/Trk13hAwGgx1lL/WAEACMAidqpm98hACLAxD4VMYOItMQFcGPYdq9p3KI2n3LpbFfEppP8/ZzclwgrVeK38IEAgACI7b3r+IwRAD02BQHgEztG5La7EpGL379XrZ7Pq3aM40Pv+hvMx9Sh/nklx/PNL2/XIowgAPQ4a2kzGAHACIBO3wkBEBEm9qmYv9ZprDrSysjM4JHTu/H1z5+ohdysXq7TY5h7/PFYQABAAOjo9cemgREAPTYFAeATM0bgts2J6IgO0taVRpf+x/G+u9f6SvxR6PFDAOhxzpXZPUYAMAJQmV24/Q0CIAJM7FMRF7s1St3X1W1YnbddMI3v/p1/y/qi1OOHAIAAiO2te/EZIwB6bAwCwCd2jMBtf6ybyJ2ml1clhxdsGsZ3vOnfjn1RJn5LCOARgB5nLfaPEQCMADj1g8nOhwCIABP7VMSnkxmel/9lZBAPmdiJr33CedQ6i7RUjyD+07971AIBAAGgexQAIwB6bAoCwCd2jMBtP/WS5BOl3aZLIz7vluXfkY8qkTu9HsT/PfFb2JkgAF5/812+8OJLAv9+9Tdv8yd/+Zvr96233akcXvvsvZewbkJ3mp4JAuDAwesDb0+33n7ItS1Zdti+vfLW7DdHgA8jVcQqiQjaq99r1y/kref795w/ipP7LIJPdTRBAFjOKupHCIBjPefRY8YqE1/UbckqPwRApLjdVmEbeEX08ela2/Te+topvvT60eOv2OOPFwQQAO577JaT1XWEAIAA0GVLVjoQALY4MVIntYonat3fs7IyecS0br5t0ysTC9fsHs+1G1RTHlLVhY3E6tcZwCeeyN1+hwCAAHA6xJ/qfBMeAVgEGPUjBECkuN1WYTvoIrX4dBo0rckz1wzmax7d5EuPH8SfuscfLxQgACAAUhG60/8hAMyxKQgAW5wYqZNaxxO30+89h7bm8fN689TlA3jB5uF80o9m8lUPl/i2lh/E75z4LSEAAWCOs8YjADwC0D1iAQEQKW63VVjlOQButp21CEfnEc/43RO/VQ8QABAATnv4qc7HCIA5NgUBYIsTI3VSgdMef/z5o2f28GWI3yKt0h7/LvOe8c/fOEzbJj1WWb0+QgCY46wxAoARAIwARIqLfSvs3+NJ3cl3Cd9792/TH7oXPX71Hn+8oIAAgABI1aN3+j9GAMyxKYwA+MaxRt/4OSeEX9m56Qzogx6/fuK3hAAEgDnOGiMAGAHACIDRvBmazF1XGak7+a3viLaePwYA8XtH/BAA5hC/5fQhACAALFvQdcQIQGg4W2tB1joh+0TnnnlgoSciAMTvPfFDAEAAOB3at3s+HgGYY1sQAFp5MzSJtUtE6k5+r1WvUOumPnjGnz7ihwAwx0lbvT2MAGAEwLIFXUcIgNBwtvaCfOCE7BOde1y7+vyz505QGgn4rsdfv9CYyH1S3tnrhgRuVr9F7HaPmANgjhCAAIAA0EX8VjoQANp5MzQJnpOI1J3+XqdBNRYisUs61nmmEr9V/lte2e64TFbZgnKEAIAAsDu0b/c8PAIwx6YgAELD19oLojUksMT/Hze3F1/39NaUpPnz10/l1TvHsewSaJGtiUcIgGM9slR1c+PNP8fubQrbAFu9NYwAYATAsgVdRwgA7bwZqgQfSeXcnf4vQqDbgBa8asc4PmP/Ar7svnV8za828gW3reRNP5zCwyZ34YLCPKOJ3yozBIA9AfCjfZfzsy/8Gm9FDC69/ArldrF1+26+9OrrfX0f17K1UjkGDx4CW1K0Jas9tmzVSqkuiOjmUDEeClMOgVEW2eFYkewgACpiAjsBJrCBSNkABEA5ygzfl6fQoCtv0BAAleMCewEusIHI2AAEQPg4v1yJuhLR/9CgKzZoCICKmMBOgAlsIFI2AAFQji7D+WUfGnXFRg0BUBET2AkwgQ1EygYgAMLJ+eVKVZWI3kTDLt+wIQDK4wH7AB6wgcjZAARAOaoM75fORPTPEDTwr4hoz9FynK5aFgiAyDk71RnTuJ5gM6p+x7DrIQDCy/kVSjaDiA4bZoB2neqXRHQmEdUqK9Um1XJAAMCZq9oQrocNBdwGIAAq0GS4f1gTMIO1evy146oFAuD91HsL6IgEGDB7sSsocR5687ABxAGIo5VofN1ARN8a7tilx39WTI8/vmYgACAA4MBB4rABNRvACEA8s0Tk+xwi+sZAEZCK+K3qgQCAAIDzV3P+wA/4QQBYjBLBYy8i+q0hIiDRUH+iaoEAgAAAgYHAYANqNgABkIhhIvJ7DSK63kcRYLfHH18dEAAQAHD+as4f+AE/CIB4Zono95FE9HYahYBb4reqBwIAAgAEBgKDDajZAASAxSg4UjYRLSGitzwUAp8cnYC4K8nkPrvVAAEAAQDnr+b8gR/wgwCwyzgROi+TiCYQ0Y1E9C8NYuC/RCRbE88nohxNOEIAQACAwEBgsAE1G4AA0ERIYU2mkIgmEdFFRPQiEX1tQxCIaHiJiPYffawwl4hqegAOBAAEAJy/mvMHfsAPAsADcgp7ks2P9uiHlo0SzCaieWWfBx0dNWhHRFlpAAACIH0C4EdEJAGkwv5WIsTJI1vxFWeOCvR7364RShhI52BGUT++6oJVrt/7zl2mnAciujUC9qqjPY5Kg6/GLYCAdgQgANInAMZprz0zE1QintM3DuTDb28J9PvrV0uUMBABsHf3AubPbnL9/uqDA8p5IKJtZpoYcgUEgIAOBCAAIAB02FFsGkrEAwFwbF8ACIBYk8JnIAAEvEAAAgACQLddQQBgBEC3TSE9IAAEPEAAAgACQLdZQQBAAOi2KaQHBICABwhAAEAA6DYrCAAIAN02hfSAABDwAAEIAAgA3WYFAQABoNumkB4QAAIeIAABAAGg26wgACAAdNsU0gMCQMADBCAAIAB0mxUEAASAbptCekAACHiAAAQABIBus4IAgADQbVNIDwgAAQ8QgACAANBtVhAAEAC6bQrpAQEg4AECEAAQALrNCgIAAkC3TSE9IAAEPEAAAgACQLdZQQBAAOi2KaQHBICABwhAAEAA6DYrCAAIAN02hfSAABDwAAEIAAgA3WYFAQABoNumkB4QAAIeIAABAAGg26wgACAAdNsU0gMCQMADBJQFwL671/JPHtsU6veOK+YqkZps70pE2A74GA5JscRugNgN0AM/hySBABCoBAFlAVBGbkmdOs6BALBrAxAAEACV+Cn8BASAgAcIQADY6JXaJa8U52EEwAbWEAAQAB74OSQJBIBAJQhAANggpRTEbnf0AwLABtYQABAAlfgp/AQEgIAHCEAA2CAlCABHlmdXEFV6XvXCXD55VR/+/IV1fPjtLYF8f41JgI4MBicDASDgDwKnaSK3Sp050j7WmyvDASMADsRW7Rr5fOamQfzFi+sDJwIgAPxxZrgrEAAC9hEYQ0T/AkmXI2kvhQwEgAMBYNllEEcEIADsOyGcCQSAQPoRAPm7ICOLlFwe16W/mn25oyciKkgjAhAAvtgdbgoEgIANBED+6Sd/IcV3iCjDRv0E/RRPBIAluoIwIgABEHQTRv6BQDgRAPn7Q/4WKY4Np1mVK5VVVk+PJgsBCIBy9oAvQAAIGIAAyN9f8hdCvNcAO/A6C54SvzUSYB1NFAIQAF6bGNIHAkDACQIgf//JX4jxCBG1c1JxATw3rQLAEgImzRGAAAig1SLLQCCkCID8zSB/ixjPDamdWcWyyunLsV7tKr4vG4QAsEwBRyAABPxEAORvFvkLKX5ERFl+GoXH9/aF+K2RgOysTAiAz27irz44oKMetnlsK0geCAABjxAA+ZtH/pZTlroJ6+sEIvqLRcjpPkIA3MQMARDWtoVyAQFbCID8zSV/EQE/s1WLwT2pgIg2E9EnEADuAk3t3b2glMiFzN28MQIQ3MaDnAMBFQRA/maTvwiAr4goX6WSA3Jt2oUARgAwAhCQtoFsAgHtCHhG/rWrV+Fz14zhCzeMj/T75AVDrWF81eMk7bVvboJVj4qetDwagACAADC3GSBnQMA7BDwj/1rVqvAdP5jPv7muBO/rSrh149qq5C/XX+OdKRibsucjAhAAEADGWj8yBgQ8QgDkn0Zxsm3uIB0CQCbKhXk1QDJT90wIQABAACQzPPwHBMKGgGfkL8P+d6LnX2HU47F9KzgzM0OHCBgUNmN0WB7tjwYgACAAHNogTgcCgUXAM/LHsH/yxx39OzbVIQB2Btby9GZc24gABAAEgF7TRGpAwEwEPCN/9PyTk7/Mhdi5ZLgOAfArM03Lt1zJiMCtKksHIQAgAHyzXtwYCKQJAZB/Gp/5Vzb58dFLVnBmhvJjgH9HZDmgk2ZxJgQAMeIAODEZnAsEooOAZ+SPYf/UPf9YMdClZX0dowDDomO6tkoKAUAQALYsBScBgYgh4Bn5Y9jfGfmLEFg7pa8OAYB5AOUbMQQABEB5i8A3IAAEyDPyR8/fOfmLADh42gwdAuB22HY5BCAAIADKGQS+AIGoI+AZ+aPn7478RQC8sn895+Vmq4qAD6Ju3HHlhwCAAIgzCXwFAtFFwDPyR8/fPflbcwF6tWusKgDk+rrRNe8KJYcAgACoYBT4AQhEEQHPyB89f3XyFxGwYmIvHQJgdBSNO0GZIQAgABKYBn4GAtFBAOTv81I/q5ef7PijjRN1CICS6Jh1ypJCAEAApDQSnAAEwoyAZ+SPYX89PX9LFNy7d7EOAXBxmI3ZYdkgACAAHJoMTgcC4UEA5B+Anr8lAF47sIGr5OWoioC7w2O+yiWBAIAAUDYiJAAEgoiAZ+Tv1TP/By9Ywvef7/795GWrKmy2Y5FrUI4aAgK9HURj9SjPEAAQAB6ZFpIFAuYiEDjyF4KuVpCn1PtdMr5H4AXAxAHtlDAgom+IKMNc00xrziAAIADSanC4GRDwGwHPyN/rZ/4QACW8alJvVQEg19fy2wgNuT8EAASAIaaIbAAB7xEILPljBODYhMLdS7XsDNjee1MLxB0gACAAAmGoyCQQUEXAM/L36pl//HN5jACU8I+3TdYxAjBE1ZhCcj0EAARASEwZxQACiRHwjPy9HvaPFQEQACV8w67ZOgTAjMSmEql/IAAgACJl8Chs9BDwjPzT1fO3RAAEQAlrigWwKnrNoNISQwBAAFRqGPgRCIQBgdCQP+YAHJsD8NTlq3SMAGwIg3FrKAMEAASABjNCEkDAPAQ8I/90DvtbvX8IgGMC4KWri3UIgG3mmasvOYIAgADwxfBwUyDgJQKhI38IgGMCQKIBEpHq+zQvjS9AaUMAQAAEyFyRVSCQGoFQkj8EwDEBIDhkZWWqCgAhPryIIAAgANAOgEBoEPCM/NM94U+ILv6NSYDHMMnLyVIVAOeExuLVCgIBAAGgZkG4GggYgkCoyR8jAN8LIggALS1uFBG9pvI4JTsrkw+/vcXX99evlqiKQd67ewHzZze5fn/1wQHlPBAR5qVoMWskEkUEPCN/vyb8xff+IQAgADQ1bAmC9IgK8VvXQgAcEw0QAJosE8kAARcIeEb+Jgz7xwoBPAI4JgJyspUfAZztws6Cfon0+J+wyFvHEQIAAiDojQL5DzYCnpG/ST1/SwRAAJTwa9diFYDDJqutxx8vGiAAIAAc2iJOBwLaEPCM/E3r+VsCoGp+rtKzxjBsB/z8lWuVMCgjsSg8b9Xe44cAqHyeAB4BaPPpSAgI2ELAM/I3secvAuCJS9Uj4IVBADy+b6UOAVBsy8qCeZJnPX4IAAiAYDYJ5DpMCHhG/qb2/EUAXHfqDGXi2zxrYIWlhdboQlCOD164VBkHIloapgZRVhbPe/wQABAAIWw3KFKAEIgk+Qs571wyXJn49m0uCrwAuOMH85VxIKI5AbL5VFlNO/FbQgBzADAHIJVx4n8goAuByJK/CID5o7spE5/spBeUnn6ifF55whRlHIioSJdR+pyO1ln9FrHbPUIAQAD4bP+4fUQQ8Iz8TX3mH0+A/To2VSI+CZ4jM+jj0w3a9zOWj1TCoYzceoSk3ejAwnUaEAAQACFpRyiGwQh4Rv4mP/OPJ+Y61QtcO2ohvY7H1Qs8+QsmG6b3V8KhTADUN9jenWRNBxau0sjIIJ4xto2vUQAlCiEiAToxF5wLBIKFgGfkH5Sev5CejhUAkwa1D4UAmDWssyvCihnW/oaIMoLVDBLmVhULx9cL8RcNb8kv3LbAd/KHAEhoF/gDCAQeAc/IP0g9fxEAWAHwfRjggZ2bOSatGPKXa38f+JbxfQFUsbB9vRD/tNFt+OU7FxpB/NYeBBgB+N4Y8AkIhAWB/kT0dZzjtu2skl0XpJ6/9RgAKwC+FwCqj0LKwuGGpZ1oaRPJ2otpPX6L+K0jBEBYTBnlAALHEOhMRF8kc0pu/wtaz98SAFgBcEwAaAoCdGOIGppnAsDUHr9F/NYRAiBE1oyiRB6BpkT0oVuCT3ZdEHv+lgDACoBjAuCqE7UsAdwRolamXQCY3uO3iN86QgCEyJpRlEgjUP1ogJa3kpG42/+C2vO3BIDqsHdYVgCcOG+wDsKbEqJWpgOP0jSC0uO3iN86QgCEyJpRlEgjIEOz2hyalVbQyR8rAL5//j+hf1sd9tEiRK1MGY+gEj8EQIisGEWJPAKrLcLWeQw6+csIAFYAHBMArx8o4bo11GIhENGXIVoCKE5DSQAM6NHIuFn9FrHbPWIEIPLcAQACjoBM+vunqjOLvz7Iz/ytoX85YgXAMQFw17kLlciuzD4eD3hbic++Eianbxxo1JI+u6Qfex4EQLxJ4DsQCA4CWUT0Sjx5q34PQ8/fEgFYAXBMAOxYPEyJ7Mps6tLgNA1bOVXCBALg2AjK3t0LmD+rfKc/O79/9cEBpXoos81ttmocJwGBECGwSZXs468PS8/fEgBYAXBMAIzt20aHk50borYjRVHCBAIAAiBk7QHFCRACDYjo76pOLPb6MPX8LQGAFQAlpZsY1aiar0R2RHSEiMTmwvRSwgQCAAIgTI0BZQkWAgdjyVv1c9h6/iIAsALgWO//4GkzlIiuzLbeCFbzsJVbJVwgACAAbFkZTgICmhHoWtYjU3JglmgQ8r/zB/NDsdmN1fOXI1YAHBMAK4t667CTsD3/lyaphAsEAASAZr+O5ICALQSuV3Ve1vX5udl8/c5ZoSN/EQBYAXBMALRpWkeJ6MpsZYYtywzWSUq4QABAAATL3JHbMCDQkoj+ZxG4yjEnO4uvPmlqKMlfBABWAJTwQxcuVSK5Mvv6lojqhKHxxJVBCRsIAAiAOHvCVyDgOQI/ViH92GtPXjA0tOQvAgArAEpY0/K/Zzy3an9uAAHwaokSBuJPsAzQH+PFXaOHgMT71xL0Z0TPlizR4YQow/rGCoASPr57C2UHT0S7QtrUlLDBCABGAELaLlAsQxFYFtuDd/tZJv09edmq0BK/CBqsACjhl64u5rzcbCWSK7Oxnoa2B9VsKWEDAQABoGqAuB4IOEHgl25JP/a6M1eMdET+cn71qnna3rNHdOFX9693lAenoxRYAVDCl2+dpERwZTbzUcji/8e2NyV8IAAgAGKNCZ+BgJcINCaiw7FE7uZzt9YN+LUDGxyRr6bnyOWc7aAuzfnZK9Y4yocTEYAVACU8d2SXcpi7sRciutpLo/Y5bSV8IAAgAHy2X9w+QghoCft75QlTHJOuFwJAyEiWpz144VLH+bEjBLACoIQb1ammRHBlgmFqiNuYEj4QABAAIW4bKJphCBxy2YP7zsm1b1bX1cQ/rwSAlKdWtXz+6Y6Z2kVA1FcA3H72/O/qXcFuviGiQsPagc7sKGEEAQABoNMYkRYQSIRAJhH9TcGRlzq6vcVjXRGtlwJAyiTBiC7eOMFV3hKNBkR9BcCW2QOVyK3M1h5IZJAh+V0JIwgACICQtAMUw3AEeqiSf2GVXH7x6mJXJOu1AJCyZWQQr5vWz1X+4kUAVgCUcM+2jZTIrczeSgxvF6rZU8IIAgACQNUAcT0QsIPAZlUBMHVIR9fkmg4BYJVv1vDOyisEor4C4KnLV3FmZoYSuZXVRys7xhngc5QwggCAAAiw7SPrAUJgv0WQbo+XbikKhACQ8qmuENCyAmCTe7ziRyTS/V0e9bi1k5jr3gpQ+3CbVSWcIAAgANwaHq4DAk4QeDLGMTt2WtIbfObHqwMjAKSsbZrU5gcvWOIqz/NHdXWMUTy+95232NW90032ld1v4oB2yuUnovOcGGhAz1XCCQIAAiCgdo9sBwyBT+MJysn3zi3rK5FZOh8BxJZLVggcPM35CoEorwB47doNXLMwX4nYyupgWMDaiJvsKuEEAQAB4MbocA0QcIJAjVhSdPNZIu9V1lO0+5tfAkDK6maFQJRXAIhgcmMjcdf8nYhynBhpQM9VwgoCAAIgoHaPbAcIgW5xztmx0zpp3pDACgApe2ZGBm+bO8hWGXSsACga2N7WvewKqHSet7Kot2P7qMS+bglQ+1DJqhJWEAAQACrGh2uBgB0EhlbioB05LpUJgEJefo4AxJZ9+tBO/EqKPQQOnDLdETax6VufN88aGFgBINEVrXIoHBfbMcwQnKOEFQQABEAI2gCKYDgC4xUceamDu+n0OUqEZooAEBxSrRCI8gqAhy5cqkRoZXb2LRHVM7xN6MqeEl59ujbgL15cz4ff3hLY99evlihhIDazd/cC5s9ucv3+6oMDynkgom26jALpAAGTEJitKgB+8cOFoREAgkWyFQJRXgGgSag9Y5Lxe5wXZeLp1bk+//X5dRAAEAAemyqSjyoCK1QFwMMXLQuVABA8Eq0QiPIKgKHdjlMmNCLaEaGGpgMvDrIIwAhAhKwdRQ0kAktVBYAMDatMRJPn6hKhz+lb0250CZ20rBC4qKT8HgJRXQHw0tXFnJebnRArBzbUM5CtxF2mdeBVmkb/7o0C+TgAAsCd4eAqIJAuBGY6cN6VOrRD5y5QEgBuxcOjl6zgLi3rV5on1TJZ18fuIaBjBcCkQcFcAXDZlkk6cP6YiDLSZdgG3EcHZt+lEcSRAAgAA6wQWQACSRAYY5Gd2+MNu2b5IgBEOLx0zTqe0L/td07SbRlSXScrBK45aaryfYK6AmDOiC7KZSeiq5LYYRj/0oFZuTSCJgIgAMJo1ihTmBDon4r8Uv1/yaaJvgkAEQGvHdjAS8f3LOcoU+XZzf+1qlVRvse+gO4BoOlxy9QwNRwbZVG2l8rsNEiPAyAAbFgJTgECPiLQqTIn4+Q32Rve7TC+zut2Lx3OWVmZnjhdJ3gkO/fevcHbA+COH8zXgek3RFTVRzv349Y7k9mCyn9BEQEQAH6YHe4JBOwjUEhER1Sc0ZTBHYwQACImZJi+sEquDsLSnkZeThZLLH2doicdacljCxX7KLv2fvsmGaozT9KAXaX4B+FxAARAqGwZhQkpAn9UcVLtmtUxitSkx6ppyLpSx+sWq47H1TMKJ7vioVe7Rjpw2BjStmOnWJEdCYAAsGMeOAcI+IvAQ25JTa6TmfIyI98uoaTjvHSsEHCKWRBXADx1+Spdj1Va+2vivt89kiMBEAC+2x0yAARSInCJUzKLP39v8VijBICIjHStEIjHItH3IK4A2LN2jI7e/5spLTAaJ0ROBEAARMOwUcpgI7AmEWnZ/X3igHbGCQARAelaIWAHpyCuAJB6tVO2FOecH+zmoTX3kXocAAGg1XaQGBDwBIGOKRx4ShKQCW5PX77aSBEgQuDMFSM52+cVAvedF6wVADJhsWZhfsq6t2E7wzyx2uAmGpmRAAiA4Bopch4tBJQmAgoJyGYx6Xi+7/Yefq4QCOIKgIOnzdBB/l8SUU60mpKt0kZCBEAA2LIFnAQEfEfgWhs9uaSEILvoyZC7W4JOx3V+rRAI4gqAlUW9k9a3TXu5xXfLNjcDoX8cAAFgrvEhZ0AgFoEFNh16UlI4b904owWAiAw/VggEcQVAm6Z1kta1TXtZHGtk+FwBgVCPBEAAVKhv/AAEjESgHhH916ZTT0gMLRvVCkSwmxevLuZRvVslLIcqDvHXB20FgOzwGF8GF9+/JSKxK7ySIxDakQAIgOQVj3+BgEkIHHLh5CsQxSkLhxo/CiAjAa8fKOF10/pVyL8ODOLT2Le5KBCYWI9hZD5HfBlcfH/GJOM2PC+hHAmAADDc6pA9IBCDwBQXTr4CUeTnZnOQZrynY4VAkPAQETC023EV6tWFbeyIsS18KjLSAAAAFUBJREFUTI1A6EQABEDqSscZQMAUBLKJ6BMXjr4CWQzo3Mz4CYFWb1eOV54wxbM9BPJyswPxWMTC46Wri1nyrMEOeppi2AHJxxIikscmOrAvl0bb42ryHx9fzYff3pLWNwRAQCwP2QQCZQjs0eWA1k7pG6hhb69WCARtBcDlWyeVIw+X9vAREWWgVdlGwFPy//CxVWklfktoQADYrn+cCASMQKAxEf3LpdMvRxyyR8AF68cHSgR4sUIgaCsA5ozoUq4eXdrCVUZYczAyMY+IDrvEOWldSc/fL/IXEQABEAwDRC6BQCwCynsDWM6sSl4OHzhleqBEgO4VAkFbAaBpJ8WpsQaFzwkRCGXPHyMACesbfwAB4xFoSET/tEhc9SiTAvdvnxYoEaBzhUCQVgDcfvb8pD1Km7bwDREVGm/l/mcwtD1/CAD/jQs5AAIqCFxo09nbIgwZCZBQvNZEs6Acx/VrY6t8ybC6d29w9gDYMnugcnmJ6AEVw4vItaHu+UMARMSKUczQIiABXP6ajNic/peTncUmbhucTIz069hUiRCDtgKgV7tGSuUts4mNoW0VegoWCfLHHAA9xoJUgIBfCCxySvKpzpeJgVvnDArMSEDt6lWUCDFIKwCeunwVZ+nZMbG1XwYbgPuGftjf6v1DAATAGpFFIJACgbtSkbqb/xeO6W58nIAnLl2lRP6CS5BWAOxZO0a5vET0Zgp7ivLfkSJ/CIAomzrKHhYEmhPR/7kh+VTXCDm+sn+9saMBsnohVRlS/R+kFQATB7RTLi8RnRcWw9dcjsiRPwSAZgtCckDAJwRWpCI6t/8P7tqcn79yrZEiYOeS4cqEuG9TMPYAeO3aDVyjar5yeYlouE82avJtI/PMP3b4HwLAZJNE3oCAMwQud0vyqa7r3LI+P75vpXEiYP6orsqEGJQVAAdPm6FcViL6kohynJlV6M+OZM/fEgIIBBR6+0YBI4KAOPZHU5G52/+b1qvO9+xdZJQI6NuhiRIp5uVkBWYPgBVFvZTKWlbvN0ekLdgtZqTJHyMAds0E5wGBYCBQn4g+dEvyqa6rW6OAbz1zrjEiIEorANo2raNDAMhQN17fI+DZxj5+hve1evd2jhgB+N4Y8AkIhAGBLkT0WSoyd/t/1fxcIwIG6VgBUDSwvTFiJlmsg4cuXKqD/IXsJHYEXt8joAPXcmn4HdvfDunHngMB8L0x4BMQCAsCHYjoz25JPtV1JgQMitIKgB2Lh5UjmVT1k+D/Z8Ji3BrLoQPX79IIGvmLEIAA0GhNSAoIGISApyLA74BBOkgxKHsADO123Hckk4Dc7fy/wyDbNCUrdnCzdU4QyR8CwBQzRD6AgDcIdCWiTxVII6XzWz6hF8vGPMmGsL34LyorAF66upglXLGGOuzpjYkFOlUduHJQyR8CINC2i8wDAVsItCSidzUQSEJn6UfAoKisALhsy6SEuDuo04+JKMOWtUTrJGVsg0z+EADRMnaUNroI1CEieQas7PASpdG/U1N+9oo1aRsJiMoKgDkjuuios6uia/pJS66EbdDJHwIgqW3gTyAQKgSqEtF9iQhcx+/pChikYwVAUPYAaFynmhJJldXrlFBZsr7CKGF7+saBLCQa5DcmAeozJqQEBExHIJuI9usg+0RppCNgUFRWANx+9nwlgiqro2+IqNB0w/Qpf0r4QgAcG1Hcu3sB82c3uX5/9cEBpXoos/NtPtkQbgsEAoWAPAs+IxGB6/i9TnVvAwZFZQWAbFSkoT7uD5R1pjezSvhCAEAApNdccTcgoA+BzUTkSSQ0Ia2C/By+4oQpnswJiMoKgJ5tGykRVJl4KNFnMqFLSQlfCAAIgNC1CBQoUgjMJKJ/a+hlVupIvQoYFIUVAE9dvoqzsjIrxdVhfbWOlEU7K6wSvhAAEADOzA1nAwHzEBhJRP9wSCq2HacXAYOisAJgz9oxtjFOUndvmmduRuVICWMIAAgAo6wZmQECLhGQgEGyVlzJISa7fuGY7vzagQ3KjwSisgJg4oB2OuriPJf2EJXLlDCGAIAAiEpDQTnDj0AgAgZFYQXAa9du4JqF+UrkVCbGhoXfbJVKqIQxBAAEgJL14WIgYBgCxgcMisIKgIOnzVAipjLy/5KIcgyzL9Oyo4QzBAAEgGkGjfwAAVUEjA4YFIUVACuKeikRU5kAuFnVECJwvRLOEAAQABFoIyhiBBEwNmBQFFYAtGlaR4mYygTA4gjardMiK+EMAQAB4NTgcD4QCAoCRgYMqlWtipLT7nhcPeWJiF7sbmil+dCFS5XKV0b+Et+hflAMzcd8KmENAQAB4KPt4tZAIC0IbDIlYFAUVgDomONQtvFTWowj4DeBAHi1RAkDEZwIBRzwVoDsA4EUCBgRMCgKKwCGdjtO2SET0Y4U9Ym/jyGghDVGADACgIYEBKKCgO8Bg3T0jvdtLjL2EcBLVxdzfm62EimVPQLoERWjVCynEtYQABAAivaHy4FAoBCQgEEflZGMkvNMlEaygEFhXwFw2ZZJOjCVgE4yfwOv1Ago4Q0BAAGQ2sRwBhAIFwK+BQwK+wqAOSO6KBFSmai6Klzm5mlplPCGAIAA8NQ6kTgQMBQBXwIGhX0FQOM61ZQIqUwATDHUZkzMlhLeEAAQACYaNfIEBNKBQFoDBoV9BcDtZ89XIqMy8v+GiArTUfkhuYcS5hAAEAAhaQcoBhBwhUDaAgaFfQXA5lkDlcioTADc76oWo3uREuYQABAA0W06KDkQOIaATDg7v4yAlBxqojTq1ijgWcM7K6e9b5O5KwB6tWukXD4i2gijdISAEuYQABAAjqwNJwOBECPgacCgROLAye/37l1s5BLApy5fxVlZmUpkVIZD6xDblxdFU8IcAgACwAujRJpAIKgIeBowyAnZx5+bl5PFss2uFXLXpOOetWOUiKisrG8G1Wh8zLcS7hAAEAA+2i5uDQSMRMDTgEHxxG73u8l7AEwc0E6JiMowOM9IazA7U0q4QwBAAJht3sgdEPAHAc8DBtklfuu8SYPaG9n7l1GJmoX5SkRUVsZh/lR1oO+qhDsEAARAoK0fmQcCHiLgecAgi9ztHGWWvUnD/lZeDp42Q4mEysr+JRHleFiXYU1aCXsIAAiAsDYMlAsI6EDA84BBdshfzjF1D4AVRb2USKis/DfrqKwIpqGEPQQABEAE2wyKDAQcIeB5wCA7IsDUFQBtmtZRIqGysi92VCM42UJACXsIAAgAy5BwBAJAIDECEjDoJ3aI2otzTF0B8NCFS5UIqAyrb4mofmLo8U8SBJTwhwCAAEhiW/gLCACBGAQkYNAZXhB8qjRNXQGgY3tjInomBmN8dIYABMCrJUoYSNvbu3sB82c3uX5/9cEB5TwQ0TZnVY+zgQAQ8AOBtAcMMnUFwNBux+lwfDv8qMSQ3FMJf4wAYAQgJO0AxQACaUUgrQGDTFwB8NLVxZyfm61EQGUjHz3SWnPhupkS/hAAEADhag4oDRBIHwJpCxhk4gqAy7ZMUiKfMvL/mIjk0Qpe7hBQqgMIAAgAd2aHq4AAEBAE0hIwyMQVAHNGdFEinzIBcBXMSAkBpTqAAIAAULI+XAwEgAB5GjDI1BUAjetUUyKfMgEwBfajhIBSHUAAQAAoWR8uBgJAoBQBzwIGmbgC4Paz5ysRTxn5f0NEhbAfJQSU6gECAAJAyfpwMRAAAt8h4EnAIBNXAMikxDISVzne/x1y+OAWARX8GQIAAsCt4eE6IAAEKiIg8ex/poEcv3Psm2YOSLgHwOsHSvixfSv4/vOX8M/Pmse3nDGH796zkH950TJ+7so1Ca+z4vi7PfZq1+i7/CmUdWNF+PCLQwSU6gECAALAob3hdCAABFIgILPaz1cgxnJOfd+molIif+Gqtbx/+zTeOHMAj+jVkls1rsUyPyDZfWSXvh5tGvG0oR1599LhfM+eRcqi4KnLV3FmZkbS+ybLU8x/rVLgiL9TI6BUDxAAEACpTQxnAAEg4AaBrUQkYW6VnPS6af14RM+WnKdnzT3Xr1WV54/qytfvnOVKDOwtHqtUnjI83nIDKK6pgIBSXUAAQABUsCj8AASAgDYEnlQVAF5ef1yDmrx9wVCW0QW7jwMmDminRDpl5TlPG8LRTkipLiAAIACi3XxQeiDgLQJ/8ZLAdaVdq1qV0kcLqYTAa9du4BpV85VIpyzPw72FPTKpK9UFBAAEQGRaCgoKBNKMQF1dBJ2udOTxwDmrRyccDTh42gwlwikrx5dEJJMl8VJHQKk+IAAgANRNECkAASBQGQLD0kXcuu8jm/w8vm9lBSGwsqi3EuGU5fPmysDCb64QUKoPCAAIAFdWh4uAABBIicB63cSczvRqV6/CV5wwpZwIaNO0jhLhlOV/cUrkcIJdBJTqAwIAAsCuoeE8IAAEnCFwWToJ24t7ZWZk8EnzhpSKgIcuXKpENmX5k1UR9ZzBiLOTIKBUJxAAEABJbAt/AQEgoIDAo16Qsh9pLhzTnU9bdLwS2ZTl+xkFPHFpRQSU6gQCAAKgoknhFyAABHQgEIgVAHYFhaY4BDt1AIs0vkMAAuDVEiUMxP737l7A/NlNrt9ffXBAOQ9EtO27WsUHIAAEAo1A4FYA2BUCiuf1DHStmpd5JeKZNb4t//nptXz47S2BfX8NAWCeVSJHQCDiCAR2BYAiwScjpI+JSMIk46UPgWR42/ovKyuDRw1szjdfXMT/en1j4IQABIA+Y0JKQAAI6EEg0CsAPBIBV/1/e2cXG1URhuG37bYVMRBai0EBhWqgNUgr+BsJGEANCiVIapC/WLABBCoSFY0GjAYQFW1tIaUSDeFfQ+8kMYYrQgxGboxXJl6YaKo3xJiIGuvICCfZLrvbPWfmzDkz826y2e12Z87M833ffO85szNHD1rWkkWgpCRfqj3HjKoWz7ZOE+c/e9oaIUABkOUNfEsCJJAKAtavACg1aYT43qJUWMatRmgVANm2bKyvETu3PiR+PtueajFAAeCWQ7M3JOACAWdWAGQnBYX3fwK4wQXDpqwPsQmAwNZpnyKgAEiZR7I5JEACcGoFQJAMFF5P0ydiIRC7AMi2eRqnCCgAYvErVkoCJBCRgJEVAFVV1WJq4zTx6OOLxco160X7xq1i4wuvirUbtoily1aLWXPmi3G3TDCaILKTRc77TRFZslhxAonZd/rUOrH3ldmJryKgACjuIPwvCZCAWQKxrgC4fUqDaFvXITp7D4t9H58c9vnmOz3iicWtYtSo0YklCwCTzZrAm6MladP/j11VWSFa5taLU90LxaVvNxv/vQAFgDe+zo6SgBUE1uec/WoZpG8eP1Fs2bZj2IRfSBRIwdCydJmQVw7iaF+ROr+zwmp2NtK0LYseb2zt9aJjVbO40L/cmBCgALDTcdlqEnCVwIdFkmHRATRfubKyMvHIghbRffBY5OSfLQreeLtLTLh1Uuh25GtbiZ/tcdXQKeiXSTuGOlZTw1gjUwRJC4DBgaPiUM+GUGwKxA13AkxBQLEJJKBK4EyBAA89SGQyGbFm/fNaEn+2COg8cEQ0zbgvdHsi9muOKlCWL0jAlA0jHyfuKYKkBIBM/Md6N4nGKeMjs8mJJwqAgm7Of5CAPQQGcgI70gBRXl4h1m1+SXvyD4RA98Hjonnm/ZHaFqJ/FwFU2mM661oat/201h/HFIFpARBD4g8YUwBYF35sMAkMJSBvdRsEtNJr64q22JJ/IAK6+o6I2ybfodTOYfp7fCge/qWZwDQAewFoEZ3D2FKrnwRTBAPn1O5FYEoAxJj4A64UAJqDg9WRgGkCT+oYRJtm3Bt78g9EwFvv9ojrRowIBiHdr6tMG8DT48mrLHKnxVMA/tLhg6bqUJ0iiFsAGEj8QcxRAHgavOy2OwT6VAdOmYx3vd9rTABIISD3DVBtd57ygwDkFRE+zBKQ+1BsBvBNHpvEYWdtdUaZIohLABhM/AE/CgCzccKjkYB2At+rDrqPLVxiNPlLAdDVd1SMqakNBiJdr+e002WFYQk4P0WgWwAkkPiDeKMACOvd/D4JpIjAaAD/qggA+av/PV0fGRcAUgQseWplMBDpen0tRbbxvSnWTxH09yzKu9GQLgGQYOIP4o0CwPcoZf+tJqC8A+D0u+9JJPlLAbD7gwNCrjxQETA5ZZuttqa7jXdqikCHAFgwr0nncr6oMUQB4G7MsWceEGjLSYChB4IVz6xLTABIETCpXtuKgJ8AlHlgc9u72Ahgt42rCILbFf9wZk3oOFON05jKUwDYHk1sv9cEdqgODDt2dSYqAOYvaNE1mPZ67Qn2dd7aKYLKTLkun02yHrlyQ64g4oMESMBSAvtUBEAmUynk5jzyTDyp56q1z+kaBFsstSGbDVg7RaASfwmVlYl/P4CJdDwSIAG7CXyiMojU1NYllvgDwdHx4us6BMAlACPtNiVbf5XAXVc3GvpFxbdZ9prNwZj4GWIk4BiBEyoD3Y11N4lt23cn+lyt5wrAacfsyu5c2c7Zyo2GVGIyhrJM/IwmEnCUwOEYBgwdZ+Sm69joqH3ZrSsExgBoB3CW/n7NmX2hWPsbwCEA9XQiEiABNwlovQ2wxYOr/GU5H34Q4BRB8Xt/8IzfjzhgL0kAHRYn7UJnLmE//wNABX3BOwLS5vMAnLTtXgQxxSzP+L0LAXbYdwKzYhpMwibhJL9/3ncnYP+9XkXAM34GAAl4SqAKwO+ei4D3PLU9u52fgC9TBEz8+e3PT0nAKwLyhz5JnoEnfezpXlmbnS2VgKtTBLzUX6oH8Hsk4AGBBz0WAF95YF92UZ1AsNHQBYtjhWf86n7AGkjASQJfWjywqVxBkOvE+SCBMARsmyJg4g9jXX6XBDwkcCcAeWlQJZnaVrbfQzuzy/oIpH2KgJf69dmaNZGA8wRe9kgAXORe5s77s8kOpmmKgGf8Ji3PY5GAIwTKAXzqgQiQ+/7PdsRm7Eb6CCQ1RcDEnz5fYItIwCoC1QA+d1gE/MNbmFrljzY31tTtipn4bfYStp0EUkZADlx9DoqAAQAPp4w1m+MHgTimCJj4/fAd9pIEEiGwHMCvjgiBLwCMS4QiD0oCQwmoThEw8Q/lyb9IgARiIlADYCeA3ywVAucAzI2JDaslARUCYacImPhVaLMsCZBAZAIjAawEcAKAvJSe1iV/gwC+vty+7QBmRu4tC5KAWQLFpgiY+M3agkcjARIYhkAtgOarv6aXd1RL+vnAZXHSAED+iJEPErCZQDBF8COA/VyuarMp2fZcAv8B5kLeNo5MnfMAAAAASUVORK5CYII=;" vertex="1" parent="1">
          <mxGeometry x="43" y="475" width="91" height="91" as="geometry" />
        </mxCell>
        <mxCell id="RpmGVlQQaQAQjmuWH_eU-28" style="edgeStyle=orthogonalEdgeStyle;rounded=0;hachureGap=4;orthogonalLoop=1;jettySize=auto;html=1;exitX=1;exitY=0.5;exitDx=0;exitDy=0;entryX=0.5;entryY=0;entryDx=0;entryDy=0;fontFamily=Architects Daughter;fontSource=https%3A%2F%2Ffonts.googleapis.com%2Fcss%3Ffamily%3DArchitects%2BDaughter;curved=1;strokeWidth=6;fillColor=#dae8fc;strokeColor=#6c8ebf;sketch=1;curveFitting=1;jiggle=2;shadow=1;" edge="1" parent="1" source="RpmGVlQQaQAQjmuWH_eU-4" target="RpmGVlQQaQAQjmuWH_eU-6">
          <mxGeometry relative="1" as="geometry">
            <Array as="points">
              <mxPoint x="340" y="441" />
              <mxPoint x="433" y="441" />
            </Array>
          </mxGeometry>
        </mxCell>
        <mxCell id="RpmGVlQQaQAQjmuWH_eU-4" value="&lt;div&gt;&lt;b style=&quot;color: light-dark(rgb(26, 95, 180), rgb(237, 237, 237));&quot;&gt;http://172.20.10.5:8000&lt;/b&gt;&lt;/div&gt;&lt;div&gt;&lt;b style=&quot;color: rgba(0, 0, 0, 0);&quot;&gt;/api/...&lt;/b&gt;&lt;/div&gt;" style="rounded=1;whiteSpace=wrap;html=1;hachureGap=4;fontFamily=Architects Daughter;fontSource=https%3A%2F%2Ffonts.googleapis.com%2Fcss%3Ffamily%3DArchitects%2BDaughter;fillColor=#dae8fc;glass=0;strokeColor=#6c8ebf;shadow=1;strokeWidth=6;" vertex="1" parent="1">
          <mxGeometry x="201" y="424.5" width="139" height="50.5" as="geometry" />
        </mxCell>
        <mxCell id="RpmGVlQQaQAQjmuWH_eU-30" style="edgeStyle=orthogonalEdgeStyle;rounded=0;sketch=1;hachureGap=4;jiggle=2;curveFitting=1;orthogonalLoop=1;jettySize=auto;html=1;exitX=0;exitY=0.5;exitDx=0;exitDy=0;entryX=0.5;entryY=0;entryDx=0;entryDy=0;fontFamily=Architects Daughter;fontSource=https%3A%2F%2Ffonts.googleapis.com%2Fcss%3Ffamily%3DArchitects%2BDaughter;curved=1;fillColor=#dae8fc;strokeColor=#6c8ebf;strokeWidth=6;" edge="1" parent="1" source="RpmGVlQQaQAQjmuWH_eU-6" target="RpmGVlQQaQAQjmuWH_eU-15">
          <mxGeometry relative="1" as="geometry" />
        </mxCell>
        <mxCell id="RpmGVlQQaQAQjmuWH_eU-31" style="edgeStyle=orthogonalEdgeStyle;rounded=0;sketch=1;hachureGap=4;jiggle=2;curveFitting=1;orthogonalLoop=1;jettySize=auto;html=1;exitX=1;exitY=0.5;exitDx=0;exitDy=0;fontFamily=Architects Daughter;fontSource=https%3A%2F%2Ffonts.googleapis.com%2Fcss%3Ffamily%3DArchitects%2BDaughter;curved=1;fillColor=#dae8fc;strokeColor=#6c8ebf;strokeWidth=6;" edge="1" parent="1" source="RpmGVlQQaQAQjmuWH_eU-6" target="RpmGVlQQaQAQjmuWH_eU-16">
          <mxGeometry relative="1" as="geometry" />
        </mxCell>
        <mxCell id="RpmGVlQQaQAQjmuWH_eU-6" value="&lt;b style=&quot;color: light-dark(rgb(26, 95, 180), rgb(237, 237, 237));&quot;&gt;Controller&lt;/b&gt;" style="ellipse;whiteSpace=wrap;html=1;hachureGap=4;fontFamily=Architects Daughter;fontSource=https%3A%2F%2Ffonts.googleapis.com%2Fcss%3Ffamily%3DArchitects%2BDaughter;fillColor=#dae8fc;strokeColor=#6c8ebf;shadow=1;strokeWidth=6;" vertex="1" parent="1">
          <mxGeometry x="392" y="475" width="82" height="146" as="geometry" />
        </mxCell>
        <mxCell id="RpmGVlQQaQAQjmuWH_eU-36" style="edgeStyle=orthogonalEdgeStyle;rounded=0;sketch=1;hachureGap=4;jiggle=2;curveFitting=1;orthogonalLoop=1;jettySize=auto;html=1;entryX=0.5;entryY=0;entryDx=0;entryDy=0;fontFamily=Architects Daughter;fontSource=https%3A%2F%2Ffonts.googleapis.com%2Fcss%3Ffamily%3DArchitects%2BDaughter;curved=1;strokeWidth=6;fillColor=#dae8fc;strokeColor=#6c8ebf;" edge="1" parent="1" source="RpmGVlQQaQAQjmuWH_eU-15" target="RpmGVlQQaQAQjmuWH_eU-17">
          <mxGeometry relative="1" as="geometry" />
        </mxCell>
        <mxCell id="RpmGVlQQaQAQjmuWH_eU-15" value="&lt;b style=&quot;color: light-dark(rgb(26, 95, 180), rgb(237, 237, 237));&quot;&gt;HouseController&lt;/b&gt;" style="html=1;whiteSpace=wrap;hachureGap=4;fontFamily=Architects Daughter;fontSource=https%3A%2F%2Ffonts.googleapis.com%2Fcss%3Ffamily%3DArchitects%2BDaughter;fillColor=#dae8fc;strokeColor=#6c8ebf;gradientColor=none;strokeWidth=6;" vertex="1" parent="1">
          <mxGeometry x="285" y="644" width="129" height="55" as="geometry" />
        </mxCell>
        <mxCell id="RpmGVlQQaQAQjmuWH_eU-35" style="edgeStyle=orthogonalEdgeStyle;rounded=0;sketch=1;hachureGap=4;jiggle=2;curveFitting=1;orthogonalLoop=1;jettySize=auto;html=1;entryX=0.5;entryY=0;entryDx=0;entryDy=0;fontFamily=Architects Daughter;fontSource=https%3A%2F%2Ffonts.googleapis.com%2Fcss%3Ffamily%3DArchitects%2BDaughter;curved=1;strokeWidth=6;fillColor=#dae8fc;strokeColor=#6c8ebf;" edge="1" parent="1" source="RpmGVlQQaQAQjmuWH_eU-16" target="RpmGVlQQaQAQjmuWH_eU-19">
          <mxGeometry relative="1" as="geometry" />
        </mxCell>
        <mxCell id="RpmGVlQQaQAQjmuWH_eU-16" value="&lt;b style=&quot;color: light-dark(rgb(26, 95, 180), rgb(237, 237, 237));&quot;&gt;InfluxDBController&lt;/b&gt;" style="html=1;whiteSpace=wrap;hachureGap=4;fontFamily=Architects Daughter;fontSource=https%3A%2F%2Ffonts.googleapis.com%2Fcss%3Ffamily%3DArchitects%2BDaughter;fillColor=#dae8fc;strokeColor=#6c8ebf;strokeWidth=6;" vertex="1" parent="1">
          <mxGeometry x="444" y="644" width="129" height="55" as="geometry" />
        </mxCell>
        <mxCell id="RpmGVlQQaQAQjmuWH_eU-17" value="&lt;b style=&quot;color: light-dark(rgb(26, 95, 180), rgb(237, 237, 237));&quot;&gt;Model: House&lt;/b&gt;" style="rounded=1;whiteSpace=wrap;html=1;hachureGap=4;fontFamily=Architects Daughter;fontSource=https%3A%2F%2Ffonts.googleapis.com%2Fcss%3Ffamily%3DArchitects%2BDaughter;fillColor=#dae8fc;strokeColor=#6c8ebf;strokeWidth=6;" vertex="1" parent="1">
          <mxGeometry x="163" y="815" width="91" height="49" as="geometry" />
        </mxCell>
        <mxCell id="RpmGVlQQaQAQjmuWH_eU-19" value="" style="shape=image;verticalLabelPosition=bottom;labelBackgroundColor=default;verticalAlign=top;aspect=fixed;imageAspect=0;image=data:image/png,iVBORw0KGgoAAAANSUhEUgAABLAAAAJ2CAMAAAB4notuAAABI1BMVEUAAAAcrvYcsPggsPggsPggsPggsPggsPggsPggsPggsPggsPggsPggsPggsPggsPggsPggsPggsPgcsPggsPggsPggsPggsPggsPgYsPggsPggsPggsPgcsPggsPggsPgcsPggsPAYsPgYsPgYsPgYsPgwmP8guP8YsPAoqP8QsP8YsPggsPAYsPgYsPgcsPgYsPgQoP8YsPgYsPgoqP8YqP8YsPggsPggsP8YsPggsPgYoP8gqPggsPAYuPAcsPgYqPggqPgYsPAgqPAgqP8gsPgYqPAYsPAYsPggsPAYqPAYsPggqPAYsPgYsPggsPAYsPggqPgYqPgYsPgYsPgYsPgYsPgYsPgYsPAcsPQYsPgcrPQcrPgYsPggsPQcrvYcsPiLuUzmAAAAYXRSTlMA//iwwED48KDo0OBggHiIcLjY8KjIaJAgUFAwmOA4WOgQkBhYYAgIMAgIICg4cNBACCiYEAigSBBIKAggMBDYIBgQEBD/EBhoGBh4GIDgSMgoKIiwuPCoSNjA8NDQ2PDIJ7bsIgAALnNJREFUeAHs3QOWc1kYhtHzxZZ+27Zt25j/OHr1Uhup4Oam9h7Gc/AmpgYAAAAAAAAAAAAAAAAAAAAAAAAA8HL3wdak86vJofKJBLCSrrdq42r8QeVT724CWCnHt43q8fcar3YkgFWxvViJf9Pc+fVYyhzA804z/lul2LqfsgRwt1aI/6lQ6p1IGQF41i3EVAbdcsoAQG8Y02te2HYsLRXAjkZsUFXQWiqgG7Mo9Cdb0zIAPOvHFASt7AC798ZcNPeXE8AilYcxN9VR60ECWJDthZirQqm3NQEsQKsQ8zdo70gAc9aLBWle2HY4AcxPJxaoOmo9TADzcSEWrNLv3UsAMzv2JaaQXdACON6PZWnuLx9OABt1vxTL9HnUupoANuLJz1i2Sr93IAFM68SdyERjyqAFcH5XZOa1J4fAFHbsjUx9rh28mP4HgLM/InOV4uRAAvgP2wqxGhrt8wngX+wpRAamD1oAT2PF1GsHzyWA6Z87ZxW0nieAP9oSq6rUOZ8AflOLDEwftACOFGPV1WvbjiSAi/3Ig0px8iwBm9vjceRGqXM9AZvXgZ+RC5ZZgbu7IhcELeBkPXKpUmzdT8CmcmoY+SVogTV6QQvw3Hlhy6zHErDuJrEmqsXWgwR47pwXpd7WBKyrbuSDZVZgZ6yj5oVthxOwXo6NYl1VR62HCVgfxz/FOqv0e/cSYI1e0AKW6cmZ2BSa+8uHE2CNPj9B62oCrNHnJ2gdSIA1+rxoCFrguXOOGLIAa/R58rl28GoC8uJQIXJB0AJOBxGN9rsE/MLeXeg3rjzBo682M1EMicPMzFkILTMd+t37/i9x4X/Q+ihZjzSyZuT6PsCBhdhqdXWZ7q3ocpvOp+2++7cJIhqHuHPtdR8AXiUns2Kv7GT3HGYioqWGaFGbxr8Ws5bf/ZsFEZnnMC5axG/wX7sT8rB0Lc+7f8qI6DohWpQVXjxOA7hOFv8Qw+WMGmgR0Ztt0WJLYbXrdgl/Wq9UU8YPtI6XYQQimt8WLV7AzbS46+Ifu51M2vhm1tY9iCh0n6ZEh1gX7iriKreK/1g9ncyL2WKJylMQURTizvUkHlIccuDVe5sTw+Xe9kBEodmpiw71Ph42Ia5agNN6Kx4Ts2UznWUQURi6MdEhe4nHfBdXHbi4mm6kxWzp79PPYSkittFPXeBRS1VxE3sPd8m5vBguUTqDhYjYRv/LM/zEWkLcxPp4yEYxZ37kMAkisqyNvjmLn7r+XdzUV+Bg10Arv99ZBRHZ00afOMEQ5qfETfYpHnO1kEmbHzm8BhHZcZ7hyzmG0p4RN1Ov4E73QIuRQyK20R9hWJd1cZO7wmM40CKi3apoMYfh9eviprmLh3GgRURXTdGiqGPpq7qKodxZMNBq6B5oEdGrbdGiBTXT4qqBYZ2bP9CKaR1oEdHTJ6JDbAGqXoirSTjYPtBiM6suRB81nWd4r6/pogglTytVCwZaS/CLiPrBx53Vg9AVuLB/oHUDIjKgjX5mBd58F1cFKDtPzmXNb2Z9BqKQ8TzD1Bk8WqqKqy686Jk/0MpxoEXk0aJosT0Pz3ab4ia2A2/OSgkxXO1zH0QUVtz5Dj7cbYubeg9evSnEU2K2/MRHEFEIcefqAXx5NiVuZs7g3WEnkxWzVY9BRKOOO8eX4dPZA0HoNnzpl2titEQSwyGiI9EiAwVqQegn9/CpbfiGVvwCRPRza1XRYgI67MTETfMEvr1cNHmgVW+BiH7meUK0eA09OjFxk1iGBmtdgwda8XsQ0aPufxctKtBlWlzFoUmvWBMzZTdBRI9Y1xR3noY+FXGVgTZ7pQ9iolgBRPSgPf1t9BoUxdUcNJotGNlyWEYYiNhGr3/NogStdk0caE2AiFzt/CY6zPSg23cNdwEtHWhNgohcdPTHnXVZrYqrBej3sdQck+9YRGyjf9KGZ+qN0MdQYOlAawsORFQZXbuzziB0H8HY7R59E0N0QERBnGdI3CAg81MKHfbRGmjVN0BE/zE32nZnjUHobBsBunzdlPDVTvAPIsqIFpklBGilLm6m5hGoNwYMtDIgor8sx0WLiXBaMbbvELC1zn7WiDEWEZ0kwmh31hmEXkPwkhPvJDwzVyAijW30lfAuzVeXMQrtSiLU/VEiav8iOsQWw1y+aGBEnrW+piQUPRDRUxPizgqKGr6AWDnQqoJo7G1kjYw7qy9gvMUoJUM4Cp8EEdvozYg7K2iIqwpGa6WY41csIhvb6C+hn3Ij9CJG7eVoWw5XQOQf484X8E5jI3QXo3ez0EjzReEIEBViosP2S4zY821xEzuFOosGWulDEPnEuPM19NAQhO4hJBulhARvAURso/clfghNNAShZz4hNO0X1ZQEqwEittH70ViCPhqC0OsI0W4nk5YApTGWiFYbdsSdlRuhn7xBqJZOJ/ISmD7GENHaV9GibN4F+u3nUGfLQKsEIrbR23lsfFFc/XqO8F204jHRL46xQ/RqOxq1xBVx9QVGeL4Yj4lmWYwboqdPrIo7q7/oPIIhXk3ERK89jBeijSnL4s7qrzon7Kp6VFDAWCHa1BQf7MMEDXH1GqZohH7bnYhx56mP0E9jI3QLZljKiVY1jBGirqa48zoMcdAUV9MwwWxcNJsFEePOan6/hzFmHwhCv0fo9sr1sNtziNhGn3gOgzybEjexPsL0bGEiJwEog0gJzzMcwCgXM6adbmhlahKQBMYD0YRdcWf1ILQBpxtOkqV4WgKUWgYR2+itPnvZj4mbqTZGaX5hLncrQeuDiG30NsxQ1IPQdxiNpV6lkZWR2ELkER1Uo30uYFFcNQ8QuFedos7Lfcw/E901RYtFmGpLXCWWEaSNwn5NtGL+mWhe03mGBfsuPscRkAOt43UFF4g0oramuPMPmGxOXB0FM15PpCQAzD8TXWpqo+/DbN9H8pqgV8nkJUz7iDCinbrokN2A4VarAb9Xu++WNXyxqjVK3YVC8deUeJNDdBEdx0SHqacw3kEzuIeoy9ZRTfxKJcqdWfzlYCsrnlzhUURso99+BQvM/iKuuj6314tf0+JXNl7ZXMWAwznx4hgRRdQSLT5cQZ1BQegkPFqfntCwvZ6bLLThplsXdUU8hohx5xOoMykIHet7yzDnNTwFzi3M4kHJmCj7FY8gYtx5Fdbo/SZu6jtQ8aajY7yeb1R6+ImCKEst4SFEbKM/gjrjgtCxRQyprWN7/baWaW1gGHHmn4nsjztrL6rJPMfP7CaL1bT4la4WT08wrKcxUVUBkV0Yd1Z/ysou4BHt6bmcjqfArRWoORJVDbgiYtz5RZQuQec6cNWvNDSM13Nz022oSzL/TPZi3FmDsjwk//YMA2a1bK+nq8XkLjzKiqp1EBmOcWcF+/Kw2uT05Q0A7G6+0HF7/V2mdTnirtVpRAjR5YwBcWejC5fT77LpW/Er1ZzozofQZTQJJyK20a/AWqsJCVg6Xto5hA595p/JP7bRn8Fid1MSnGyj0oM+aVF1DSK20f/X9jysthKTIKQSn7tvoNevouoU0UC0GBMdmrOsNXN7F3gI/YrMP48r2hItqgewXTsmGtUmC58QkGNRVQURzzP8I34O+zVFj1TOeXBBs+eiKo2/EfE8QwZRUBb/svFSchlBy4mqHmxHtNQQLSYQCV3fZ/cW2xiJfav7n4l4nkGDpHiW/uf4+kgUxi7/THSdEC1aiIieeJL/XulhtC5EVR5WI3qpKe5cQFScirLafmEDIciKqjYsRnTxRHSIHSMyWspPgVcISXys8s9Ee5rOMyTH8kJ0vvFixbLtuTlYi6g3Y3jc2dznrHRm4RlGh/lnop3fGHf29pIwX1iDAVZToih1ADsRdWKiw//aiJKq/NznXZghIaqSIBrnNvrcG1hNPaAXm4Ypysw/E+POBrQ7G3wPK5aEMTrMP6sgxp0PESkJu+r9Zpl/Hh4x7nyEaMnY9hWlJqpWYBuiDOPOLpYb1v2Fz0Q+QkV0HhctioiUk4T83BcYpRD1G0BEu1XRooJIufpgYbblU8Tzz0RXH0SLAiJlPifDuIdZsqLqGexB9OwX0SHWRaScTdn5/SQuqrqwBtFTxp3dbGQtzeKVIvymhGhFU9y5N6Ylsgn776M2QTRebfTZy3Etvc7BMMvq+ec1EI1TG/2Ti7FNVaaWYJgPomoHNiBa0NRG/waR0hIFG/a3kpVgAaJCTHRIXI9zqnLR/layOIgYd45YqvK2VkvZsCh+H8X8M1FZtMgsjUWqslbYBVZfTIlTDaapiaqPMBzRPuPOCiWy5YdL0N7AMEei6gWMRrTaYNzZxUFV3MQW8berKXHowDCtiOWfidaqosUWIuWqKW7q7x+baZdhmA1RVYPBiJ4n2O7sYn5b3NT7+K+m6bvuSIuqlzAW0f3vjDu7ePpkqJLFFzIodQ7DVCOUfyZaf8K4s4vLGXEz1f7Z2fQ+DPNaVH2GTYht9Iw79+viZnseTrlRDfKYfyba0HSeYTzizs1ZwGnS9EXxQ/X88zlMRHQ2Izo8WR+LVGX1wC0aLYOyME1TVPVhIKLZJ6LD9vxYpCrj53CxLg5nMMxENPLPRFXRoXmHSKmo7VPmTT9m3xFVX2AeoreiQ3UNkVIUV3N4QEMGTcIwr0RVFsYhSooOjaWxSFW+xkMqxi+K50XVGQxDtFwTDSbHI1VZwYN64nBnf5F3AYYhKooG5bEokY1Nq2Rfju3PP0/CLETzdfGvNBapytgxHpMw/Yf4ivX5Z6IM252dXm17Sh29jWD+eRYmIWrHxK9YJ4qpSvXU0XsZlFpl/plIr0nxq346FqnKqTP8xM2tDNqEYYp2zyaJ3sTEp/rmWJTI/q+Nn8rJoIr9CywJEEWpI2dmBZGS/E3c5N54+LbagGF21fPPqzAHUU38mbpApHRi4iZxgyEsGr8onhNVmzAGUV/82X6FSCnI0HFnF21xeGp//rkCYxBNiC/NWURKxWfJYtb0/udpm/ufifLiR3V3nOPOLuKmL4q3Lc4/E62IH/Hzsfi6Wfb+DS0XgU+oNgxBtCU+HCFajvwPcTbF4RqGaYiqRRCZtvnMNvq1B9udFSylZNAPGKZib/6Z6Jt4lkGkXCe0lCwmZNBbGKYnqnIwA1FbPEuMRYnsb0moKUcw//wcRiDqiGcrjDu7OZZBaZgmIarewwhEr/lA+GjceQ+q7sShZ3/++S2MQHQkXiURIb0H2+jV1UxfFP/B/LOtKCEe5ceg3Xn7pY5rPd9hmGtRlYYRiHLiUQPR0X0g7nytJYyYj8Bveg8mIMqycuLBdudDeHIhDhcwzKSl+WeitHj0Iupx58aSrg+BaRhm0dLv00Qp8WgLEVHSvt0dNz0Q8NTS/DPRrXhUjHbcuagxnvlHBAYB67AZ8ZHwe6Qbzko6TyLentiff54Gkc1D9ywiYDkexHmC1ZTpK2sVO3PuRDnx6hLWu1GIO6tImP74vGln/pkoPsbRnLtmQCWLZRlUhWGWUqLqGjYjXnSPzcNu7SdBlSx2Iph/PgVR+BbFszis1p4KrGRx1vjDFuWxeytMPOm+FcW480UQVY8tGOZYVFVhAKK0eBbbgbV2Hog7z0OHjOnzvis7889ECfHutx4sdRzTX7JoVf65ZuW9RqK34sPMHqw0HRM3iRPo8cn4oqxJK8OjRMfix9QFLNQSV1/OA9vHXYBhClbmn4meiy/bs5GJOx9BnbX55ws7LzYS5cSX5kFEVs/mgvyZ2IRpslb2PxPtiz+J5UjEnYvQqS+DUgf2RxwWQBS+gvgUh0WWG+KqBa2Wjc8/b1mZfyZqi19HsMZuVdzEpqFZUwa9hmH6oqoJAxBlxa8yLHH1QdzEjqHbZ9MXxZdTosCYx1qiuPi2BSvM58RNvQ/tuhHMPydBFL4t8W8RFniqEHfWnn/eYP6ZSIe+aNCF8Tay4mbqDPpZkH/uWJl/JlpNiX+xUxhusy5u/tdGIDKmv5mYjX7+mZh/tjYInazrjDurHxqrwTQ1K69iE5VFh5k9C+POv94gIHvi8AqGyYiqFojC1xEtptatizvHDxGYrOlTvkUrF+6IZkWPJy8tiztnoJ89+ec9O/PPRDXRo3kCI33WkzVh/nkeROHLiCaJcxhoMpT9/B0ZlDqEYeJWLq8QLYouX2Cc1Ya4qiBYh8bnn0tW5p+J9kSbI0vizlJA0JoyqATD7NiZfybKijZlGOWqqaeNXsOhwHgE8s9rIApfXPQpwSCvtsVNPYngdWXQN5imKap2QBS+kqibPFvIiZuC+e3OPYzAK3HYg2EmrPw0ItoRdXfAUtnsd0mXD7Q7f8JI5GVQAYbpWnldlugw5XGJsCguYkkYoV8XN0/aGI0j0/uf70XVNxBZOc3IPpJDrPdggNO6uMm9CSsPVINp8qJqD0Q2TjNS549sZc58QugWYuImcYNRuRSHWRjmyMpLjURdUdbHnxpmBqELMdW4s35pGdSBYVqiKgOi8L0SZRX8afWruPjfrJlx5yWMUNX0so5LUVWDAYjeiaoG/nKYMC8IXRRXkxip1zIoAdOkRdUbENmYf87ib9fbpgWh983Ywk/KoNQyDFMVVR0Q2TjNkHX87eUTcRE3Le68Ffq2SB+GeW1l9IroUpRN4x/trEFB6LWvxrzgapre35gUVQkYgCjt69bIZV1czCEEzxPiJtaBE/PPChvDRj3WEn0VVbmfl2iVMHL3v4ub+ilCsCCDshHYGO6DKHxFUXV7gP9IxsTFC4zY+hMNbfTazIvDhf0bw1sgCl9SlCWH2D1dwEjtPXCe4RKumH9eYP6ZrLSbElXFIV40xn5ghHoPnGdom7Itsg/DzIuqLAxAlBNV1WHekcf6obc7b88bsy2Si0D++QxE4ZsTVemhKqRnPmJEOjENbfR6rYjDHQzTEFUFEIVvWpRtwGEyzCD0YkzcJA5M2hY5tn9jeBJE4XsmylrDfV4/uccIVMRVfBmPYP55hflnslNew62R1aq42H4e2nmGI8O2RX6NwMbwHYjC19DxWbvWFBe/noe0T1Q2bVsktWp//vkYROGriLKXgNPsL2Es7xyZWvKya3z+ucj8M1mpJ8q6brOwqZFfqlyOi6sXBm6LVJh/1oIoreez9mJmxEHo6wfizgsmbos0YJgD9fzzKojCl9D0Wbsy2iD0y21xE3tv5LZIFqb5Q1RtgmzE/HNqVaEQsGV/3FnHtsi6/fnnCojC90OUbarsnC+MMu68Yuq2yLT9G8MNEIXv5lbbZ+20+kOa3rjzGUzRMH1R/IL5Z7JTTt9n7YvRBKF3fhM3/2vDGFsRzD8/BVH4JjV+1r4VF/WP0KprQNxZeVvkGob5zv5nstKiaPysnQg+CD39QNz5xOhtkVMYpsL8M1npqSibVqw6fPIK2rwQV/Fzs7MvRfs3hnMwAFFW52ftUlwhCK2xjR6GKUaw//kaROGLa/2sfaDDfi3Q9aE5mOZUBqUjsDH8A2Qj5p9vb/Cwm1xwQeiMNcHck1sZ1INh3oqqIojCtynKknjEmyfiIhNc3LkCA+VML8p6z/wzWWkppfmztj0lLibg00FV3MQKMNGEDGrYvzGcBlmJ+ecqHrVRFxev4ctdU9zEunZcy89HYGO4B6LwlUX3Z+1mXfuj2/y2uKknYaZ1cWjDMJPMP5OVuqLsEo9z77CfhmftB+LOPXjE/PMi889kpStR1vKUn4kdWxt3VtcwffWiLaryMABRTVQd4WcK4iKWhCc7dXHzpG3RtkguAhvDbZCNmH+uedxJr6/Ag+OYuMm9sela/u2J/RvD0yAKX0GUvfI4y88+1Rd3vrHrWn7S/o3hCRCF70xPdc5wHfavNPWqxw8t2xYp2r8xnANZifnnz55bWnNXeuLOSzDcWxlUtXBj2MTHWqIvwcQ03DvsP+xqiDtPwHjvI5h/ToIofCVRlVrGENYS4iJuY9xZQ/ZlBYYpM/9MVuqLsj6G4d5hn7Ew7qwh+9KCYY5FVRVE4VtOiaotDGXeTxB6tyquCnZui2Ts3xhOwwBEH0RVHMNpz3h+tLj6YH7cWSX7ko/AxvAKiMJXDq6m7tJrEHo+J27qp9Zey39m/8ZwC0RW5p/bGFK/7mlp+umUuKlvwhp5GdSxf2M4A6LwvZQAa+pOvQShN7LiZuYS9miYvotxxvwz2akWZE3dtHoQerMubqbaNl/Lb0ZgY/gZiMJ3FGhMo6UahE7Wxc32vNXX8lNr9uefOyAKX0sCrakrugehFePOzTvLr+XvwDAl5p/JShui7NR3wmZqXumnZ3XN9mv5r+3fGG7CAETpgGMameGD0CVx1ViyflukauHGsImPtUTVgGMaS/Fhb1pNiKtJ2Oc4gvnnHRCF77WWmIZyh33tAoMOMxGK3V6Jw4b9G8OvQRS+pAQd07jeFhf1Av7rIhephqmcDHoBw3SZfyYrraUCj2m8fCJuct1z/OXVRExcFWCnfRl0BMO8Yf6Z7NQMPqaxPiWu0o1Kp5fsFBMxsTHurJB9qUVgY3gDROGbEFXvoOpsRjyon8JWF+LwCobJiKoXIArfgiibh6p+XZTV+xG6lt+1v//5CEThmxdlXShLxkTRzAosFjf9tvOeqKrBAET5kcQ0uqJmpg2bbcmgDzDNN1F1D6LwNUTVh+BvMMU24WR3/vnc/vxzF0Q25p9T54EHbguw22pKBiXtzz+XQRS+FVHWD3q7OgfbJWRQCYbZEVUfQGRl/rkU9CnxQuSu5cdhmMOUli/W5iPmn+NBz03WYbuODMrCNE32P5OViqIqC292czKUW1hvVhw+2b8xXAJR+E5F2QW8uZiRoTyP3rX8gv355ziIwndyK6oKAb+S7MB6GdOLsu5FVRYGIMqJqsmA/10JBI7557yo+gQiG4uAc0E/iLyF7T6Jw6z9+ecCiMI3LcqeB/25PrcGy2VNf8xtsf+ZrLQuyn4EfpM537qG1b6Yvih+yfzzuGD+uQiv2jKsWGP6GvYqGT+XS4uqWRDZmH+ujujWZaLShqX6Mii1CsN8Zf8zWakiqtKjG/HXykkoMLf7bxOGKTL/TFbqi7LeKEf8+YlkBK7lb9nfmJSAAYjSI7zw3RMv0o3CNezy2fRF8V31/PMyiML36wjfcO/eijcxywZa3QjmnzdBNmL+OQ/PsuJd8/UGbPFGHNowzJyo2gJR+I5F2TN4lRdf8nPJJeaftVhg/pms9FxG+Ib7D/Er3SjcWJh/3re/MSkLIivzzxPwqikapOKL9zDcovGHn/Oiqg2i8O2Lqia8qokmuWIPJtsThzsYpsH8M1mpIKpSa/AoK/q8m0talH8+hmFeiKp9EIXvQpTtaGjA0iGb6Rxa0v9ctL8xKQcDEGVFVSmIvyQpjwOtwhuMBPPPz0FkYxFwXO/TZ7OUPAGWLqf3s+JFYusCpnf/pZfsb0w6BlH4tkRVVuehy3gP/9os58SLWnnT8O6/nv0bw0UQWZl/PtP28DnThcN6Kx7zNtBa2DU4+1KBYU6ZfyZbj6GoKuiqSJ9ah4urhUza20CrdW9q91/D/sak1BKIwpcQVZOa+jufPMMDln9M5sWLXyttI/PP+QhsDPdAFL6yqMrpWRuN9fGYjVLC3g2te+M7+CdEVQVE4euIsiuo2/DQ6LVeSaTEg/zkj2XDsi/T9jcmNUAUvllRdqzjtVT6AEPY7XgeaL1EiI5k0CQM85H5Z7JTTVS9hbqm90lYslwTLxKlM2O6/3IwhffcwTqIbCwCTkDZM383LHvFnHjxR7FnRvff7Y39n1PTIArf4iiqc1q+L5e+LMS9DbT2O6sGZF9O7f+BNQmi8O2NojqnquOs1lrHW3wnHS9ch519KcIweeafyU7fgr/wfZMSTd84knN58SBWbbUxSq9lUNX++PPtDYhszD83fL9ET69CnXNDy+Rm1qQMStt4YMbAx1qiUvDVOQ1xyMCXNz4HWsw/V0SYfyYr7QRenbOaFocF+HXicUMrnekchJF/fgGjNEVdFURGHENRteDzNkDqBDokJ/LiQaramh/z/HNSPEjDAETNoKtzJoP7rN4oNcWLZmljtJGnPEzSFC/2QGRjELbp8xV6CxrNFhpp85pZX5lclFUWT6ZBFL5uwNU5PXGah1673UzW292/7toY5p8L4k0RROG7F2U7voLPTQSgV6x5G2hV5kcSeZqDKSriUQYGIHoXbHVOThxKCMae54HWp/HJP/d+Fa8SMABRJtDqnPYoh7cvF+Mpb1ul/YBXM1O7CN99IS7e5WAAopao+ubnCaSGQK15Hmh1DoMMvyQRrvbiZE58yYPIzpzGno+r8WUErl+ueWxmnY1i/nlpsxLPim9ZmIAoHWB1zmxMHDYxCu1KNSYe5Ip7wXT/fUUobpLFakq0yILIziLgjPd36FmMyuxCJq2/yMKi/PP8wlzuVrTJg8jOIuCa92MQkxihw+6kt4HW/vE5/DlIyaBLjNByv/QlK3rVQGRptGzWc1LxPUZso5gLpZk1p7Dfr9W1+lMg1xrIIrupwKpzuuKQXkbwdFXgJ/xsaM2FsXfZLuzXJCBxEFlaBFz2uuP1HeG4G/lAa1oGvUOwlnqVRlYCNAEjEM2Jql8xnKxJCVqPB5azmc4yNFQFzSMw951yIiUBewEiS4uAU0vergPGniNU/bc58SDdmH7uO//cRSAuW5l3Mgo/YASiZ0FV50wonMIyf6B1BiWNwB+pdpOl+DcZlVcgsrX1qeKt/q4FE1wtZNLBF1m8CPRKxbz+p0CuYZElvouq7xjChhh7x271dDIvHuQnkkseD4GlDqHJylYjL6PWAJG1N5LyXur5pAmT9Ip/eBtoLdx4ijztwL+T02I1LWFowRBEPVHW9nI7/DUMc+FtoHWbqLTV//dL/qM2iZSE5ROI7M0/T3uZ5W/APNfT3o7CN4sriktocXjXqzTyEqY8jEGUEFVz+KmWLWm0peSc14GWStlDeg1ePD9+m0hL2MowBtHbIKpzquLwGQbQW4GfbhRu8IB9cZj2dHBBjNCHMYjei6qf3/y9SYlDEkZrt6opnc2sv4pDQv3snilqMAfRza2oSirvz2dhvLXOflY8qBV7cJoXceoond0zyRaIrM4/v8ZPNEzuidJfgV+b2HFpvB6U38VPfSpkareiQ/pDNSd6xN7AIESToqqKx62mxaELW1y+bvptZl0qiov4qM7u5fYLewDQnhIdJmESokVRlcbjTsUhfQ6LzHscaMVbm7tA+0VO8bj0y265mRId0om3x9f425Ho0IZJiNqi7KPid7Y4LHPQPfomHtzeysOqLwGnj4uZmmiRb2z1nDFRDY5gFqKsqFpUDFQvwkI7EzXRK1tYwr8Od0rxtOiQak505uFUEQ1i6zALUVxUZdTSPrE72OljqSla5Ut9AMDT7oSmp8BsvLRzCBf9mGjwGUTW559raquoCdjrlbMC3690PpdLixa1TGEPD0jWRYP8AQxDtKm5OicnDhXYx1mBb5j0r8XjKzzstC46HMM0REspUdVRGuKvw3q9Yk1MkY2Xkst4VDfGlYbIooTWPOyWOORgP2cFfkhua/uFNn6qEBMdamswD1FZa7NmQhyKiIo3hS8pCUs6/jq5i2FsiRa/bcBARF1RlVrFQ2Zj4rCCCDlPzmVl5N5lKj0MqyR6dGEiollRtomHFKJ//61frsnIpBLlzqxa1EqPRZiJqKaxOufLWNQGP61UY0aM151Wv0f9kDtRRl+RylpKHHYQTbOFeFqC88fE9DqUrX2N/M8rooKoyg49D/uG6Dp3HFjWJJ0od67gxfOEaBGbhrGIPomy9WG/rGUQbRvFnGiUbVR68Or+d9EidgyDEWW1VedkTXnXZH4FvlMqN7fwEj6sPxEt6n1ECzH/PAFXO+KQWoP99FfgO2XjxeQ5/NmbEi1mVmA0opKoysHVhDh8wbhYfu+tAv82N7nYhn+b/5doMdUGkdmSoip1MNyCRAHj5Ifis2G6Wjy9gRbJumixPQ8iwy2n9FTnXIrTLMbLZU5hvJ5cgi6dmGjRnAWR8T6IqiJcvBaHBMbN6qT8XG6i+wo6FWKiRfUAROab0FOd0/z5RjxriPJb89CsInrEl2EBoq6W6pxn4tTmO1eXw+66vRU9MrAC0UtRtgE4tcQhh3E0X5cHZe6g3YToMQeiyOafXwBOVXF4i7G0JQ+on0K7pYboUYItiI40PD9cx8Shh7F0kBZXT/ag3XKccefxQy0N1TnTj57C4tx9exbaXeuKOy/AHkSXouwlHL5zKPLYO4wnr6Ddy23RIvYeNiFK+z6hu5oWhyTG1Cu3iN4zaMK4M1HVd3XOqTikl3j+Ioif3ow7E732XZ0zybWef+TFqQjtejOMO9PQmH9exoA8a1ce/rV4twzddn4TLf7Xhm2IdlM+q3P64pA64UQwwB/eXcadxxk1fVbnFMUhjrF1IQ5N6LbIuPNYozlRFcd/5R4utuNaQ4txZ62IFvxV57TF6RWPX/wtNgu9SqLHEexENC/Knj6Wn0uAM/e/xRl31owo76s6JyEOWxhb/YAPRWdEjzKsRdQQVZP4x6w4nWFsFcXhnnFnzYhe+KnOKfAU1r9yQT4dH1TZ7gwQrYiq2xv87Ys4FDG22kE+Hd81GXf2hph/TuIvhylx6GNsbQX4dDy/zbizR8T8c/HBxaM8xldCBtWgTZtxZ6K/FL1X52QensfzPn7ZvLjzGWxHdOq9OicrDqcYW4visAlNduqixS9tWI/o5lZUXeL/2BGH9Cr+wpavLDQ5Ztz5P4hyXld5JsShgbG1lgro6Xg6JlokTkAUBZNeq3PyD+/AM/h8DC1eiB6NZRBFwrSoygMAeuKQumFh2t/S54w7EwVhXZS1AeCzOHzF+PomgxpGxZ0/Y4wR889bAK7rTKk9fGp62qS4cxHjjJh/zq8Bn8VpHn/jKaw7+HbOuDORnjuW8XZJnJr8kqoz+HzCdmc3RH3RooSx1ROHCvy6+sC4sxuipZTosMd40z+ewqf5HOPO7ogSokGNu7f6zoI9ZdyZ6CFlXt71ZV33a7mNLOPORA85Fg02+dbiHyvwZVNX3PkZiKLnufiXxfj6Ve9ZsGSdcedHENXEO57Cmo3JoDnGnYkCNCm+HWNsFcQhCR9aoseXcxBFU0G8c4Z9eQorvcS4M1GAzsQznsI6TMugDLz7zHbnnyLKinc8heWwEOizOePORHHxJ3aFsZWRQakTeLTaYNyZaASTkyq/nfr/tditMu5MFGj+mR/pO7p+La7Y7kw0nOWU+NLmKSy/vxavgm53JmL+maewanp+LZ4+YdyZaDSv019jbF3qOQv2cYpxZ6KhdcWPDZ7C+sdHeNBn3JlIwaz4kOcprH/UGHcmMjT/zFNYz3T8WnQZdyYaXaVUkqew/PxaFGKMOxOpWRTPUhhfVf9nwUqiiAd+iD6KZzmMrecx38HnIuPOROrS4lUGY2taHLqjiDuzZI0ozmcR/6XZqTXGnUeB6DW/YSlbTsugOJSsfWXc2ROiHfEqzrqhvxVCaXeun2LMEB2muDfqewD1BgruGXf2jKgpXt3zFNafEqG0O1+CiHdSlCe+vCK2heHt6Yo7X2AMEXXEqxpPXPzpDEPrzTDuTOTDvM9SQuYvc6OPO3+4wngiyotXU88ZDlDqqukw7kzkU4a1nf5CgJsYUkH0aKxiXBG1mGRT0vQafK6w3ZnItxXxIXOAMTPvNaJUFj3KIGL+2aN8cty/kB4z7jxCRFXxJVeZxRj5KoPSyxjCUkP0WMR4IyqKX7niHsbEdUwGNTCENbY7a0KUFA3ezSXH8xTWNH7ueUK0qLPdmeggJVpkMwsHY3cKK3aFn7r/XVvcmYj+EF1S1co8omwpLYOq+Kl1je3ORDQhOuWKPUTWe3HYYtyZKOS5jIaB1tKYnMJaH23cmYguRL9vjcIJoievGnze+S2Udmci5p/VB1rPEC2b4lAcddyZiL5LUGrRGmiVxWEFj1qMiRbxcxCReixXXW1iJ7KnsPKj+XXdxz+IaE+ClW4UbiI57JvAY0psdyayZojlHGi1o3cKK4lHTDDuTBSICRmF5utLWC0hg9JLeNBShnFnomD0ZETy+51V2Opeofx6Oc64M1FQcjIy6czCDay0KA4dPOQ6EVi7MxG1ZJRuE1YOtOIyKHWCB9z934w7EwVn7ZuMWK2ctP2qRRwPuGDcmShQRRm9vF2Rw444tIKOO7fhhogOshKGdLzw3No+tHnGnYlCUpGQxKpb61aewmoGHHe+AhF5e1HIgVZyuIXO7gjizkSUlFDlJ09XYbI5cfioK+6s3u5MRPsSslS89dKe+FINLlqjaXcmot2ahC9R+mRJGOBzgHHnMn6CiPoxMUGu2Id53g4RfJ5j3JnIwjeFGhrDdg1/J5F123vQ4wWIaAgZMUY6XpiFOdo/DT6f64o7d0FEw1hNiAFMrMCv/Cz4fFAVLeo/QETDudoWs+TKm0aewkodYsBsU7Sob4KIhvXyF9HP/gr82djjwef53xl3JgrB/BMxTzpeeIMwFcShgP860xV3fgoiUnHXFCPlih/NOYUls/iPyyzjzkQh2Y2LoWrlPkKxlpJBCfzHTp1xZ6LwlMRY3zILJxi5rjhU8K9jxp2JQtWZEXOl4osvw95Pa+Mf04w7E4Vs/qsY7UNpDyOUlUE5/XHnSXhGRNNZMVutvIMR2Xk4nFxk3JnIBDfluhgum+nuhtIz29XdQLsFIvLnfiItpkvFW/Ojb/J/iT8Z1O5MRAetppivWbpEkFbEIa253bkLLYjoaakp5stPJEdYgZbV2+6chDZENFtopMV46UbhekT1HKlVAPPbZrY7E9FaN5MV48W+tp5Bu3Vxki6wOCNaZDegHxHtlGtivmZxJfg7rLFqXhh3JjJcu5IQ8+X3O6sBnsL6F+PORBxomVWBfxeTwDRnQUTBOuzsZ8V8iUo7gFNY/7Il7kxEyeEHWpZX4MclKPFlDCIiDrSW4cNhWpzY7kxkpTeFeEqMl/Iz0OrIcBh3JrLAmiUDrdKZWVWNJWhGRBxoZWWQ/e3ORLRRsmGglc2oDrR2JAixBYSKiNovqikbIoeLdxjepAyPcWciywZambQVA609DOeuLsOzLe5MREunE3kZgh0V+EUZwLgzEQdaxlbg78VEu6kLEJFZLlp2bGi1XuERTdFu28S4MxHt2jHQyhUfHGhlxijuTETLPybz8i+7KvDP46Ld1zUQkcE2ijkrB1qbtXGMOxPR00oiZkXk8A3+1jsK4L948v9t7x6QJAmgKIr+sluoyhzbthQYYQuz/2UMAm37d56zjBdx40UGwJfrCxkGrcXJ8EKrdX3SlztDtb1tXRnUMpE7g0ErD7kzGLRm67Uk5M7Al2vdTq1S5l9HZmDQ6tWykDsDZ6syaF26FfkBRQUGLbkzeGZN4+HVAE6P57kGLbkzGLTmaqdR81mkABi05M5g0DoJ5M7A8wTPrKlyZ8Azq9wZlhm0mrXkrgdQGb+GjXYtrXoZQKXcSTZoyZ3BoCV3Bjyzyp2BQ/A906B1vgioOoNWt5MpdwYMWnJnwKAldwYOwbvxyR20Fm4EwCqPy24nTe4M0LoykDsDBi25M3AI7o4b9Sy5M8CHa92O3BkwaMmdgUNwb9RPkzsD3J2ZrWfJnQG+XOt2suTOAG9bV3ppcmeAs6N+mtwZ4NPyoCV3Bjyzyp2BA/R8edDKkDsDBq25NLkzQLE8aKXInQGDVpbcGeB5+bSXJncGeDQZHFA+2Arg8Bm0mrV9W/wUAEfh6ni2XduPyY0AOCp39jFozbUiA8Aza310MxIADFr1bhEAx6TYxaBVf1EEwHG6s7Nn1t70uwA4dje2O7JoN67dCODEkEn/rm2st1A+DoAT5d240amt0lnsDt8EwIlUtC6Op/4bD89cuBwAAAAAAAAAAAAAAAAAAAAAAAAAAOzLX8yIfv7XHfiLAAAAAElFTkSuQmCC;" vertex="1" parent="1">
          <mxGeometry x="594" y="787" width="106.29" height="55.8" as="geometry" />
        </mxCell>
        <mxCell id="RpmGVlQQaQAQjmuWH_eU-20" value="" style="shape=image;verticalLabelPosition=bottom;labelBackgroundColor=default;verticalAlign=top;aspect=fixed;imageAspect=0;image=data:image/png,iVBORw0KGgoAAAANSUhEUgAAAgAAAAIACAYAAAD0eNT6AAAAAXNSR0IArs4c6QAAIABJREFUeAHsvWeUHFeWJsYxOzt7ZjRanZV0tDqzu5rVztHurKSRZqQfo53ZIbIA0HuCHvSezSbZ7KFrGrC76YDKKrgC4VHwHih474ECUHAFbwveEI6+CVPx4hNvJIJIZKWJyHjhvzqnTmZGRob54r77fe++++677jr+EYECBK5vwJ9mavHvOmfxf9fUo3NNFvd3qsOLmTq8m6lFbU0dBmWyGJfJYnqnWizKZNGSyWJ7Jou2TBbHM1l8eeX/+0wWqOL/67xj2Mc6Yx2/FnsyWWzMZLHmyrlnZbKYVJPFyEwWAzJ1+CSTxZuZOjyfqcWDnXrhls61+PuaXvg/r/8Mf35TX/zzgtvlRyJABIgAESACyUZAyK9LT/xlTS261NThsZpavFOTRZ9MHSZ3ymJVJosDmSx+qIKwqyH5MH/zbSaL/ZlaNGdqMbMmi2FXhMOrmSy6darHf+ncG/+2Ww/8UbItgndHBIgAESACiUHgH+rxrzv3wvWZLJ6pyeLjTBZjpbf84+cTmSzMFJC7TmEheJ3KZLFJhEKnLPrXZPGLTB3u6pTFX9/UF3+WGMPhjRABIkAEiED0EZCeqYS0rRB3LT7M1GL8lbC49Gx1EiCPVRnPszIE0imLCZla/EaeSaYef9O1F/4k+pbEKyQCRIAIEIHIIiBj8TVZ3Nopi7evjLvLWPtlEn3khY5EDw5nslggwyw1WTxXU4+/k/yKyBobL4wIEAEiQATCQeD6evwvnbK450rofkGmFudI9JEnerdREmXlH9RhsiRVdsridhF54Vgcz0oEiAARIAKBIyDjx5k6dM1k0aMmi/kk+8QRvVthILMc5vwo+D7olMXN19fivw/cKHlCIkAEiAAR0I9A1174i5osHqmpRcOPSWRbM1kY7N2nnvTLioROWRyU3IKaWrwiUzK7TcIf6LdMHpEIEAEiQAS0IiDZ+DKlTObMiyMn2ZPsNdjAd1dqH/SQ+gzX98AfazVaHowIEAEiQATcI9C1F/7HTnV4KJPFkCvz6cv27jSQAY9fOUM/6RhdyNRhSaYWb3Wqxd/26IHfd2+5/AURIAJEgAi4QkDCsVIwRqZ+1WSxIZOFJHclnXB4f1F+xpI0WouJmVo8LQmlrgyaOxMBIkAEiEBpBKSXn6nDE5aTzZW7JSFGmRB5bTsyWXwqQpX5A6XbNb8hAkSACBRFoFNv/G81tXjjSjU99vJJqnEVfWc61aKxphb3/pfP8N8UNXZuJAJEgAikGgHg96Rgi/ScMlnsZlifwxoJtIELNVk0Sc4KxUCqvR1vnggQAUGgUx3+s8zJZwIfCT+BhF8uanEhk8WsH2eqPMq1DegLiQARSA0C19fh/6mpRc8rJVvLOUl+x9B/GmzgB2tdiVrcxJyB1LhB3igRSA8CmZ74X9nTZy8/Zb181+KlJouTmSx6Xd8L/3t6vAPvlAgQgcQh8Pef4L+TxVgyWazmkrjOyL9zHXBnA/DIUOD50SZen2SiR5OJXvNMfL5MYcQqhbHNCk2bFOa2KizeodC8T2HDAYVthw3rf+dRA20nr/5/cd7AkdNXP+d/l/9+19Hc7+3jyOvmgwbW7lNYuTt3rvlbFWZsUpjakrsOuZ4BSxWy8038dpaJt6eaeHW8iedGmeg+DLh7ANCl3tm9Uxx0wGlTpg7PM18gca6RN0QEkomAhDAzdbgtI4uuZHGRTv2qU7+tP/Bko4k3Jpv4bK6JgcsUJq1XEFJdv19hz3EDp84ZEMJO2r8IjS2HDEtIiHCZuF5h8DKFnnNNvD3FtMROt4FAl95X8aLt/ISFLDc9QJaiTqbX4F0RASIQawSuLJ/760wWx9PquKWn+9Bg4LWJuR776DUK81oVNrYpHPoieaTul0jZd8KwBNHsVoXGVQo955l4Y5KJx0eYuKXvT6ToOryeELtcI2tbdOuBP4q1w+DFEwEiEG8E/nYQ/lmnWtzdKYt5aarId2Nv4KlGEx80mRi6IheKl97t8bMkeb9EQf5xJZqweo/CpBaFPotMvDU1Jw5uSFf04EQmizevr8e/jLcX4dUTASIQKwRaDuDf/HYOFtTU4YuE9KpK9iYlLP3mZNMa556xWaH1kIGTCQ3T55NsHN/L8Mn2I4YVdZHhhXenm3hsuImuyc5B+C5Th94sQRwrF8qLJQLxQwDAv996HKMeGQYzicR/3yBY49GDliks2Kaw/wR79HEUAoXXfOKMgZb9ClNalJVM+cIYEzf3SdxQQnsmi7Gd6/Gf4udZeMVEgAhEFgEA/xnAxONfQUmGehLIv2vvXJa9ZK/P3Kyw+zjJvpA4k/xZojiSmyHDCJKQ+czIxEQKlNQUqKnFX0XWofDCiAARiD4CAP4CwCAAhqGAZ0fFl/wleUym1MmY/ao9CsfPkPCTTPDV3NvRMwaW7VSQCJDYiszaiLHYVZ2ymCCVNqPvaXiFRIAIRAYBAH8OYIQQP678LdwZL2coId7XJpgYslxZCWMnmKCXuKmF1ZC8m9+cOm9Y9RUaVyv80yQTt8ZzBoJEBIZf/xn+PDIOhhdCBIhA9BAA8CcA3gTwnU389uvPx0dbANTU5TLzJSt8+U7FjPwE1hJwQ95+7CvDBlJ0adBShZfGmJBhpBhFCH6oyeLjzp/iv42e5+EVEQEiEBoCAH4fwNMATtmEn/964TIimUl9VwOsqXiS3CVzx/1w+jwmcS1lA1LbYdoGhXenmbhnQGzEwNlMLV6+vgf+MDSHwxMTASIQDQQA/DWANfmEX/j+xFfRcW6PjQD6LTGtcfykVs0rRTjcHl0xImJgYauB2rkKjw83URP1RZzqsLVzLf4+Gl6IV0EEiECgCFwJ9/cAcLmQ8As/H/0yPAEgtfFfmQCMW29i9wnFXj5D+5G2gaOnDew8bGDJNgN9Fio8O9KE2HBEhwpkOu+If+iL/yFQ58OTEQEiEB4CALoCOFJI9KU+X2pHoE5MxvNfmwg0bQFOfWXi/Dckfvb+o9v7L/ZspPbAriMGNuw1sGKHgf6LFJ5uNCG2HUEx8GWnWjx7HfB74XklnpkIEAFfEQDwZ1em9ZmlyL7U9hfH+uu4xDG+OhGYvgU49z1w6TKJvxixcFvMhMA5A3uO5YRAy14Di1oNZOcpdB9qRk4IdKrFIlnTw1cnxIMTASIQPAIAOgM4WorgK22fudUfAfD0KGDiBuDslXkHF0n8kQ5xU4BUJ0BkGqpEBFr2GRAhIP+zNip8MN3E7f38aVtVRhq+yWTxDKMBwftonpEIaEcAwB8CkLF+VYnky33fbgBPNOpxVN0GAQNXAG1nrp7xcruJL79lqJ8EWx3BxgU3KUC14/BVESBCYO1uA8OWK7wwOjpDBDVZzP+Hevxr7Q6JByQCRCAYBH4s5vPvKmX4X6Xgyu/2n0bV1dFkpbbfzAY2HgZU3gCEVBj85nsSfyUCO3LawO5jBjYfzK2Et2i7woxNCuPXKgxbqdB/sWktm/vhDBNvT839SyGkn4/L/b801rRWMJRVDOX/4SHAA4Nz/w8OydVQsL8TIrJ/J6+y2p4cU1Y//GSOaa3AJwWWxjYrTN+osGCrwordyiqas/OogYOnkk3ilZ6Vk+8lWXDrwWuFgIiBBa0GejRFpujQ6ZpadAnGW/EsRIAIaEMAwN0AvqlM6+722HkSkB680/CiRA2mbAK+uXDteUwT+O4HhdMpz2qXpW2lJv2KXTlCb1ylUL8wR7ZCvt2HVS+6nD4jP/br0hvW3Hi5frkPEQ9yX3J/IlzkfrcdNiDJck4IM6n7iFjatL+jEFizy8CAxQqPDAk9V0Blsvgt6wZoc808EBHwDwEAfwDgUwB5/exrydfrp69/APosBm4qsaLarf2AnvOBHSeKn0nG+c9+lQ7HLwQnRLd4R67HLCQovWnpbd8Yr0pyjkWfW0EhNfcFD8FF8JHIggiEtpREEqTk8N5j1+YH2HkC8jqhWeH5UaHXFljJIQH//DaPTAQ8IwDgXwFYWJx29W/97iKwej8weh0weCUwoQVY2wbItMFifxLu/yqh4/x7jhtYuF1Ziw39eqYJCbnfOxDRLwgT8YI1t/eHtVLfu9NNNCwxMWOzQuthA0ksAiX5AduKDAvYYqBpg7LWtwixrsDxTrX4W8+OigcgAkRALwKyZO/xr3BszQFg9jZg2R5g7xeAhNqj8PfDRROnv4x/r//42VzIXsLYQkiyalyMysD61ot32+v3ur8MMcjwggwtyLCCRFiSUg56/3EDG/NmC9gCwH6dv8XAm5NCKzD0u5pa3KvXe/FoRIAIVI3Ap/Px/nOjYRRzqt0GAmPWAVLPP4w/6fXHNbtfFn9Zt19h9BqF95pMPDIU6FLvPP+h2PPgNn/xE3v/5STTWtJXFoWSJX7jmD9gDR2ViQaIGJi72cDrE0KZOWDW1OF9ThWs2mXzh0TAOwJ/V4d/8WQjNjghFektHTkfrASIW6//8GnDGnuWDPcErAefmN6+E/sutY8INrH9j2abmNSisP1wvATBgRNXiwjZEYDC19kbDbw8NvhkwZo6DOo2CX/g3ZPxCESACLhCQLJyHx+BtlKOr9j2OxsAWdjH7z8Zdvj6u+hP7ZMM/KaNypra9viIUHpSJOkQchDuGwS8N920IjuSoBn1CIFMGdx8oONMgUIhMGWdwhPDgxUCnbKY8LeD8M9cOS/uTASIQPUIyPK9H81BSzGSr7Tt2VHXzsPXLQakoM/Zr6PpVCVxbO0+Benhy9S0rgznU4Bkc7UQJEIgeR2yql8UBYHMFLAqCV6pIlhI/vbn9XsMDFyicFewyxPPkWhk9R6NvyQCRMARAjLN7+h5TCg1Ba+SAJDv5+/QTfu54124FL1EP0kME8cuDp7Jev6OvzuxvajvIwWrRByKSBSxKMQbJUFgDQmUSRC0hcCqnQbenxZgVKsOS67vgT925MS4ExEgAu4RAPBHAGZO2ujNkcvyurr/vvtddEL+Uo1u6AplzS2P/LrsIYTAo07CUbq++wcB2fkmmvdFx76PfGFgY5HiQTb557/O2KDweFDDArWYyeEA936dvyACFREA8Hs/lvYdIcT95lRvAkDmEeuaFSDj/VHI8pfxfEnykt4bSd+bfUSJgKN0LZI70HOuac0MCTsqIDUDtrRVzgsQMSDDArICYddgCk+N7dEDv1/RoXEHIkAEnCPwowD40O6161iU59iX9tGqf1UKOPd1eD0jKaMqpC8Z+xzPJ+kHKRZkZoHUgWg9FN4QgUxTLbaeQH4EIP/9nE0GHg1mGeIBzj0b9yQCRKAsAj8u4/tkPk0/Oty7sz94Nv+I7t/L/P4wkv0kkW/BNoW3p5hB9WiYKMdhipI2INGm50ebmLg+nJoDkqOw7ZCzSICIgXV7DHw8y//cgE5Z/LysU+OXRIAIVEYAwPUArinj89ok7wLg24LFedxIgHbDxJmAa/lLqd1ByxTuH+z93oPsKfJc6XlesgaGrJbYsj/YqJiI4sIlhvN7/sXey/oCd/b39dkYmVrcVNnDcQ8iQASKIgDgXwI4UkjOw1d7a7hPjSw8ovPPhoFAyX/9/lwGv2Rnk0yJQVxsQJZUltknEqYPIl9AIgFuRcDS7QaeG+Vr3YDz19fhPxR1btxIBIhAeQQAFM3Xl/B9TV31ZDB2nXPCz9/TCvsH0PMXZzavVeHlcb46JwoKhvZ9t4GHh8AqOHQsiJLE5wxsdzEcIJEBSRB8b5p/7aymFltu6ot/Xt7T8VsiQASuQaBw3D+fiOX9R3OrEwCyQt0P1wwoFB65+GdJ+PN7CV8h/tmtCk+O8M8hxaUHWew6paztrX1N3NVg4oFBCt2HKDw1wsCLow28MrYd/zShHb+achnvXvn/cPpl/KYp9//bGZfRc/aln/7r5l1C77z//O8+nnnpp9/J7+3jvTf1Mt6Y2I5Xx7XjpdEGnhlh4LFhCg8OVrhngInb+nGJ42LPTbbd8zmsRYv8XptA2pCbxEB7eKD/IoUuHjoVpe5btnfK4rNrnBs/EAEiUBoBAP8ewHfFqTi3Vcbwu7tMBhQC2dxhQKHcWXLfyVS/89/4O64pxP9EColfpmQKcQqhPzFMWcT6y4nt+GDaZXw68xL6LbiIoUsuYtSKCxizMj7/w5ZeRP+FF1E7+xJEiLw5qR0vj2nH0yMMPDhIxp/NVC6sdPcAYPhKBZnG59fQwMmzBrY4KB1sk7/9Ona1gpcCY2VEgOpUh38s7fH4DREgAj8hAGBaZVoGTn0NPNnoLBJwS19g1X4nR+24j591/VfvUXhhTLJ7/Df1MXH/QGX1mF+f0G4RYv28Sxiy5GKsSN0PATJ82QX0nX8REqGQ6MLzoww8PFjh1n7JtgkpMDR1g3+VBkVglFtS2Cb9wtep6xXEV5Qh82q/O3xTX/zZT06Ob4gAEeiIwJWs/44sXGLL7y4Bg1eirHJ/twk4WuW8/+9/MH3pqUi1vrenJqtoz+39TasX/4tx7egx7TLq5l7CsGUk+WqFQ+Pya8XBM42GNdQgURMfCCqUYz7VaForUPoRDTh0yvn0wHwhIKsL+jRDoFdHj8ctRIAIWAjIIj8ANpXg+rKbRQgs2wsMXQX0WgA0LANmtAKnvin7s7JfysI+uh3TibOGNRbqUy8jECcuBHT3ANMaf5cevYyZS5i+WqLj79wNbchwiAyNiMh6eUxuSOGGGC/sJLUEPmgyIetW6G5vu49WLwJu66ddaF2+vhb/ke6eCBCBIghUSvwry9aav5Rxf91Jfyt3Kzw6LH6hXQlHS7KdJNhJ4tzImI3Hp0JgrLiAAQtzouCFUYaVKBm3ktC39YdVUEirCDhnoNVhyeD8KIC8n7Zef05Ap1osKuL6uIkIpBsBAH8I4LBmHq/6cDrH/Y+fNayyqXEJ3d7R38SzIw0r+116mqNjlHyXCrJ3+DxGLLtgzXqQWQuSeBgX+3ttgondx/RFA2QK4oYKywgXkr/9WRIDJXlY65ALCwSlm+x49x0RANCtarbW/MNLGkP/Gw5EP7v/lj4mnm008JsZlxnKd0iucRQaklMg0x1fHttuRQi0kprmmgp3NACztuibebP3WHVDASIE+i1UWgVATRZrO3pAbiECKUYAwFrNPF7V4UzIAj96eh+S5ezTtCJvDqkOuG+gsuazZ+dcwhiG9FOZvzBw0UUryiPDO1GtNPnRbBMSQfM6LCD1ATY7XELY7v3nv741We/QHacFppjseOvXIgDg/62KrX340fcXvCf+nThjWDXRo9TD6lwPK0NfEseGLGXCXhx78H5es0QHPpl1CZI/INM2o2S7Mk1293HvIuBwlbMCRAg079a+kuCCa70gPxGBlCIAYLwPXO76kJL4d+ZLb47m0BcGXh0fEQdaB2vs953JJH0/yTNpx5acDxkqkDyQqEQGpJLgOg2LDFVTJdCOBMj0wK4a1+ToXI//lFKXz9smAjkEAPwpgB9cs7UPP/Da+991zMBjw8MnfwnvvzWpHYMXs6efNHIO+n4kMvBh02Wr5HHYSYQyLW/ZTm95AV6iACIEaufqywfoVIePyANEINUIALjPBy53fUir9+9hoZ9thw10G6g5W9hFYlXXelg18aWqXNAkwfO5m8cfV7wGL7mIX05oD7VKofTA57Z6EwHVTgsUASCLBz08RI/I75TF0R498PupJgDefLoRADDJNVv78IMLl6of+9911MD9g8Mh/zsbTKuErNSejyux8LpjJiBWXLCKPz0yRCGMWgNdesNaLbPaxMADJ6qfESAiQKYGasuR6IVMuhmAd59aBAD8MYBvfeBz14f88tvqehUS9n8gBPLvPlRZ47Scox8z8kzYNMOGhRfx4igj8BoDN/YGllY5HHDqnIEN+7yJgOdG6YkC1GTRJ7UEwBtPNwI/lv29zTVT+/ADQ6GqaUaytOkzI/U4Aqc9Cul11c+9xN5+wog07lGQQYsvWmWJtRfNKTMMJuW0N7ZVJ9x3HvYmACY2a4sCbE83C/DuU4sAgF4+8LnrQ/6uiql/Mq/43enBkT+Jnz39OIiEoIXAw0OAtpPuZ+4c9DAl0J4V0H2olvZvXt8T/1NqSYA3nl4EAKzMZ2tZsW98C/DpPOCtacAn84Ax64CDZ/P30v/+qyrC/8NWausBlB1PlIz+unns8ceB/HiNV0WaCIGnG42ytu006lVpv9cnmRBB7iYn4KSGYYCGRZp8QC0eTC8L8M5TicCV2v/fC52f/Bp4b0b5JLo3pwJHzusnf6n8d9rl3P9Nbf7Pj5ZiLDJ/n2P8V0mFBBs/LGrnXLKWMK5E4l6/H9vsfijAS00AiQIs36En96GmFj1TSQK86fQiAOD/EjpvPQZI3W8nDuDWfsC6g3pFgNslf6Us6ZMjtIT+it9zHfD8KANDmdXPPIeE5DnI8sVvTmr3tajQzX0AmYrrJgqwx8P6APYwwNONGnxBLWamlwl456lE4MeO/7OHzgFC6k7I395HauvvOaVPBPxw0d30v8ZVmsJ+RZKbZNnd2tkM97OnH7+evpNnJsMCDwzyr/28McldW5bcAZvIq33tpaMwUB32pZIEeNPpRUABnz432h352yLg8RGAZO7r+Pvud85Dh22nDNzev7prtq+91Ksk+Q1Zwrn8ToiE+8RXIEg04PUJ7cjU+dOOluxw3p6PnvYuADTVBGjv1gN/lF424J2nDoEZW7C8FBk62b5gpw76B776zrnD6LNQQ7ivoOcv5VXfmNjOsf6EhLspTpyJk09nXcLNffW3J5mW63QYQBIBq+35279btk1PoiNnAqSOAtN9w29Nw2knRF9qn7en6REATgsAyZz/2zT3/oX8P55xmWPdJP9U2oAsR3xnf/0iYMVu56J+w17vIkDHkt9deuIv080IvPtUIXD/YFwuRe5OtkvioI6/8984cxaSZezkupzuI7X7ZcU19hid9RiJUzJxkmGvewboFQFSn8NpFGCjx4qAEgm4a4CG4Yx6/E2qCIA3m24EbugN5ZQsS+13sd27BDj7tbPM4ad0ZPteCf/LFL96zu2n+GHkw7KBIUsvotvn+gS2rBVwwGFxoE37vUcAHhrsXcB0qsM/ppsRePepQqAUqbvZ/u0FDQLAwQqAu48Z2hY9kbB/rzns+bNHn8wefbXPVaa9ysJWbtp/uX2ntDiL7G0+4F0A6KgIWFOPzqkiAN5suhEo13idfheUANAZ/v/VFI75V0sS/F2yRUOf+Ze0LSr0zjRnwwAUAOnmId59SAg4Jfly+wUlAN6eqqdn8ugwxWx/hr059FHGBqRgULk27/Q7ma7rJA+AAiAkAuBp042A04Zcbr+gBIAsOFLuOpx8J6H/AQs5z5+9+GT34r0+X6kTcJemoQBZqruSCKAASDcP8e5DQsAJaVbaJwgBINP/hLwrXUul758babDnV6bn55U4+PvkCIse0y57bm/SHhdsrZwHQAEQEgHwtOlGoBJhOvk+CAEg6407uZZK+2SZ+EcBRAHkyAZGLr+AG3t7F92NqykA0s0yvPvIIlCJMJ18H4QAWLnbuwC4oTcgoU32UokBbcCZDTw2zHu7G7CUAiCyBMALSzcCTgi+0j5BCAAJI1a6jkrf3zdQkfzZ+6UNuLCBV8d5TwasnV95JgCHANLNQ7z7kBCoRJpOvg9CAMza4l0APDSYAoA9X2c9X+KUw+mXsmBQwboZbj9/MocCICT3ztMSgfIIuG3MxfYPQgAs3uFdAEhWMx07CZA24NwGXhrtfZGd3osoAMp7YX5LBEJCoBihu90WhABo3utdANRkgeHLnDs/EgWxSrsN3D/Qe7sbspw5ACG5d56WCJRHwC3ZF9s/CAGw/bD3nohc+4fTWQEw7aTG+3cm7AYtvqil9Pb4tRQA5b0wvyUCISFQjNDdbgtCAJz6cc3wm/t4n5L0ABMBOQziIgkuzWLhNQ0JgOJLVu2hAAjJvfO0RKA8Am7Jvtj+QQgAqST27Cg9pYA/nsEoQJqJjfdeOQIweMlFyFLZxdq7m20y7HboC1YCLO+F+S0RCAkBN4251L5BCQDJJi51DW6239bPxLClLAdMIqxMhGnF6HEN8/+lTUr57kplgOV7TgMMiQB42nQj4IY4S+0blACY1+o9Icm+hyeHG1wQiKFwDocUsYG3J+spASxtzUkNAAqAdHMQ7z5EBGxC9PIalACQ9QB0lCa17/XV8e0kgCIEkNZeL+/7Aj6bpW8pYGlnS3ZUHv+nAAiRAHjqdCNgk6GX16AEgDiKtzQtCWzf7y8oAiiCKIIsG/hk5iUt4/5227p7AHD8bOXxfwqAdHMQ7z5EBOzG6uU1SAGwbKe+YQD7nqXYyRiuEUAhkGIh8NFMvT1/aVsNSyoXABLypwAIkQB46nQjYJOgl9cgBYA4i8eG60kGzL/n50cZGLWcSWEMg6fPBt6felnLfP/89iQzCHYdc9b7pwBINwfx7kNEIL/RVvs+aAEwbYP+KIDcuywWNHARZwdQBKRDBDQuv4DnRuopsFXoO34zy3nvnwIgRALgqdONQGHDreZz0ALg1I9hw+dH648CyL3LksG/bmKdAIqAZIuAhoUXcc8Af9qQFOzafdx5758CIN0cxLsPEYFqCL/wN0ELAHEYy3cp7WHL/Pt6YZSBEVw3gHkBScsLWHEBv5pyWWuyX367kfcDljrL/Jd2bP+zDkCIJMBTpxeBwsZbzecwBIA4jo9n+9ODsTG4pa+JHtMus15A0kgwpffTZ/4lPDDIn+Ezu810HwYcO3OV2G2Cr/RKAZBeDuKdh4iA3XC9vIYlAI6cNvDQEO/lSivd+0ODFfotYG4AhwXiOSwgVS9fHmP4GjGTNtSlN7B+v/vev4gDCoAQSYCnTi8ClcjPyfdhCQBxHLLQSNfe/ouAznWwnKjUSCcRxpMI0/bcJMlPqvrd1NvfSJntI4avrI78KQDSyz+885ARsBuvl9cwBYA4j0kt/oY187HpXA+8ONrA4MUUAmkj1Ljcr0xnfXcSo2aoAAAgAElEQVTKZdzaLxjil/bRo8ld1r+02/x/RgBCJgKePp0I5JNbte/DFgDiSOoWBOfsBCeZ5/yzMRQCcSHFNFxnrsffjlv7BtsWXhht4ngV4/4UAOnkHN51hBColvTzfxcFAXDqnIEPmoJ1fIJBl3pYc6l7z7vEoYGUJteFLS4kGiUlrW/pE7z9PzHCRNvJa3vz+cTu9D0jABEiBV5KehDIJ/Jq30dBAIijOXnOwHshiAAbNykkJKFX6YmFTQo8f/KfgYjOZ0cakPwU2waDfJWlfve4nO9fShBQAKSHc3inEUJAh8OIigAQ53LibLgiQPCUntir49oxgFUFKYQ0R0Uko1/m8d/tUxEfp/7g8RGm62I/pchftlMARIgUeCnpQcBpgy+3X5QEgDgTqRQoC5GUu+agvhNH/cbEdiYNaibCNEU4JKL08cxLeGqEAUlCDcp2S53n5XEmDp7yHvbPFwQUAOnhHN5phBAo1cjdbI+aALAdy+g1yhqjd3Mvfu1bkwUeHqLw/rTLkF5cmgiM9+p+OEIy+YX0n240fK3a59beJc/mhMeEP7t95r9SAESIFHgp6UHArQMotn9UBYA4GFk++K6G8HtN+bhJL677UGWFcgcspBigQMgJhGHLLuLDpst4ptHATSEk9OXbaOF7mfXSuLr6ef75ZF/sPQVAejiHdxohBAobejWfoywAxNnsPmZApipVc29B/OauBhMvj21Hz9mXuCRxioYKRq+8ACnP+08T2q0SvRIlCsLe3J7j3s+Blbv9I39poxQAESIFXkp6EHDrDIrtH3UBIA5GkgNlkRLpyRS7h6hsu6EeeHy4YVVwE3IQkmAPOTkYfL7oorW+xPOjjMDn61dj429PNbH/hN7xfkYA0sMvvNOII1CNUyj8TRwEgO10WvYryNzlwnuI6mcRBA8OUtasAokQcIphjMTAigvWGhIyNVSm690RYGU+r/Z8az9gbLO/vX67TcorIwARJwpeXjIR8Ooo5PdxEgDibGS1MpklEMQaAjrwzT+G5A+IIHhlbDs+nH7ZIphRK2JEigmOaAxcdBEfzbyE18e347GhCjcGsEZFvm3oev/ONL1T/PKJvtR7CoBk8gvvKuII6HAacRMAthPaesjAaxPiEw0o9aykEIxMN5Re5juTLyM75xJGsBiRb0MnIrhkdcjfNF3G6xPa8dgwhZsDLr9byha8bH9wCLBgW3C9frsdyisFQMSJgpeXTAS8OAz7t3EVALYDmrFZBbKssI1XIK91wJ0NptUTlTULpHjMp7MuQcagGTFwFjGRlR9r51zC+1MvW0MwT44w0O3z6Ewt1WVHt/UDhi5XVmTMbhNBv1IAJJNfeFcRR0CHE4m7ABBnd/ysAakbcGfEpgzqeD6Fx5BhBEscDFN4eUy7FTWQ3mx27iVIGHtkCqIHIoKkhr6U05X59iKQXhvXbhXbEZKX3ItC3JL2uUtvoHa+iQMaavl7FQwUABEnCl5eMhHQ4dSSIABsB3boCwODlivckQIhUO7Zyxry9www0X2IwrONBl4dnxMKkncghCk9477zL+LzxRcjUdhoxLILGLT4ohWar5t7CZ/OvIRfN13Gu1MvW2PysoSzhOqF3K3V8kKqn18O86C+E+L/aLaJ7Uf8z+6321WlVwqAZPIL7yriCOhwOkkSALajOnzawNAV6YgI6LABOcYNvYHb+uWEgyQqPjIk9//oUGX1rKWUrfw/P9KAELL8vzzGsMLrsnaC1EKwt8vrU8Nz+8tvhLzt4z00JEfkd/Q3cwVzUkzmbp6dJL1+MsfEzqPRIX67vVEARJwoeHnJRMCNAym1bxIFgO2YZJ3zSS0Kjw6Lf7JgqefH7ckO98uUvp5zTeyKIPHb7YwCIJn8wruKOAI6nH+SBYDtoGSBoQVbFV4dbyKqFdt0PEseIzliQESrzOU/6kPtfrtd6HqlAIg4UfDykomADoefBgGQ7+hk+mD9QjMVCYM67IPHCE5USJhfqvct3qGsVTHz7TbK7ykAkskvvKuII6DDOadNANiOVFZFa9qk8MtJJiSxSgeWPAZxrMYGnhlpYsQqFYmMfrt9uHmlAIg4UfDykolANc6m8DdpFQD5Dq7tVC5X4PVJZuTXGyh8fvwcT9HRfRisipZbDkUvqS+/bTh5TwGQTH7hXUUcAR3OnwLgWgcs86olcfDn45gvoMO+eIyrAuW+QbmEvnX7w6nY54TMq9mHAiDiRMHLSyYCOpwrBcC1AiDfAe44kptO+PI4DhPosLW0HUMSTmXxKsk5ad6bLNLPbycUAMnkF95VxBHQ4VApAEoLgHwnJ9nYkpwlzvyRoVd7dTqeAY+RHDxv7gPIUJJk8Ed56l6+bXt9TwEQcaLg5SUTAR3EQQHgTAAUOslthw3LyUvW9i19k0NgOmwqTceoqQOeasz18kUgSlnqQltJ+mcKgGTyC+8q4gjocLQUAN4dtkQHlu9UGLRMWb2/2/tTEOiwzSgeQ5YJfmFMjvDntMY3c1+nKKEAiDhR8PKSiYAOB0kB4F0AFHOmEiGQZEKp4iY9ROkp6nhePEawON49IBfSH7JcYcWucFfdK2ZnUdhGAZBMfuFdRRwBHWRAAeCPACh0zDK7YF6rwoClCm9NNa0ljCkKgiXzSu3lns+B1yaYqFtoYtoGFakFdwrtKUqfKQAiThS8vGQiUMmhOfmeAiAYAVDMYUsxoo1tyooUSHKhJI+lYUljJ3bp5z5d6wGZh/9Bkwnp2c9tVdhzPDw7KGYbcdpGAZBMfuFdRRwBHU6SAiB6jl9WfFu4XWH0GoXsfBNvTDbx2HBZPS9aPWYd9ufXMYTkHxqc69HLKnrDVyrMblXYfNDAiRQm6vkpKCgAIk4UvLxkIqDDeVIARE8AlHPW0lNdsTsXNei/2MT7TSZeGpubmnhbv/QIBEnGe3AI8MJo0xpSqVuQm3onmfjbD5Pky9mQ7u8oAJLJL7yriCNAARAv8tbteIsd79gZwyLAlbsVZm1RGLVGQYTCr2fmhhgkg12K09w/CLitPyKzOqJMpbx3YC40/9wo0xqLlxC9ELvUyZ+6QWHZzlwP/tAXfO7Fnn1Y2ygAIk4UvLxkIkABQCLQ4fSFUKVozaY2A6v2KCzYpjBjU+5/couy6h1IYZsxzcoaM5dxc/nvtyg3HU7yF3ovyo2n29+NXH31dxPWXT2eJEIu36Wwfn8uya7tpBGrle904J20Y1AAJJNfeFcRR4ACgAIgaWTC+4mfTVMARJwoeHnJRIACIH7OkgTHZ5Y0G6AASCa/8K4ijgAFAMkkaWTC+4mfTVMARJwoeHnJRIACIH7OkgTHZ5Y0G6AASCa/8K4ijgAFAMkkaWTC+4mfTVMARJwoeHnJRIACIH7OkgTHZ5Y0G6AASCa/8K4ijgAFAMkkaWTC+4mfTVMARJwoeHnJRIACIH7OkgTHZ5Y0G6AASCa/8K4ijoAOAXD+e3j+O/sVnXrSnDrvhzbt1AY27TfQstfb/4ODTc/LZdfUo3PEXTYvjwjoQ0CHADhy3jP/gwKAZOGULLhf8mxl4z5v5C/iQccqmBQA+riFR4oBAjoEwM6TFAAkpeSREp9pcM/Ua+9ffn9Db+8LWVEAxIC0eIn6ENAhABbspAAgWQRHFsQ6WVifPOu997+o1fAc/hdfSAGgj1t4pBggoEMADFhOAUBSShYp8XkG9zyPfOFdAIxcqSgAYsA3vMSIIaBDALw6kQKAhBEcYRDrZGF94IR3AfDxLO8JgIwARIyceDn+I6BDAHSpB7654E0EMAkwWU6dJM3n6dQGdh/1LgC6D6UA8J8teIbEIaBDAMgxFu+iAHDq8LgfyZE2cNUGthzwJgAWbzVQk/WeAMgIQOLojTdUCQFdAuCd6RQAdOpXnTqxIBZObEBHAmB2np7xfwqASmzB7xOHgC4BIAr82JfViwAOAZAwnBAG90mWnbSd9Nb7X7/HwL2f6+n9UwAkjt54Q5UQ0CUA5DgNyygASFDJIig+T3+f545D3gRAo6bsf9sPchpgJcbg94lCwDZ8Ha839QHOfFudCGAEwF9HSyIjvlGzASv876EC4Pq9BnQl/9n+jwIgUfTGm6mEgG34ul57LaAAiJqj5fWQ/KNoA/uPe+v9D1qqb+zf9n8UAJUYg98nCgHb8HW9dq4D2s64FwGMAJCkokhSvCZ/7PLUeQNesv/X7DJwzwB9Y/+2/6MASBS98WYqIWAbvs7XZ0cD7cqdCKAA8MfRksCIaxRtoM1j8Z/3pumZ91/o9ygAKjEGv08UAoUNQNfnUWspAKLoeHlNFARRsIEtbdWH/yetU6ip09/7F99HAZAoeuPNVEJAF+EXHqdrb2D3KecigBEAElMUiInX4L8dHvAw9W/FDr3T/gr9FgVAJcbg94lCoLAB6PzcbSBw7ntnIoACwH/HS3IjxmHbwMlzBjZVmfkvc/5fHO1P6N/2exQAiaI33kwlBGzD9+v1tUmA4SAfgAKA5BQ2OfH8/tvgriPVh/5/M9Nf8hcfSAFQiTH4faIQ8Iv484/78VzANMtHAigA/He+JDhiHKYNHD1tYMPe6gTAwCVKW73/fN9U+J4CIFH0xpuphEBhA/Drc98lFABhOl+em+Qfpg1I6H9zlYv+jFypINOL/fJN+celAKjEGPw+UQjkG7/f78euKy0CGAEgQYVJUDy3v/a3s8rQ/4RmhRt6B0P+4v8oABJFb7yZSgj4TfqFxx+8srgIoADw1wGT4IhvWDZQ7YI/o1cFS/4UAJXYgt8nDoFCgg7i88AVQGFKAAUACSosguJ5/bO9I18YaKki61/C/jKVOAh/lH8ORgASR3G8oXII5Bt/kO9lzYB242o0gALAPydMgiO2YdjAiTPVTfnrtzC4Mf9Cn0cBUI4t+F3iEChsAEF+/vl44KsfciKAAoAkFQZJ8Zz+2J2s9Oe22p/M8/+wyf+pfuV8HAVA4iiON1QOgXKNIYjvHh0OHP0SoADwxxGT4Ihr0DYgGf+tLkv9rtpp4MUx4ZK/+DsKgHJswe8Sh0AQJF/pHLf2A2ZsVgjaUfF8JEfagF4bkFX+th50N9d/9kYDDwwOfry/mF+iAEgcxfGGyiFQrBGEte2j2SZk3JBOmRjQBuJnA9Lzd0v+UuAnyGl+lXwbBUA5tuB3iUOgUoMI+vunGk1sPhg/50fC4jNLsw2ccBn2l0V9XpsQfsi/0L9RACSO4nhD5RAobABR+Cw9giHLFU6dI6mkmVR47/Gwf4nabXFR5W/saoW7BkQj5F/o7ygAyrEFv0scAoUNIEqfXxprYtvheDhBkhWfUxptQOr7b9rvbMxfEv1+NcUMpKZ/tX6MAiBxFMcbKodAtQ0lqN/d2BtoWGLiOHMDmBtxniIjSiLjwEnni/tIYZ+7I9rrz/dlFADl2ILfJQ6BfOOP8vuHhgCLd3CmQJQIgNeSTkEimf57jjrr9S/eauCVcdEb6y/l6ygAEkdxvKFyCJRqCG6239QnmPG8mizwq2kmdhxJp+Ml4fK5h20Dkuy3zcE0v1W7DPx2phlYhr/4Bh2lgykAyrEFv0scAm6IvtS+244j0Hm8XXoDPeeaOHiKhBA2IfD86bHBQ6cMbKww3i/V/GRq3539g+kUiE/qUg8MWqrQfaj3SAMFQOIojjdUDoFSpO5m+7cXgDPfAk+NDK7Ry/Xd1QCMXK2YH8CxceZH+GgDTkP+o1YqPDzEOwm78T239AXGr1Fo2WtQAJRz9PyOCBRDwE1jK7WvCAD5++Ey8ObUYEWAXNO9A4HGVRQC7I2npzce1LM+crryFL9JaxWkfkcp/+DX9jsbgKYNOfKnACjm3bmNCFRAQEfjtAWAiABZ4e/TecGLALmP+wcDE9YpVhP0sTcYFPHwPOGKGen17z5aPst/3BqFJ0cET/zS1h8ZYkISDIX47X8OAVRw9vyaCBQioFsAiAgwAYxeB3SuC0cISERg+EqFw6fDdaIkMeIfRxs4/EXpXr+M8Q9brvCohvH2an3Py2NNSE0Bm/jtVwqAQu/Oz0SgAgLVNsL83+VHAEQA2H+tR4FuA8MRAXJ9t/UH+i82se8EiSiORMRrDtZuj581sONwR2IVgm3eZaBhkcJ9IbZnSfarn6+wPq/Xb5O/vFIAVHD2/JoIFCKQT+TVvi8lAEQIfPVDOHkB+fciswbenmpixW7WESCpBkuqscD7nIH9xw1s2NeR/CXM/vEsE7f3C0/IS1uWIkJT1l0d788nfvs9BUChd+dnIlABgXyirPZ9OQEgIsA0gVFrwxsSyL+vZ0aamNyicIyVBZk5z1wJHDxpYHNBHX/pYUtmvYTaa0Iaxstvs3IdsniQTfSlXikAKjh7fk0EChHIb2jVvq8kAK4ZEhgUbk/CvkcZHvhsron1+xkViEUvlWStVbAd+cJAa9u1pCq9/c/mhBvmt9unvEphn3Ih/0IhQAFQ6N35mQhUQCC/wVX73qkAECHw3UWgdiEitSDI040mRq9RaDvJ8DDFQLJtQBbv2XboKvGv3W2gcYXCi2Oi0du3fZDMLpi96ep1FpJ9sc8UABWcPb8mAoUI2A3Oy6sbAWBHA6R64GPDoxENsO9dehyvTzIxqYUzCCgEkiUEhPjtBD/J5Je5++9NM61EWdv+o/AqS4H3mqsg11iM5MttowAo9O78TAQqIKCj0VcjAEQIXGwHBq7IlfLUcR06jyEVxj5oMrFgK+sKUAzEVwxIqH/7IcPKnJ/WovDBdBN3RXRVPolCLGp1T/y2KKAAqODs+TURKERAB2lWKwDsaMCBM8Bjw8IpKOLk/mVJYjsycOiL+JIBiTw9z07q9ssYv/T0P2wyQ52OW6mNidjut7B8hr9N8uVeKQAKvTs/E4EKCFRqnE6+9yoARAhsaTPQd6EKfbpRpfsVMfDGZBMT1yvsOZ4eQqF4iP6zPnUuF+YfvVrhrcnRC+8Xti2Z1//+dGcZ/uWI3/6OAqCCs+fXRKAQgcJGWc1nHQJg65UlRmUZUZl3rGNpz2ruxe1vug8D6heaWLxDQQqpkCiJQdA2sOWQgaHLFV4aY6JrfbTyakq1Jwn3z91cfbjfJv38VwqAQu/Oz0SgAgKlGqib7ToFgN2gF7QaeG28GanZApUwkamFb03JzSjYfJBEGDQRpuV8u48bmCrj+U0m7v08HoRvt51Hh5nWsITdznW+UgBUcPb8mggUImA3TC+vfggA2zFI9a/Hh0c3P6AcbvcMAN5rMq0FiloPURCkhaB136eUsp65WeGTOSYeGRovwrfbhyQeDlpauoyv3d69vFIAFHp3fiYCFRCwG6iXVz8FgO0QJJlJ5ut7uc6wf3tXQy6ZsGFJbsiA1QgpioqJhW2HDWsq6kezTcgQU002nqQv7U1K+EoxnzW79Ib7bb+Q/0oBUMHZ82siUIiADlIMQgDYDV2WII27ELAxlznPz4820XNurjyxDBtIIlcxUuC2ZOKy66iB2VsU+i4y8dqE6Cfu2bZb6VUWDWpYrLC2ivn8dlt3+0oBUOjd+ZkIVECgUkN28n2QAsB2ChIReG5UvCMCxbCVKVEvjjVROz9XkGjdPoXjXLcg9qJIhJ0MA83YrCARIJlWKr3jYjYQ5233D8qF+tcFSPy2T6AAqODs+TURKERAh7MJQwDYjV5yBF6OWBlTHZjmH0OmS8nY7ztTTXy+TGHWFgXJ/Oasg+hFBU6dN7DjiIFF2xWGr1T49UzTiljJ9NH8Z5q090K+MhOhmgp+dlv2+koBUOjd+ZkIVEBAhyMKUwDYTmP+FgM9mkxID1rHPcXhGCIMHhqSyyvIzjcxtllh2U5lEdBJDiX4GjXYe8LA6j0KU1py4XtZbvqJESaSTvT57aJLHayZOpMrLNNrt1G/XykAKjh7fk0EChHIb9DVvo+CALCdiyQbSVWxhwYnb3jAzfOR+eAPDAZeHmdavdABS5W1DLIIBMk1OHI6er3nqOQ5yJDL9iMGVuxWaNqkMHRFLgP/FxNzSXlpIvliNndHf+CjmSZk9UC73UXhlQKg0LvzMxGogECxBu52W5QEQL4jmtCs8Mo4E50jsKa5W0yD2F+iJTK0ICJB5pRLFGHIcmVNW5zTqiwClKGGAwlYJfHwaQPbDxtYs1dh/lZlZdlLiL7PopxAEnJ/fISJOxvSE0Fya2MyHXfwUgVZQTC/nUXlPQVABWfPr4lAIQJunUCx/aMqAGzHJAuMyDrnDwyicy/2/Jxsk6loUuhIkryEKF8YY0JI81fTTMh0NamGKGQqAkJ6zDIcMX6twoxNykp8k0qJhf9Cxmv3dfwv3E8+iyCRY01uyR17xCplnav/4ty5ZY78+00m/mmSiZfGmpDlZCUCcnt/xKY6npPnEPQ+t/eDtWrg9Bbvtfrt9ujXKwVAoXfnZyJQAQEdDiXqAiDf4czamFscRRybjnvnMYhj0mxAckukVO+w5dHt7ee3afs9BUAFZ8+viUAhAjqcV5wEgO0sJIw5cmVuiEAcng4ceAziGGcbEAKVoj1Lt0czxG+33VKvFACF3p2fiUAFBHQ4rDgKgHwnIg6vz0KFZ0cyX0CHPfAY8RFCDw8x8clshTmaF+bJb19BvacAqODs+TURKERAh7OOuwDId1ArdhgYuCQXGbgp4XO3dTx7HiM+ZG8/K8mNkBU3k0D6+W2XAqDQu/MzEaiAgO0UvLwmSQDkOxSZUijDBL+caOLmFNUX8GIL/G30BEFNHfDk8Fx4P2pT9/Lbm9f3FAAVnD2/JgKFCOhw2EkVAPkOqXm3gTGrFT6YbuLBlNcY0GEzPIa/QuHO/rCEq0zbW74jnmP6+e3PyXsKgELvzs9EoAICOhxxGgRAoQNaus2wsqTfnsK54zpsiMfwJghkYSnJYek1V0Gm7K3fmw7Sz2+XFAAVnD2/JgKFCOhwvGkUAPmOR+qfi9PtOSe3UmFX5g5wVoXPS/hKWP+RISY+bDIhK2Q2B7Dcbr7NR/E9BUChd+dnIlABAQoA/T0lWQlNBIFMqZJKhKw54K13q8NG434M6eHLOL4QvuSlSLJqFEk4zGuiAKjg7Pk1EShEQIdjTHsEwInTk8WKZHbBe9NMiKOSyno6sOcxkomjVDCUYjwS0pelryUHxYmdpXkfCoBC787PRKACAjoIhALAvXOW2gOjVyl8NjsXJbj3c1AUpFQUSYnl50eZ+PWMXPW9eQmYkx+GEKEAqODs+TURKESAAsA9efvl3FbtNKzengwdSHKhhHxlVT8dz4jHiAaOkp0vPXuZhy+hfIkM+WVPaTsuBUChd+dnIlABAR3EwAiAf05ckrskn0Cmc8kSrK+OMyHV22RMWMez4zH04yirT3YbmCP6Hk0mGhblwvgct/evnYjYoQCo4Oz5NREoREAHAVAA+OvYivXkZObBgtZcbQKJGLwzxcQzI03cPQBc/jigoYQ7+gOyRK4UipIZIMOXK8zeaER2udxidpSkbRQAhd6dn4lABQQoAIIn7yCcrvQ2JXIgK7qJQJDscZmRIE7yFlY1rBg9kQWiJC9DhmEEN8Gv30Jlhe0F11Wcdhe5oQsKgArOnl8TgUIEKACSKQAqiYyVOwyrtzqxOScS+ixQ+HiWwq+m5gjv6UYTUjNeEtSSMmPhpj7AfQOBJ4abeHmMiTcnm/jNzFyJXBliGbtaYeYGhSXb0mkTlWwm6t9TABR6d34mAhUQoACgs6/k2GW4QWYtSMJaU0tuPFvKIkt0Qca3JcIgsxmkl/z25FxIXHrN8v/cKNOqUCdV6uT/0WG5KIQ4a/kXQpaetv0vxW3s7+RVhIj9W3n9+ZXjvjbBtBIl5ZwiXLLzlNVDH7pMYdRKhQnNuYp4czcbWLzN4DS6FFQGFHvx6s9q6tG5gsvk10QgOQh4bTDy+7PfwfPf1oMk4kpEzO9pI7SB0jZw/0DvCZ0UAMnhNt6JAwR0CIBD5zzzPygASjs2On1iQxuobAMyXOXVn1EAOCAN7pIcBLw2GPn91mMUAHTQlR00MSJGftmADFPpqJlBAZAcbuOdOEBAhwCYuZUCwC/HxuOSNGkDlW1gzmbDc+9ffCEFgAPS4C7JQUCHAKhfRAFAJ13ZSRMjYuSXDQxdrigAkkNLvJOgENAhAJ4dTQHgl2PjcUmatIHKNvD+dO8zABgBCIp1eJ7IIKBDAMgxTn3jTQQwCbCykyMRECPaQHEbkNLLOnwZhwAiQ028kCAQ0NFo5BhNWygA6JyLO2fiQlz8tIFZG/WE/8WPUQAEwTo8R2QQ0CUAnh9DAeCnk+OxSaK0geI2IAsu6fJjFACRoSZeSBAI6Go4cpxdJ6sXARwCKO7c6PSJC22gtA2s2WXgVo1rW1AABME6PEdkENApAH47hwKAzrq0syY2xEa3DfRfpC/8L76QAiAy1MQLCQIBnQKgpg7Yf7o6EcAIAMlBNznweMm2qeZdhrX8tVYfxrUAgqAdniMqCOhsPHKsN6dSAJB4kk08fL7ReL495+jt/Yv/YgQgKszE6wgEAd0CQI637qB7EcAIQDScKsmNzyEONiArPN6scezf9oMUAIHQDk8SFQRsw9f52m0Q8O0FdyKAAoDEEwfi4TVGw05fHqsv8z/f91EARIWZeB2BIJBv/Drf95xPAUCyiAZZ8Dkk6zkMXKI/9G/7PgqAQGiHJ4kKArbh+/G6dI9zEcAIQLKcNEmXz9MPG5i72Z/Qv+3/KACiwky8jkAQsA3fj9eb+jifFUABQMLwgzB4zOTY1apdBh4c7E/o3/Z/FACB0A5PEhUEbMP367X7MGf5ABQAyXHUJF0+S902sH6PgVfG+Uv+4gMpAKLCTLyOQBDwi/jzj/vSOOCHy+WHAygASBq6SYPHS45N6VrtL98vFXtPARAI7fAkUUGgWCPwY9svJwOXjdIigAIgOc6axMtnqdMGPpvtX9Jfoa+jAIgKM/E6AkGgsAH4+fnXswFDFRcBFAAkDZ2kwWMlw576LFCoyepZ6teJbwsF318AACAASURBVKMACIR2eJKoIOCkUejc553pwKX2jiKAAiAZDpvEy+eoywZ6zQ2W/MXPUQBEhZl4HYEgoJPcnR5LygVfLBABFAAkDl3EwePE35Y+mul/wl8xf0UBEAjt8CRRQaBYIwhimyQGnv/+aiSAAiD+TpvEy2fo1QbW7THwqynhkL/4PQqAqDATryMQBIIg+1LnuG/Q1ToBFAAkD6/kwd/H24ZW7DDwzMjwyJ8CIBDK4UmihEApcg5q+639gOY2gAIg3s6b5Mvn58UGZm8ycP/A4JL9Svk3RgCixE68Ft8RKNUQgtwuWb49mkys3UMn6sWJ8re0nzjawPDlypeV/arxYRQAvlMOTxAlBKppJH795skRJhZvpROPoxPnNdNu3dpA824D700LN+Rf6MsoAKLETrwW3xEobABhf76lLzB4qYJbZ8L9SUC0gfjYwMyNCo8MjRb5i++jAPCdcniCKCEQNuGXOr/U/ZakIDp1YkAbSI4NSE3/+vkKXevDH+8v5nsoAKLETrwW3xEo1giisu2uAcColYwGkACTQ4BpfpazNxp4Ynj0ev35/o4CwHfK4QmihEC+8Uf1/YtjTCxsJQmkmTx47/G1/zW7DHw8y4xsrz/f71EARImdeC2+I5Bv/FF+f1MfoG6+ghQKIRkQA9pAPGxg1CqFez+PZri/mL+jAPCdcniCKCFQrBG43fbA4OAauJxLnAoJIB4EwOeUzuck4f4XRgcX7r+xN3BrX+9+iAIgSuzEa/EdAbdkX2z/E18Br0zw3viKHbvUtmdHmpixgUKABJtOgo3qc5fEXZna17kuOH9wR39gWotCdw2zCigAfKccniBKCJQiWDfbv72QW9ynx8zgGr1cX00d8MuJJuZvIQlElRB4XemwzVU7ZZw/+II+DwwCFlxp/xQAUWIWXkssEHBD9KX2FQEgfyaAxuZgRYBcUxcKAQ6J7E0H0UZNUK3elZvWd1v/4Nv948NNLNt+9blTAMSCcniRUUKgFKm72W4LgJwMAKZuyvXO3RxDx74yt1hWErN7BFFzlryeq86aWMQbC+nx185VuL1f8MQvvuLV8SakkmC+HVEARIlZeC2xQEAH8RYKABECa9uAOxvCcQ4y/viLCSZmMkfgGgeZ7yz5/lryIB7O8Fi6zcBvZpih1e6XYb9PZyusLxLxoQCIBeXwIqOEgF8CQETAmW+Bl8eHIwLkvmSRoRdHmxi/prjDoNN35vSJE3Gas9nAO1NMdO0dXnuWDsWE5tKJvxQAUWIWXkssEPBTAIgIMFQuL0CUu45zVXuM+wbCKkG6ahedOQmdNuDEBqRs77g1ClKIS8R0tW1Px++ebjSxeFv550YBEAvK4UVGCQEdjbPYEICdD2C/hjkkkH+PN/cF3p9mYs6m8s7EiYPkPsQwiTawbJuBXnMV7olAAZ+fQv4OCoBRAESJWXgtsUAgnxyrfe9EANhDAq9NDLcnkX+PTw430bBYgVEBEnkSidzNPUlvXwpsySJcXSKyUM89A8qH/AvvjwIgFpTDi4wSAvmEWO17pwJARIBMFZy5Fbg1pOzhYvcoZYbfmGRi0lrmChQ6VX5Otjiau9nAb2eakIW3irWNMLZJr//daaZrYU4BECVm4bXEAgEdDdyNALCHBM59D3wQcOEgJ/cqjlAqmYkYIPklm/zS+nwXb83N3ZcIWNhj+4VtUnJ1yiX6lXtmFACxoBxeZJQQKGyA1XyuRgDYQmDpHuDuCIw1FrvvBweb1pQj5gtQCJQjnjh8J9P3+i1UkGS6sBNyi7U1GXb4aGbHuf1usKUAiBKz8FpigUCxxuh2mxcBIELgmwvAhzOi1xvJx0FKjsr8Z6k5XmwOshtHxX0pKIKwgQWtBrLzFJ4cEU3St9vXc6NMzNnsPeJGARALyuFFRgkBuxF6efUqAEQEnP3KwOo9Cs8HuIJYtfd89wDgV1NNK2lK1joPwpnzHMS5kg1IIt+UdcrqSesgw2rbh9PfdRsITN2gcOq8gc0HvD9fHffMxYCixE68Ft8RcNpYy+2nSwB8cd6A/M9tVXhwSHSSksrduxRGkZUJZdrU9BbvvZhKTp7feyeKJGEotfCHLVd4e4qJO0Oox1+ubZT6TpJuG5aYOHom196lzVMA+O7qeQIi0BGBUo3UzXbdAkAcwvGzBhpXKdwWodkCTjARJyxTqWS8dWErySpJZBuFe5HFd6Q4z4dNprX8bRTH80u1E7nWD5pM7Dl+lfht0U8B0NE3cwsR8B2BUo3VzXY/BIDtGPafMPDpHBNdQixB6gaLwn0ld0AWKBq6TGERBQGHS4rUsC8nLFbuMDB6lcJvZpqQ1e9knYtCG4vD59cmmthwQFkRPrtt579SAPju6nkCItARAR3Ow08BYDuJvScM1C80cWNMhYCNs0QIpLSqDBnIVMO1BSualSMDfpf8iIpM0ZOQvkxFlTHtOPXwbRvPf/35OBOrfsztsdtxqVcKgI6+mVuIgO8I5DfWat8HIQBsx7HvhGGNH97SN549oUKMZfqTOHpx+AOXKMzaqCDJXCT75GMgZD9ypcLHs0xLFN4ekzH8Qhsu/Cy1BV6fZKJ5X2Xit9s1BYDvrp4nIAIdEShsvNV8DlIA2A5DhECfhSaSIgTycZckKZmvLaKgYZHC1PUKMvZLURBPDNbuMSxhJ8NAMpVUIkBxSdjLt8tK72V44t3pJja2OSd+uz1TAHT0zdxCBHxHoFKjdvJ9GALAdhxtJw0MWKogdcOdXGtc95FQsEybenmsaZVuHbxUWTUJVu2MJykmUcw0784R/fDlCj3nKPxigomHh0Sntr5fti/Dcr+dZWLLoY7JfXY7rfRKAeC7q+cJiEBHBHQ4hTAFgO1YZNbAtA3xqCOgA/P8Y0hvUiIGMhVMCr8IATW1KKzYQXGgW2hI3YfZG3ML5/RZqKyVJV8YbeLezxH78fp8m3Ly/v7BwNAVCiLC7XZY7SsFQEffzC1EwHcEnDT0SvtEQQDkO561+xR6zDBxQ8wTBivh7uR7Wf5YeqEvj8kNKYhAkOjBxGYFWQiGhYyuiiRJyJSZGpPX5URU/fzcdLvXxucy8JMyRu/EbkrtI+P7ktg3p1Xh1DnvxG+3WwoA3109T0AEOiJQqqG72R41AWA7FckTGLRc4d6ByR4ecPOsiu0rIuGBwbkowqvjTGvaotRl7z0/JxbGrs4VOZq/xcDyHQZkTFt3z9qP40kERMrhztygrAVmJLu+70KFT2bnsuwlRP/8qFyY/o7+iNzCOMWeVVjbbu4DfDLHxOaD+kjfbqfySgHQ0TdzCxHwHQEdDiWqAsB2MCfPGVi4XeG9pvhPI9TxvHQcQ6Ir0iOWvASZxSDVEIVMpQiS9JhlOOKdKaZVsEbmsMu0x8J/KZZU7L9wP/ksgkSK38gysXLs1yfkziUJdXJumSMvIkZWc5QkSh33mPZjSN6J9PYntSgcPu0P8dttlALAd1fPExCBjgjocHJRFwC2k5FXKT86Y5OyHFvUlkLV8Sx4DJK/Vxt4eEiuVO+2w/6Sfn67pADo6Ju5hQj4joBXZyG/j5MAyHc6u44aGLJc4aGYrDug41nxGBQIxWxASm5/NNvEil25xXny20kQ7ykAfHf1PAER6IhAMWfgdltcBYDt2GQ1MlmJsG6hSTGQJUG6tf+47n9HA/DrmSbmtSocz1uYx24XQb5SAHT0zdxCBHxHQIfzirsAKHR0UshEIgMyvYvDBBQEOtpIVI5xZ0NuQR5ZcVOmzhbaflifKQB8d/U8ARHoiIAOx5Q0AZDvBHccya1KaImBmC7EouMZ8xjxFUL3DwJ6zg0vvJ/fnkq9pwDo6Ju5hQj4joAOx55kAZDvsGRBoiktCj2aTNyd8MqDOuyCxwhHNMiUPanF37ha+TZtL79d6HhPAeC7q+cJiEBHBHQ46bQIgEJHJ1nSY5sV3p6azDUJdNgGj+G/CJDpek81mtZqmYt3hD+eX9hOnHymAOjom7mFCPiOgA4HnVYBkO/YZHqh1BqoW2Di6ZHJr/+uw254jOrFgUzVkwS+po0K+09EZyw/v024eU8B4Lur5wmIQEcEdDhhCoCODlgEgUypkmRCCcfelpClXnXYC4/hjvhlyWjp4cs4vtSwkAqXbsg1DvtSAHT0zdxCBHxHQIczpgCo7JClGqHMLpAhgw+aTHQf5o4EdDwnHiMemMsS11KBr2GJCQnpi5iMA4l7uUYKAN9dPU9ABDoioIMUKACqc9Btp3JRgsZVV0WBjOfqeCY8RjxwlMiQzDCR3r2U3BWRqHORHS+kHORvKQA6+mZuIQK+I6CDKCgAqhMAxRzsoS8MLN+lrAxuWdHwiREmutbHg8x02FJSjyH1JGStgremmhi0TGHBVoXdx/XZTTFbitM2CgDfXT1PQAQ6IqDD4VIA+OvIT5w1IDMOJBws0QIp2Soh4ns4FTFy0ZIuvWEN78jMkPqFpjXkI7kgIuziRMhBXysFQEffzC1EwHcEKADi7ZglA1wIZvza3AyENyebeLrRhFR80/FseYyOOMoY/aPDTCu5U5bIHblaWTNApGiUlJUOmjyTcD4KAN9dPU9ABDoioMPBMwIQTacvyWNbDhlYtF1hwjplJZVJAuLPxpp4aDBwY++O5KbDHuJ8DBluuffz3Lj8u9NNa32I0WsUpHRuy34FydtIAuFG7R4oADr6Zm4hAr4joMNZUwDElxSOnDaw/bCBVXtyJDdxfW7qYu1805qt8NpEE0+OMNFtIKypjHFLUpTeugyVPDY8J3yE1D+ba2LAUoUxzQqztigrgrL5oIG2k/F9jlEjdLfXQwHgu6vnCYhARwQoAOj03TpriSzIXHTJS1i3L0egC7Ypa466DEVInoLUP5D/3otyY+EyHi7/kr+Q///OVNOqpChj5vIvxW3yv8/Ov/b3kkAnxx22MjelUgrhyGp2S3cqrN2n0HrYsJLrOOYeL7umAOjom7mFCPiOgA4BcPpbeP47+1W8HJZb0uT+fL60gdI2QAHgu6vnCYhARwR0CIC2M575HxQApZ0jiYPYJN0GKAA6+mZuIQK+I6BDAGw6QgGQdAfN+6MI8dMGKAB8d/U8ARHoiIAOATB5IwWAn86Rxyb5Jt0GKAA6+mZuIQK+I6BDAHw6jwIg6Q6a90cR4qcNUAD47up5AiLQEQEdAuDhoRQAfjpHHpvkm3QboADo6Ju5hQj4joAOASDHOHjWmwhgEiBJLukkx/srbeMUAL67ep6ACHREQJcAGLOOAoAOvrSDJzbEppwNUAB09M3cQgR8R0CXAHhkGGCa1YsARgBIEOUIgt+Vtg8pyjS7NVcg6cMZuTUKXhpr4qnG+PzL2grdh3r7v0FHaes67MtksZH/xCB0G6jDkkwtZnbKYmBNFr+oqcONN/XFn2kVBboEgBynuY0CgERVmqiIjT5spHRxn4WmVeJYlhrW2Y55LOJJG4isDRiZOqyrqcU7nXvj33oWAzof9GuTKABIcvpIjlhei6WsNDh7i8Jzo0wSPkUPbYA2oGqymN+pDv9YtRDQKQDkWC2HqhMBHAK41tmT/IhHvg0s2aGs3r7u9srjRbanR4InwbuxgRWdsvhr10JAtwN4elR1uQAUACS8fMLj+5w9yAqF701nj1+3n+LxKHwSaAPtnbLIXt8Df+xYCPgBQlOr+ygABQAFAEn/WhuQJZrvG0RH7YeP4jFpV0m1gZpabOnSE3/pSAT4AYKswX7qa3cigALgWudPMkw3HtM2KHTRkdXOMKqbMCr3pb0kxQa+ytTiv1YUAX4IADmmJAS6mRZIAZBuwqPgufr8R61RqKljD80v38Tj0rZSYgMXOtXhjrIiwE8gGpudRwEoAK4SAMkwmVicPGvg2BkDR74wcLjE//i1CpzWR4Ly0y/z2Kmyr0uZOnQtKQL8NAbpxax1WBuAAiCZpJdmMXPynIG2EwZ2HDKwcb+Blr3l/8esVujMnn9SQrC8Dw4nRMUGvulch/+jqAjwUwDIsW/vDxw5XzkSQAFAAZAUsXDirIHdRw1s2Fee8PMFwaJWA7f1S1XPJCrOkddBok6DDey+vgF/2kEE+C0A5PgPDAbOfFteBFAAUAAkQQDsP25gowviFxGwfq9hle0Noi3yHBRZtIF02kBNFsNCEQBicN2HA1/9rrQIoACgAIizAJBw/7ZDznv8+b3/hkUqDT0Q3iN72rSBcG3ArMmi0zUiIEg1+PwY4JsLxUUABQAFQFwFgIT8W9uqI/8VOxj6D9IH8Vzp7P3yuf/03Ld3m4Q/+EkEBA3M4yOAc991FAEUABQAcRQA0vOvlvwlCvDJbPb+g/ZBPN9PZMAeebg98lDwr8ni/tAEgDS+R4cDpwtyAigAKADiKAAkwz8/nO/m/epd7P2TjEnGtIGAbaAOW68Dfs8SAWGB320gsOfU1UgABQAFQNwEgCT8uSH8wn0HLmHvPyz/w/MGTDop7GlH3Mb+v1AFgIBzUx9gxb6cCKAAoACIkwCQoj5us/0LBcCzI/Uv8vPYcBN9F5mY3KKwcLvC4h38Jwa0gSjYwJwtCuPWOPuXmiDSQfhguol7Ptcv1jplMTB0ASAiQIoFjWwGznxJAowTAab9Wvcc89b7X7bd0Frut/swYME2hbQ/F94//WiUbaCafKH1ewwMXqpwZ4NWIXDGGgaISpjitQkm9p2g8UbZeHltOfs8dd5773/Ycn3h/9cnmTj0BdsO7ZM2EHUbOHCy+o7D4m0GHh2qL2rYKYu/vi4qAkCu496BwIpd7MVE3YjTfn0HPTRiexjg3al6GvKzo0xrfYG0PxPeP8k/DjZw6py7CqG2v7Bfl20zcM8APZGAmlq8EikBYA8J9Jxr4vgZGnQcDDqN17jrcPUq3m7ITzd6FwBd64HWQ2wnabRB3nN87X67h5lD4j8mNGuLHg6JnACwIxKPjzDRsp/RADb06DX0zQe8C4A7+3tX8R/OMDnmfz569sE2y2dSzgb2eZw9JCLgyRHeOxCZLFZGVgCIEOjSG2hYwmhAOWPid8E6Gxn/t3vx1b6u3WNoKQDCpL9gnz3bGvHWYQMHT3n3Ib0XaIkCHI60ALCjAQ8PgTWdSQf4PAYbsRcbkKGpaonf/p2U/7Vt28tr2yk+Sy/Pkr+l/YRhA0dPe/ch01q0CIAvYyEAbCf5XpOJ3cdotGEYLc+ZszsdjXdhq3cBcGNvMPzP8D9tIIY2cExDJ0JmBNi86OG1XYsAeHWi9/FMpzchxYMGLFU4yiRBNv4QGr8OATB/i/fGe1t/CgCKUnaG4mgDUYoiahEAX/0AZBcGJwJELMiUwUktCjKtIo5GwGuO53OjAIjnc2N743OLig0kTgB8e2WJ36mbcpX9nPbmdez36DATMzYpSHJWVB4wryO5z4ICILnPlu2WzzYIG0isAJCq/sv3Ajf2CTYaIEJCaqBTCLAB+92AKQBoY37bGI+fbBtLtAAQEbD5CCBjlDp6+G6P8cxIE7O2cGiATsQfJ0IB4A+utFfimhYbSLwAEBFw/Evg2VHhiAARDQ8OARpXKZZJ5dCI1qEhCgASVVqIivfpj62nQgCICLjUDtQvCk8EiBCQZMGhyxVkEQYaNDHwagMUALQhrzbE36fbhlIjAEQEyN+q/cDtIQ0J2EMIXXsDb081sWoPywvTAVXvgCgAqseOdkfsaAOGtc6NXRSs2lddxcS0TAO0ZwFc4fuiL2EPCdhCQF5fGGNicgtrCbAxunfIFADuMaOdETPawFUbSF0EwFYEMiTQsAzoXBfusIAtBm7rB3wyx8TafYwKsIFebaDlsKAAcIZTOQz5HTFMsw2kVgDYQmDnSeDJxmiIAFsMyOpKI1Yplhpm0mDZXBEKAJJXmsmL9+7d/lMvAEQItCtgfAtwQ+9oCYGaOuCF0aY1g2D/Ce8Pmw0mWRhSACTrebJ98nkGbQMUAHYoAMChc8DPxkVLBNhRAUkcfGNSLl+gjbMIyvaMg25EYZ2PAoCEEZbt8bzJsD0KgDwBIG9NE+i3UOGWvtEUAiIIutYDr4w3MaZZYc/xZBgiHYr750gB4B4z2hkxow1ctQEKgAIBIB+3HjSwbLuBd6ea6BKRJEE7ElD4KsMEz44yrVUJm/ey6mCaGjcFwFVHlqbnznvlc9dlAxQAJQSAPSdyzmYDL40xQyklXEj2Tj7f2QB80GRi2gaFfcwbSPRQAQUAiUAXEfA46bQlCoAKAsAWAhOaFR4ZGh8hYIuFBwYDH83OLU7E3IFkNXIKgGQ9T5Iwn2fQNkAB4FAAiBBYv8fA54sV7vk8uvkBNvEXe5WaB7JAUd0CE7O3MEIQdGPTfT4KABKGbpvi8dJlUxQALgSAHQ1Ye0UI3DcwnkIgXxw8NCQ3ZDBurcKGAwonz6WrAcTZ4VEA0FbjbL+89vDtlwKgCgFgCwGJCAxeqvDg4PgNDeSLgPz3N/XJ1R7oOc/ElBaFzQcNnKIoiGQugVcBIPY7fo3ynN8iy23TmYfvzPkM+Azc2gAFgAcBkC8Ehv24yt8jQ5IjBPJFgUyJlIJEkksweo3C8p0KzCcI39m4EQBLtxsYt0YhO09Z9SS6DzUhtSXyn3O17ykAwrcFt46f+/OZiQ1QAGgQAD8Jgb0GRq1UeG6UiZqsHudarVMO4neyvPFrE0zUzs/VJFiyQ2HXMTasoJxroQCQHv2CLQbGrFaom6/w9hQTTzeavq9+SQFAmw/K5nkevbZGAaBRANhCQF5l+qDUEZCQehBkHKVz3NwHeKrRxK+mmeizyITkFyzartB6yMCJM3oNOG0OQRqsDMss2Kqs9SJ6NJl4ZZyJh4eYoZWypgCgTaetHSblfikAfBIAthhYtdNA7wUK9ycgYVCHyJDCRfd+nlsGWQRCr3kmhq9UmLpBYfmunEg4mlKRIOJo+xEDK3YpNG1UFi4SXXlnmmkNwQhuUYwsUQBQACSFENN2HxQAPgsAWwis32tg7GqFn40xI7MEsQ5C9+sYkndw/+BclcNfTDQhPV0hw0HLFMY2K8zYpLBgm8KqPQob2xR2HTVw8FQ0HLEkTUqOxLbDBtbtU1i2U2FOq7KSKmWVx76LTPx2lok3Jpt4YYyJR4bC9zC9X89JjksBEA27Sxt58X692x0FQEACwBYC8rp0m2ElY0nY1k/HnNZj39YvR0pSBOnBIbnhCBkL//k401pD4e2pJgr/pXqiJDkW/kuUonBfyXuQY0kJZhnqkKmUcq47GgAZ/kgb7kkRAOIMRUzO3KwwbKVC/8U50VloE7o+28NjIl6TQmaHvjDQvC8X0Ru6PIdhdn6uXUn9kYYlJoauUJi+UVni+Mjp5Nx7pWcoET4ZCh24TOGzuVeHR8N8/hQAIQiAfDEwa6PCh00m7uifPuJIG1Em9X7jKgAkUiPRmX6LTDw/2kSX+nDaoAzryEqfkttRiUSi9v3OowYmrVdWhO6+Qe7xk3t/aDDw65kmprYkc3Gz42cNazhPOgjFfECYz58CIGQBYIuBdXtyMwheHadvelYxY+O24o2QuFSPS9wEwNZDBvosNCGzWKL03CVheOYmFXkR0HbKwKQWZUXBdOekSI6QTDmWYT6JJkRN8Li9ngMnDbw01lmkN4znTwEQEQFgCwF5XbPLwMiVCr+caOLmCC9LHCXnyWsJj8ziIgCk0qUM9YTV03dio1Kue/7WaIoAyWmR4Q9d9SMq4SGEKEnCcZ1afOyMYU0Jr3Sf+d8H/fwpACIoAPLFQPPuXAGX96ZxmCC/ofB9eIRfiH3UBYD0wiTpUnqXhdcexc8SKpZettvepl/7yxj1+yEKJxEcH882Y7e6af1CZz3/QhsM8vlTAERcAOSLASn0IqsSSn2BuwfEw5kVGjc/J++5RVkAyPTSUmOvUbZFyUvwi9CdHlfGrhtXKciMnChgJcm9cj1xWK9kz3EDN3qotBnU86cAiJEAyBcD8n7+FgP9FiqrEAyHCqLhpKLgKIO+higKAAm/9pxbXQ8saPyKne/+QeGur7CpzcBjw6OJn1RalXoZToVMGPtJyfRiz9XptqCePwVAjAVAviCQJMLpLQq95io8OTw+4U6nDYL7RVfgRE0A7D5u4IkR0SQvN3Yc1vQwSfCLegVTiUpILZAwyN3JOWX6sJtnXWzfIJ4/BUBCBEC+GJD3sviLrFQo9eAfGkxBUKyBcZseURElASDlpqWAVBKerRS5ckI2uvaRaZGfzPFOXEFhLzMQpFaDrvvXeZwXHWb+l8MqiOcfNQFwqRwgTr47910RRne5afshA4WEGvfPUpJYVoP7eJaJZ0eGVzfeyTPkPvEisKgIAJnel6TcmOa9wQkAKVIjJafj2PZ6zDBx4my0hgSkQJhXLBfv8P/5R00AnPUK2uFzLtm+yO47j6jECYBCAbN2j4Ep6xTq5im8PNbEXUwq9NxgvdpuXH8fBQEgSVdS9TGuGBa77r0ngiE1IYFXx3snrGL3ENQ2qdYZpeRACgD3bfG6Tlkc9Gow248XYXSXm/YcS74AKBQE8nnZlTXja+cqvDbetBYwisvUKa92w9+7b7A2ZmELACEwKfVsX08SXiUBT2dIutSxJOwv5JkEzGSqZ6n7DHo7BYB7f3Jdpg5bvRri7G0u2b7I7m0n0ykAiomCVbsMTF6n0GeBssqVPjo0nUsce7XLqPz+ngHAi6NziysNXKIwYoW3bGW5r7AFwKcxGrd2ageyQmYQpCXz651eUxz2i0pOAAVANQIgizlejazPkiKM7nLTiXNm4ocAipG9m22LtxoYv0ah70IFKVIkU3OEXHSXBvVqD2n8vRROkcRPWbBI1ploWKwwdb2C5IEUPmOZSuoVozAFwOwt3gWM1/vX/XtZWEqmMfotAMatTR524n9mbQlGPJV7PhQAVQiATllkvTamF8a6ZPsiu3/5LQVAIVE4/SxljJs2KAyVFa9mK7w92bR6nA8OZuTAq23n/15I99FhplUDQpZKFiEmSZ4Lv9UuewAAIABJREFUWg3I0tNOn1ecBYDUir/3c/eOJh/HqL2X6Xfr9vtPYFIW2Uuhmqjhln89UjBo+2H/BRQFQM7PrNjhvRMhz++6TBbP5D/Iat7LmPW574uwuotNFy7BsQN16mi531VjmbFBWWsd9F6QWwlR8g2eHGHigUHArRGpOlaN7en4jfRgZGXIR4aYeHGMiTcnm9bMDSn4NGa1wpxNubUidNlTnAVA7fxkha8lgrY6gKl/kjPxyNBkCafCticRSclvKEfSfn7HCIB7+7qupg7/UPggq/msIw9gS5vzXpQuZ8zj5DCXokaLtxmYuTHXq5V6BvXzFX4707TqGkhoW6YyPjbMhIRLxXFKYZCoJSze0DtH5vcNBLoPzV2zrPb4qykmPpppWvck9ybELkWcFrUakNkZQdpBXAXAjiMGuoa0fG81Pqncb6THWrfARNvJYAhrwNLkhf6L4Tum2f9ISikRQQFQhQDo2gt/ksnCcy2AVye66O6X2LXtFBMBgyQiXedq3mVg+Y5cmWQZipi0LiciJDwuCW/Dll/9l7Fx6Vnb/9l5uUqKUk3R/pfQuv29/SqkLccZtSp3bDmHELgIFiFUCYnJug267snP48RVAPhdsEay8N+bbkKiDIOXKQxZrv9/4nqFZTsVpOZ+KSLRvV1W9Asi9C9DVCLU5Tn1XWRa+PVZZFqrCf5srBnI+gJyDfsCmkpZ+JwoAKoQANddd51MBVxVTM253bb3ixLM7nDzuW+YB+An8fDY0RAIcRQA4tT9ILE7G4Chy1Xo48eFZKLz81s+TvkT/EQwrd2nKobfpXDPit3KEgi39nNPFk75QASITvycHosCwP0zFf6XPIAeTh9uuf0+m++Q6UvsZihg4/5oOGmSJZ+DXzYQRwEgU+TKtX2333WpB2T1NUkqdOrg47jf5oOGL8Nk0tMesUrhaJUzFw6eMvD5Mn/WH5AZMbuPBf9cKQCqFAC68gBkfPDolyXY3eFmDgOQeP0i3qgcN44C4EmNRX8kd2Rea3hjxUEKCZkt4lYcVdpfklR1hdll8RsZNqh0TrffS1QiSJzlXBQAVQqAHj3w+5k6HHP7kIvt//4Mh0xfYrdvf8dhgKgQFa/DHzEWNwGw5ZCeKUfiL4T8ZTpc0OQQxvlkhUSJdBTzk9Vsk9kqMlxy6rze3rWU861fqFcEyNTKoKM7FADubc0aAriSB/BZNUZZ7DetR0uwu8PNOw4zGZDk6w/5RgHXuAkAr+us2z5CZozMTUnPXwTHMI3DJkL+E9b5K5yGaqhQaT9reZ3c4u/1Foo6CgAPAqCmFn+V//C8vH9oKPDDZYdsX2S3L79jFCAKRMVr8EeExE0AyPLWXvyB/duec4MPCxeSRJCfnxihBzfBT8REENeuMxIgQwtBXLN9DgoADwLgSjJgi91Yvb729VgemFEAf8iHpB4+rnETAPdoqPwnoX9d49a2w4/yqyT/efWh9u9l4aCg7lUK+ejKCZCIT1CrKwo+FADeBUA32+i8vkrIam1bke69w01ffc8oAMk6fLL24xnESQDIOK5XXyC/l6I7QZFYFM4zcrWeWRO39wf2BzyvXhIDb+7jnkyK2cm0DcFELigAqnteP+UAyBsrGTCLvcUeZDXbZK7pkfMOGb/IbvtOMBfADwLiMcMVFnESAM179RDZqgDK7UaB+O1rkEz9anxm4W/Cqqynq3JhkMsFMwLgXgRcIwDkQ6csniw0Qi+fnxpZfT7ApXbWBSBZh0vWfuAfJwEwc5N3ASDFasKsEW+TclCvkqUv8/S9+E35rQy9yBoCQV13/nmkToCOYkEPDUFg108B4N7mOgiAbj3wR5ksDng13vzf/9MUoN0o0sV3sOmLLzkU4AcJ8ZjhCYs4CQApnZvflqt5//zodIX/dx3TM2zSf3G4uOko/Sx5ANUWK8oXJE7eUwBoEABXogC3V9PQy/3mvRmAMh0wfpFd9h7nUAAJOzzC1o19nARAo4axbJlF4MSBJ2WfJTu8iybxpZJIGCYmK3bpuY/1ASy1LDhRAGgSAFdEwLxyhF7Nd9mFgFmFCLhsAFwpMDkEqJtQ43a8OAkAHXPZpRpemEQW9Ll11E2Q8H/Q1114Plk7QGZvVOPr83/TtCmYREAKAPfPqsMQgL3h+jr8h0wWF/MfpI73H80BpOa/279vfmdiwz6SYNzIjtfb0WbjJAAkCc1ru391fLoEgKzE5xWztyISNXlprPd7kXUkCsWFH58pADQKgCtRgPe8GnKx3384C2ivQgSc/or5ACTUjoQaN0ziJACmtngXALLMrx8OP6rHlIJHxfyem229F0UDM8nid3PdxfZtWEIBkG+rktjp1WfJ8ufFsHa7ze7wF329Mi1whduDOtn/l5OB7y66jQMAh08zH8Cr8fD33hugFwzjJAAWbPMuAKQe/oGT4Y5n5ztgv99/OMM7aQbVa66ERR8N0YygakAwAqA5AiCqoGsv/EUmi2+dkLrbfboPB465XD1Qcgj2sz6AZwXphcD4W28CIk4CYKumhYAmBVwXvhKx+fn9O1O9C4CxzcH0mivhMHiZdwH40exgohkUAD4IABEBmTo84Zbcne5/9wCg9Zi7SICIAM4M8EZCJPHw8IuTAJCV4mR9d6ftudR+PxsbDAlUIrQgvpfSvaVwcLo9KgJgyHIKAN02E5shgPxxgU5Z9HdqvG7361wHNDa7myEgUwr3HONwAIk8PCKvFvs4CQBxfk9qWtRGhhN0O9MoHo8C4FrByAjAtcNfsRQA1/fAH2bqsMQtubvZ/53pwLcXnEcDlGIkoFoS4u/CEw5xEwDZ+d57tOIHHh1m4sjpa51hFAnc6zVRAFAAlLOhWAoAiQbU9Me/ymTR5obU3e57/2Bg0xHnIkCGAw6cZCSAhB4eobvFPm4CYF6r9zCw7QdkepuUyi3nIOP+HQUABUA5G46tABARcH0t/mMmizN2g/bjVVYSlOWEL7Y7EwJSW+jQFxQBbomI+4cjGuImAKTXrmt1OPEXn84xIbkF5ZxknL+jAKAAKGe/sRYAVlJgPf4mk8XXfpB//jEfHQ5sP+5MBMheZ75msSCSejik7gb3uAkAcWZSzS+/bXp9/9oEE20JnRpIAUABkGgBYA0H1OPvMll879URVPq9RAM+mQd89YMzIfD19yY27Y8+CbghDO6brOcZRwGwWFN9+/z2Lmvdj1ilcCKkFe/KOWkv31EAUACUs5/YRwBEAMhfp1rckMnih/xG7dd7mS64YCfgZCmBC5eAbYeSRRoUAcl5nnEUADJuLxX9/GjfdzUAUnFOcg12HDFCWwK3nNN28x0FAAVAOXtJjAAQEZCpxX/NZPGNH46h2DFfGAtsczAsINMEmReQHNJMkgCKowAQhzZtg75kwGJtO3/bbf2A+wflZg7IcsJSXU+K0sxtVWg7Fe38AQoACoDUCIArkYC/9TsxMN85yHuZMnjy68rDAme/MbGRQwKsHLg3OmIorgJAEvceGXqtcy9sl0F8lrohTzea6L/YxJZD0RMDFADX2gjrAFxro4mKAFhjATJFsBZ/lanDsSAcgH2OG/sADcuAL39XXgjIkMDOI5wlkKRedJzvJa4CQHo1uta6t9uwjtfnRpmY0qIgy9eW63kF9R0FAAVAOVtLpAAQIdDlM/zPmSxadDRqN8e4qQ/Qf2llIfDFV5wlEGfiTMq1x1kAiGN7d7o/uQBu2nyxfR8YDIxfq0KfYkgBQAGQSgEgIuDv6vAvMrWYWKyB+r3t1n7AsNXlZwz8cMlkNCBC4fCkkLqb+4i7AJDpe/cNutbJ+9223Rz/yUYTq/aEV3aYAuBa2+AQwLWRqcRGAOzhgOuA38tk8WYmC+Wm4era94beuamDx8usNHjuGxObD0RnXNgNgXDfeD+3uAsA6d2s2KUgy/zqarO6j1NTB9QvNEMZFqAAuNYuKADSJgCuKIFMHW7LZHFed+N2ejxxUB/NBfadLp4jcLkdaDvF3AAKimAFRRIEgIiAkauDmxXgtM0X7vfCaBO7jl7rgMuFZ3V8RwFAAVDOjpIfAfgpFHDddV2z+DeZLFYXNsygPz8/JldHoF11FAPf/mBix2EKAQqBYIRAUgSAOLk+i6KZD5DvX6SGyLr9wQ0JUABQAFAA5IkAWUmwUxafZbIw8xtmGO+7DQRGrQXOftdRCJz/1sT/3961BslRnVfj2BWbVDmPciWVVCqvSlUqieNyyvnjwk52eiSBwDJgYbCJjQXIGAgCK3bAUkTYxDEBdm7vIiEhoSd6IS0SWlaKXgi90WO1SLIkJCEJafUGS4rtkIpJubtP9M1sex47szO9fXume+75MdUzPf249/TX3zn33u9+90cn60MCJFtzcW4mASAJgiS3fyPe5SD3lLwCMmwxmGPW9R8FAAXAYLZkVA9AgQ6QqYLDLYXTQV7cqI6VucSSS2DbcaCwV0ASCF24wnTCFCjRCZRmEgC+o5u5Of7DATdNBnYei14EUABQAPjvRbmtsQJAxMDIyfhESmFWHHoDfHEx+nlg+hbg5KV8r4DjUghQBEQjAppRAIij69zt4oaOYufvv2Nx2d4yFdjfF21MAAVAsQ0wCLDY3owWAH6PgGVjRErhTFwcg1+Ou+cB83YA53+SEwO/cICzl1wuMMSpg9qyKTarABARsPdkdGsG+O9o2O1dsz2ciXABIgoACoByLX9/HwVAvwoY9hR+3VKYYik4YV9q3efLKoQPLwG69gGX3wdECJy/zKmD7BUI3yvQzAJAnJyQ69TXPYyIcW/Av3V7kcUDUABQAPhkX25LAeB3A/RvW9rxGUvhDd0krvN6fs9A32VAcghwtcHwRGiqmGh2AeA7PcnT/2inBxHTOt9FXdfq3htNPAAFQPHz5hAAhwBKKH/gz9ZWfNhS+JaVwWVdL3hU1xk7H5izHdh5glkFTSXxMPU2RQD4QmDPCTebPnh4zHoEbpsO9L1X7Jz9MofZUgBQAAxmP+wBGMj/v9xzvY3fSikoS+GDqAhc53Vvngq0dgMv7fKw+RBbxWGI0ZRzTRMAvjM8ccHBgjdcSHKeuGQRtNfrHwqgAKAA8G2+3JYC4Jd0X/nLiDb8saWwOE6zBaoJB0k/es88QMYX5291se0tCgJTSD1IPU0VAIXO8NS7DtbsdyEE/E+dHv5+JjCiAamFZdbCsfN6ewEoACgACm299DsFQGXeH/BPi42/sRQ2ViPfOP4vrZy753j4QbeHRdspCIKQZDMfSwFQmXAlgFAIWeIHNh920dXrQq318LWZxaSi833veE1vL0CcBYDg++peF0+u8vDdTg/jl3h4osvD0t0upIemlKx05HdgDEAxrhQAA2i++o5hGXzeUlip88Wv97Wkh0CWLP3eUg9T1rtY2cv0w81M9JXqRgFQ7BBLSafS7+1HXYxbrD/roCQI0jktMK4CYMkuF6OnVRZSN8qy6hs8nLuUfz4UAHksKtll0P0UANX5vuIRKRt/d/Wzqd7kHdX9bn4OeHChhydXutlhg40HOGxQiTibZT8FQDinumqfC1n6W+c7uXyPvhkBcRMAFy472WHJWvF6YKGH4/3DIhQA4Wy1nDigAKhI77X/YWXwtymFNUmKEaj1Bbx1GvDQIhEFHmZvdrFmr4PdRykMkigAdh510N3r4oWNLv61y8sGwEk2ulptodJxo57DgO7acs6mWfdJwqE7NQ4LSFe4LqziJgDa1gTvNfn6LODoOQcUABQAtbNyA45sacOnrAzmJGXWQCWHXm3/9R3AXbO87Lxqe42LBdsoDOIkCHYcyRG9CLanV7n4xyUS2BZdtLvpAkDI+tBpBzrElLx7Eq8jgYk6RECcBMDGt4a+RsOYuR7sdcHFQ6kvYwxAsV2xByACofCFdvxuysYPLYUrpQbYzL/FcUlcwbhFXraFOXWDiyU7XKzb72AXew20pe8VsbHziIPVex0s3O5mYzieWOFlh29khUmJ76innVEA5JyqBArqmlIosxKaTQA8uCgcgeuwawoACoAIKL/8JUfNwLVX1xi4J62wp54OOY73khUPJehn7LzcVCuJMxCBMH+bm+2W3niQwwqFvQhbDuVa8dK7Mm2Dm43LkIDNe+d5kGEZHc5Ql51QAOSdqhCMDlxltkEzCYAjZ51YZGGkAMjbqtgXewDKc7f2vTKFsH/lwf/R4SCa8Roy91pEwj1zvGwvwoRluWmL9loXMzbmhhpe6XGxbp8DIcgkxSLsOOxAgipltoX0ikj3/LPrc8Q+abmH8S/lyF1a8DLEkqTnSwGQd6oyVj3y2fDPT+JumkkArNo/9O5/ne8CBUDeVikAtNN89Qu2tOM3LBsPsVcgvJMUxzCyA9mx16/OAL4528N9L3p4ZHGOUEVATFyWG46Q/Adtq11kVue6zGXqY+Fn5qYcKQsxF34kYK7wOPnevtbNXuuH3blrT3rFg9xLxtofXpwrwzdmebh9OvClKY1JKqPTaVa7FgVAsVOVuezVMKv2vywL3kwCYNEOCoBqz7z0/w2H9AwDDWZH7AGoztmRHTGsHX9uKbRaCqdKHz5/6xEIxDF6HCkAigWAJLfRYXc6AgEfXxFejMzdFp6IXu7Rg0lYXDOahlYGI1X5T4bqwpaVAiAy6o3Xhb/SiV9J27jBUlhkKbwf1nB4fvSkR4zzGFMAFAuAkxed0M5f7Gt/X/F1q5FOuf8lFXhYW5WEPOWuHWTf1iPxEACyNHSQcg/1WAqAvH+o1f7ixcoNKk1LKz5m2Rhl2ZhvKfx3reDxuOAGR8z0YEYBMJCoJaNfWPvadTx8y3so8+5Lyz1pRXjSPH/JwSjNCZNKy1nLbx29GbWIAgqA4PbfIMqN720/Z+PjKYXRKYUlFAPBDaoWh8BjwuNKATBQAMiCQmFta/Nb4QXArC3hW96SiKcW0qt2jKxzEBaTsOdLMGK1cur4nwIguP3Hl4ljUDIZJuhfg+ApK4OjYV8Enh/cQIlZecwoAAYKAB0LBm05HJ6sVvSGFwBi94fPDqxjUKKUBX5ue768DdXr3dpzIjymtdSbAiD4c44BzSanCMNs/FVKYYKlsN1S+EW9XiDeJ7hhNztmFAADyVGW9g373HdrGALoOa5HAMzZqoc4ZRElHdgMBVtJ0qRzoaXBhAAFQHD7Tw77xqykI9rwa+l2DLMUnrIUeofycvCc4AZLzHKYUQAUCwBZQliHbRzQEAR4/scOhmsQI3fN9nDxSnE9ByPAwf6T6PZGiAAh5cHKpfM/CoDg/jRmtJrc4lgZ/KGVwVhLYbGlcE6HM+I1ghu0KZhRABQTo44pb5LpUVdr9b75esbeZeVDXSTZCBHwzGoKgNLnxzwAyeX5mks+/Gn8nqXwlbTCs/09BJ4p5MR6Ri9cKACKBcBjL4cn3Ntn6Am8E4evK/hOVjwUwiglkaH+rrcIWKlRwFSrM3sAgvudmgmNB4ZDIN2B37Fs3No/ZLCRMwyCGyuFRR4zCoA8Ke475UBSWoe1j++8pK+1KkQbtjz++e3r9ZVLSLReIkCGHHT1qFQjf/mfAiD4OxCO1Xj2kBFobcWHUzb+0lIYYylM609T/HP/pec2uDGbhBkFQF4ASEpoHc9eR/Idn6hkDv7NU/XYsAxNrNY8la4eIkB6ZXw86rGlAAhub0MmMJ6oH4GWVnwkncFfWBl8TXoKUgprLIXzOpwbrxH85dCM2QeWwv5sjIgNO+y1KQByAqDrTVfbincbNeQAKCQ6XasUiq1Ia1oy+xVeP+z3qEXAN+d4OH4+L9TClrfa+RQAwX2cfhbjFbUj0JLBJ4e1oSWt8G1LoT2tsLZ/LQPGFajgRh+WfKucL2ml90oiqZTC49mkUh34MxF3vmGk2/EnVa5RtUVLAeBg1zF9ke1CsGc1jrULWe04pm8YQOxFVjxcdyBZImDM3PqJAAqA4L7Q90ncJhCBUTNw7TCFv04r3JHOYKKlMNOy8XpK4STzFAR/GQKQ8s8shQOWwop0Bs9c7aX5lgg0CfysxYwoAMK3CiVhzy2autjluU9cHk139dgX9QxP+LY5zAambXQhQwzVWsS1/P/OBQeyDLJ//Si29RIBFADBfV4t/orHJBCBz87AR4VoJFdB2sa9V1/sJyyFF9I2VvWT16UoXvYmuOb/pRTOWBnssGwsz/a4ZPBIOoNbRGx9/j/wm2HNgQJg6OQlc+wl1a6OoL9CW9U9xu6Tb/ebensB/DLfPdfDphBDFhcvO1jW4+JWjSLKL1u5bT1EAAUABUBY32zU+bIIUouNP5V0x0JwqQzus2xMsmx0pBQWWgrr+8etT1sKPy33Yidk339ZNo5lSV1hZSqDeSkFle01sXF3SuHGdBs+LTM16mEAFADBBYBEky/vcaEj3W+pzX55GnBOU4vaJ35/K0QrY+Gl99T1+4GFXpbIT79XG6aSMGn2Vhd3vBCcLMKWOWoRQAEQ/JnWw9/xHk2EgLSAJelRljBtfCHVhpsk30G/eLjfUnisfzhC1k/IpG3MsDKYYyl0DvjYWJ3K4LXSj6Xw6oBjFeZmr2Wjo38qZavcK5XBeLl3ysbtsrxzqh3XScpmKWO2tQ5cEzf4m0UAHDnn4I233ey0Mgko0/mRsW5J7jN9k4tHO71Is9hJj4JP2FFs1+yPphegkJBHdAD/sMiDvc7DSztddO91sf6gmxVNshrfU//pZYVIusExM1GKAB0CYNbm8HYsC0rJ1NRKwzRMBBQ3j8zyEIE6IpBkASAtcSFMSVNbSEBJ/f6l54C+GlvPYcTBdzubAy8dz1lWOjx6rrYeiyCY6xAAOurnX0MCdVu7vKwYKKwHBUAdnS1vRQTihkBSBcCu4y4kW57v4Jphq2vBnUIHX+77wdMObprcXNiFef5R9ATETQD4+MiCSNKT5a/rQAEQN4/M8hCBOiKQRAGwrYEryvmOVPdWxuajGvsvJwKW7Ip+KEA3RlFe7565ntZMgXEVAD6GMgwjdkEBUEdny1sRgbghkDQBIMlcJFDOd2TNsJXsepsPRzv2X04EPL6CQwGF9vODlfqmX8ZdAEi9Ja6FAiBuHpnlIQJ1RCBpAiCztvlIS2fa33JEX2mfxFCMndd8eBaSepDvIsR6jusRYkkQACKkT1xw0PN2uM+WQ3qWv66j2+OtiAAREASSJABk3n2zjV1LtPyFy/qD0CqRfun+w2cd3NFksRRBSL/0WF1LBidBAEjdl+5yKQBIBUTAVASSJABe17iqXanjb8RviUCvZ376UvL3f+8/5dQtCU8jcA5yT3kmPi5htkkRAP/8ikcBYKrzZ72JQJIEgMwpD+LM43zs6OcBicYPQzI6zz3Y5+CrDUjIE7dnJOsw6MA1KQJA0kNzCIA8QAQMRSBJAmDetuYQAJL5TpKz6CAandd464wDmRIXN1KuVB5JJPREl4frr65OWOmYoPtlmpxkTAyL6/0LkoHjN2aDAsBQ389qE4FExQB09SZfAEjSosNnwhNMWIKqdL4kIpqwLP7kJasRytoGUg/JMigt96BkX+7426br6QFIAoZS/3GL2ANAGiACxiKQpB4A6TIv57STsk9I4eTF+JJ/oSjo7HGzS/7GEVvpti7tQXlNkwiYtELPVMCZm5MhVtvXUwAY6/xZcSKQJAEgBCUJW+JISoOVSWYuSPxCIcEm4buQbNTL8w6GW+l/0sqXLHaV8trrEAGr9ul5ThJYKdMKS+sQt9/bj3IWAFmACBiLQNIEgCyVGzcnOlh5JO++jK0ngfArlVGGXhoZIChEOvEVD4dqCJoMIwKkZ8FPkVsJiyD7JT5hMNto9H+PvuwxEZCxnp8VJwIJywPgO9+4O1Zx7A8v9iArsfllTvpW0hRL+uA7Z9avVSsBeROWe9hzIhiOQxEBX5yiPzBTkuw0UjgNJjBunYpsLAozAZIGiIDBCCStB0CIVJzW92MYqCaBaf/S5UHWKkg64Vcqv7SQJehO4hl0Bd6VEpWQpmRHDBMsuenqMrg3T61NrNwyFdhyJJpn9uY78Uu0NHoaIItp+e8SpwEaTACsutkIJFEAiOMSIpJpgbLMaSmB1PO3pFOVwDHJq16PpXwrEXMj9p9618GKXjc7FS9MNsHhHcADC70s6e84po+IZehl4nKv4li8DC3IeghhhEYtuB8772SX4m10TIBMmxQ8JPujX272AJjt/1l7wxFIqgDwHZhE1S/rcdH6qpcNWJMELFF8pEv/0U4v68glEE2moO09mXekfnlM3h4562DdARezt7p4Zo2H7y/3skMhDyzIPZNxiz2MX+JlBcOU17zskMLOY7kFaaLE7UCfgxe3u/j3lV52SOHJVR4WvOHWFFOgs1z7+xzM2pzrPZE8AVHYaek1vz3fw2Mve5ixqby9UgAYTgCsvtkIJF0A6HTQvBYFjWk2QAFgtv9n7Q1HgAKApGca6bG+eZunADCcAFh9sxGgAMg7QxIDsTDNBigAzPb/rL3hCFAAkPRMIz3WN2/zFACGEwCrbzYCFAB5Z0hiIBam2QAFgNn+n7U3HAEKAJKeaaTH+uZtngLAcAJg9c1GgAIg7wxJDMTCNBugADDb/7P2hiNAAUDSM430WN+8zVMAGE4ArL7ZCFAA5J0hiYFYmGYDFABm+3/W3nAEKABIeqaRHuubt3kKAMMJgNU3GwEKgLwzJDEQC9NsgALAbP/P2huOAAUASc800mN98zZPAWA4AbD6ZiNAAZB3hiQGYmGaDVAAmO3/WXvDEaAAIOmZRnqsb97mKQAMJwBW32wEKADyzpDEQCxMswEKALP9P2tvOAIUACQ900iP9c3bPAWA4QTA6puNAAVA3hmSGIiFaTZAAWC2/2ftDUeAAoCkZxrpsb55m6cAMJwAWH2zEaAAyDtDEgOxMM0GKADM9v+sveEIUACQ9EwjPdY3b/MUAIYTAKtvNgIUAHlnSGIgFqbZAAWA2f6ftTccAQoAkp5ppMf65m2eAsBwAmD1zUaAAiDvDEkX967FAAAEGklEQVQMxMI0G6AAMNv/s/aGI0ABQNIzjfRY37zNUwAYTgCsvtkIUADknSGJgViYZgMUAGb7f9becARa2vFHlgLCfG58FjDNcbK+FAvNYAPnLjnoeTvcZ9MBJ5T/6Pc9ruGumNUnAvVHoCWDT4Yhf//cvvdICM1ACKyDWXZ89sfhyF/Ew6t7XB0C4Kf19368IxEwHIGRk/GrPomH2W494rIX4IpZ5EGxkPzn3XcxvACY/roGAWDjrOGumNUnAo1BwFK4Eob85Vx7nUcBQAFAG0iYDRw/F14APLTI09EDsLsx3o93JQKGI5BW2BlWANw0GTh2PvktIrZq+QxNsoGDfeEEQHevi7QdLoYo63tszDfcDbP6RKAxCKQVZocVAHL+xOUeLiasBWSSs2ddKW4KbeDiZQe9x4cuAHYccTBmjpbWP1IKExrj/XhXImA4ApbCGB0CQK4hQwEUASSaQqLh93jaw6kQ4/9C/t9ZrIf8xW+k2nGd4W6Y1ScCjUFgWAf+QJcAkOt8r9PDodPxdHokIz4X2kDOBg6eGlrrv3uPq63l3+933v/sDHy0Md6PdyUCROBDlsJenSLg+g6gtctD95suet9xceKCg3f4IQa0gVjYwOEzDrYcqu0j8/xlrF+i/SXgT8uYf2HukQyW0gUTASLQQARSGYzXKQB4LQ2BUYVOkt91RJrzGjG0o7TCFxvo+nhrIkAERrThty2F/yVxk7hpA7SButmAjbPs/if/EIEYIJBSeK5uL34MWyKsO4mPNlBfG0hn8EgMXB+LQASIQH8w4M/pBOvrBIk38TbRBtIKF0bNwLX0vESACMQEAUuh1URnxDqThGkD9bWBlI07Y+L2WAwiQAQEgZZWfMyycYzOsL7OkHgTb8NsYMOHgGvodYkAEYgZAuk2fNpS4FAA4xQYNU8biMIGrshwY8zcHotDBIiAj0DKxoOGtUiicHS8JgmUNlBsA07axg2+n+GWCBCBmCJgKbRRBLBrmjZAG9BmAxmMi6m7Y7GIABEoQgC4xlKYqe3lL24JsGVEPGgDBtkAF/wp8q78QQQSgEBOBHBmgEGOmoKPLX7NNuBYNu5PgLdjEYkAESiHQNrGvcwUSGLQTAzsAWh+YXmJY/7lPCr3EYGEIdDShk9ZNn5EEqAQoA3QBmqwgQ0tT+P3E+bmWFwiQAQqIdDSio/0Lxz0sxocAFt4zd/C4zPmMy6yAcnwxyQ/lTwo9xOBJkBg5GR84mqugMcshSsUAmwN0gZoA5bCu+ITmN63CRw8q0AEakHgczY+LmrfsrHaUviAREAioA0YZQPvWxkslSV9uapfLR6TxxCBJkVAlH86g+GynkBKYUk6g32WwnlLgcMF7CYu6iamSEicSPhJSuGMpdBjKSyQKX2pdlynk/T/HzRs9eJ7fCGWAAAAAElFTkSuQmCC;" vertex="1" parent="1">
          <mxGeometry x="56" y="874.8" width="89" height="89" as="geometry" />
        </mxCell>
        <mxCell id="RpmGVlQQaQAQjmuWH_eU-22" value="&lt;font style=&quot;font-size: 31px; color: rgb(0, 255, 255);&quot;&gt;&lt;b&gt;&lt;span style=&quot;color: rgb(126, 166, 224);&quot;&gt;&lt;font&gt;API&lt;/font&gt;&lt;/span&gt;&lt;/b&gt;&lt;/font&gt;" style="text;html=1;align=center;verticalAlign=middle;whiteSpace=wrap;rounded=0;fontFamily=Architects Daughter;fontSource=https%3A%2F%2Ffonts.googleapis.com%2Fcss%3Ffamily%3DArchitects%2BDaughter;" vertex="1" parent="1">
          <mxGeometry x="617.15" y="844.8" width="60" height="30" as="geometry" />
        </mxCell>
        <mxCell id="RpmGVlQQaQAQjmuWH_eU-25" value="" style="shape=image;verticalLabelPosition=bottom;labelBackgroundColor=default;verticalAlign=top;aspect=fixed;imageAspect=0;image=data:image/png,iVBORw0KGgoAAAANSUhEUgAAAgAAAAIACAYAAAD0eNT6AAAAAXNSR0IArs4c6QAAIABJREFUeAHsvQmcVMW5Nq6JIBDRuETcEhU10RtNjEYTo0aMSxQCMo3ku1k0Jrk3+bLpDTPDDjMwM8zGdA+bilHBXQmy9CiLGjFxnQZ69ukzIC7MMCzT5P7vvVm8MVr/7znN0Z6m9z51+lTXw+/Hr3tOd9ep89RT7/NW1VtvHXEE/xEBIpB3BFZt+/Nxa1//z7PWbfvzResCB7/R9MbBG9c3H5zsbz74b/6tB/9jfeDgnKat4Vp/4OByfyD8YNPW8Cp/IPx0UyD8vD8Q/oM/EN7mD4S3+wMHd0X+hw/6t4b/fNj/QPgv/kBYJPj/l8O+jzIC4YNR5eI++P+HQ/d++lBdHkTdUEfUFXX2Nx/8KZ4Bz9LUfPAKPBueEc+ad8BZASJABIgAESACdiOwfJsY0vRa+HR/IHxZU2BgPITQHwhP9wcO1pviHQiv9zcPvOzfGu72B8L7/YHwPxMIciKhLoTr75vPDgyARXN4HbAxMWoOTwNmJnbA8LXw6cDU7nZieUSACBABIkAE0kZgTfN/n7h+64GvrN86MKEpEL7THPFuDT/k3xre7A+EOw4JeiEItBufYX9TINy+PhDetD6CeY2/OfwbtMWzgQMXb3rtv05IuyH5RSJABIgAESAC0QhARJq2hi9vah74vr85PCsy5T6w0R8Id/mTT5+7UTB1rBOWOLr8gYEN/uaD95pt2DzwPbQpHYRopvM9ESACREBDBEyRbz54RVNz+PamwMB8f/PBx/2BcCCy1p1wfVxHMS3EZz7oD4Sb/YHwY/7AwDz/1vBtiE+gc6ChIeAjEwEiULgIPPPy/3f8M28MXAqh928N1/gD4aZDAXKFKGx8psTBjelhYwY8DryCWZ/1gYN3rdsavv6ZrftHF24P4ZMRASJABBRHYFWXGOrfNnDJ+q0Hf+LfGl7sD4S3+AMDAxoG1qUndLkKpXa/N7m0xR8ILzI5tm3gEnBO8W7D6hMBIkAE1EJgbct/ftrfHP5WU/PBKZFAsIG2pkD4HxR7Ll04yYEI5wZaIxw8+Nv1bwxcC26q1ZtYWyJABIiASxHYskUc5Q8c/KI5hR/Z/45AvA+cNPS8Fx2LTDjQFAj3Iy8ClhD82/581ZYtbw9zafditYgAESAC7kFgXeDgZ83o+0B4kT8Qfv3/7Z1/LxPjy+9SrF3Igb/7A+HXmgLhRn/zwPc2vHHwDPf0ONaECBABIpAnBBBgFTO65xq2duvr+jkt0bMECFIVQhyZpy7I2xIBIkAE5CMAI4dUsJG0tuE1/kD4gAtHa3RA6IDkgwPIBvk0lg2e2frnC+X3Rt6BCBABIiAZgfVv7B9l5rOPrN/vpuDrN9plm2fV5vsj5ysM/My/7c+fk9xNWTwRIAJEIHcEVr3WO3x988A4bJc6lDkvH6Mp3pOj+ELjQBdiCJq2HhiLPpZ7T2UJRIAIEAEbEMAo38yoFzmd7r854stqxFdogsXnkeeE/e2xPx0I3PP8vkfve2nvZTZ0YRZBBIgAEUgPgXIhPoHUqf7mcJU/MNBKwafgkwPOc2D16wNi6eZ+UdPU9/fGjXteu+e5/p+vEuKT6fVifosIEAEikCYCEH3saT40tb+HBt95g0/MiXk8Djz+8gFR37RHzF/TK6rX936waFN/6L7n981e3tQ/Is3uza8RASJABAYjsGqV+GSU6O+NZ3x4jaJEDuSfA+sDYfHgi/tE5dpe0xGAM1C1tu9D34b+XXc/v69i+TZBZ2CweeNfRIAIxCJgjvQDA9f4AwO/48l4+TfsFFe2QSYc+P1rA6JxQ/9HTgAcAXNmYF3fB4s27e1Y/tzeXwkhPhHb7/k3ESACGiPwzOvhC9Y3D5Q3BcJvZmJw+F0KFDngPg6sfGmfqFzXd5gjAGegxr/n/cUb+7cuf65vssYmj49OBPRGANH7/q0Hf+sPhLfTiLvPiLNN2Ca5cGD1awPC+2wkNsCaCYh9rfH3/X3Jhj1ND7w48AW9rSGfnghogACm+HHGeSTJSPh/czEw/C0FihxwPwceeHGfqIiKDYh1AvA3Pvdt2PPOfS/0z8ABXBqYQj4iEdAHgWcDB07xN4encYrf/Qaboso2spsDq177eKdAPAcg+lqNvw9LBK/cvWHf1/WxkHxSIlCACDRtHRjjD4RXR84up2G127CyPHJKFQ6seyMslm46PEAwWvyj31es6RXeZ/v6lj+/59cFaBr5SESgMBFY1SWGmvn3m8NvqGKcWE8KKTngDAdWbNmfckkg2hHA+9qmPX9dtnnPA8uf33VcYVpNPhURUBwBM6ivOTzNHwj30Zg6Y0yJM3FWkQNPvHJAVK+Pv0sgVvyj/16wru8DLA+seH7fRYqbS1afCBQGAk1vHDivqTn8gD/AoD4VjTHrTCciHxzALoGFTZk7AXAIDgUNGktf2HNDYVhRPgURUAwBnBvubw4/7A+E38+HAeE9KVzkgNocWNccFo0b048LiJ4NsN43btjTd9+L/ZMUM5+sLhFQE4FnAwcuPrSN70MaYLUNMNuP7ecGDizbnJsTMH9tr2h4Zs++e5/ff7uaVpW1JgIuR2D91gNf8QcGNrjBYLAOFC5yoLA4cN8L++JmDrRG+um+Njy7Z/+y53Z/z+XmlNUjAmogsPb1/zzLHzi43B8I/5NGt7CMLtuT7ekmDtz/B3ucADgL3mf39N79wp7r1bCyrCURcBkCG4J7P+PfGq7xB8LvuclIsC4ULXKgcDlgpxMwf22faHy2v5u7BlwmLqyOexFY9VrvcBzM4w+E/0ZDW7iGlm3LtnUrB5bbtBxgLRtUrev7cMmm/udWrH370+61vKwZEcgzAk2BgfH+wMBbbjUMrBdFixzQgwP3PL/XlpgAywnAK04ivHvT3qVCiCPzbGp5eyLgHgTWbx34gj8wsJHGVQ/jynZmO7ueA81hsTjHLYLR4h/9fmHTnv+877k9E9xjgVkTIpAHBJq29Y9oChxcyL38FATXC0KAbaRbG61vDouFzyQ/Ujha2DN6v7ZPLNq0540VW7gskAfp4S3zjcAzzQeu9gfChm5Ghc9LISUH1OHAmjfCoiaLtMHpOgO1TXv+957N++7Mtz3m/YmAIwis2vbn4/yB8CJ/IPwBDaE6hpBtxbbSlQNPvnJAVKzNLm1wuo6A79k9O+7ZuPcsR4wwb0IE8oGAf+ufb/YHwnt0NSR8boooOaAmB2zdHrimN26AYfW6vn/e89ze4nzYZt6TCEhDYPk2MeTQ1j6O+rmWLCiCaoqg7u3WuFFSPECMQ7B4Y39g+TYxQppBZsFEwCkEIhH+4aDuxoPPT9EjB9TmwNOvD4iqdXKXAqwlg7qmPX9hJkGnVIr3kYLA+q0Hf+IPhP9Cw6e24WP7sf3IgQgHVmzZH3f63hJuO1+RQGjZ5n33SjHOLJQIyEJgyxZxlH9reDGNBoWDHCAHCo0DDc86sxRgOROLNvR3Pbx536dk2WuWSwRsQ6Bp23+f5A+EtxRap+fzUMjIAXIAHHjy1QGBI4AtgXbitb5pz389+MLef7HNULMgImA3As8GDlzsbw6/Q0NJQ0kOkAOFzIElm/oddQDgZCCV8PLn+ibbbbdZHhHIGYGm5vBEHuBDo1/IRp/PRn5bHFj9+gGB0/6cGP1H32PBur4P731u79ycDTYLIAJ2IeDfGr6N6XxpHC3jyFdyQQcO5GMWAM5AxZpesWTz3ofsst8shwhkjUBTIHwns/rR4Otg8PmM5Hk0B5569YDjMwDRswFLNu1dn7Xh5g+JQK4INAXCC6I7BN/TQJID5IBOHPA6vCMg2gHA+7s39z+fqx3n74lAxghQ/GnodTL0fFbyPR4HHnrJubwAseJv/b14c/9LGRtw/oAIZIuAf+vB38brDLxGI0kOkAM6cWBdc1hUOrwl0BL+6NdFm/qfy9ae83dEIG0EmraGf6VTB+ezUtDIAXIgGQcWb3R+S2C0+Fvvl2za82TahpxfJAKZItAUGPiBPxD+MFln4Gc0luQAOaATB1Y6mB7YEvtEr/c+v7cuU7vO7xOBlAj4tw1cwn3+NOw6GXY+K/meDgdwSFAiQXb6OpYj7n1u3/dSGnR+gQiki8CzgQOnrA+Ee9PpDPwOjSY5QA7oxoFav/NJgRI5F9Xr+/65/A97LknXvvN7RCAhAsu3iSHrAwf/pFuH5vNSxMgBciBdDuQrKVAiJ6De3/c/D7xijExo2PkBEUgHgabm8JJ0OwG/R4NJDpADOnLgdy/sdc0ygOUULN7Yvz0dG8/vEIG4CDQFwtcx6I8GXUeDzmcm7zPhwMN/zH8+AEv4o1+Xbto7La5x50UikAyBVdv+fJw/EH43k07A79JokgPkgI4cePIV9wQCRjsA1ev6/rls857PJrP1/IwIHIbA+q3hh3TsyHxmChg5QA5kygHzdMA1va5bBoAz4Nuwp+cwA88LRCARAusDB76ZaQfg92k0yQFyQFcOrH3DnTMA1mzA8uf2/iqRved1IvARAkKII/2BcEDXjsznpoiRA+RAphxY3+xuB6DW3/fXVavEJz8y9HxDBOIh0NQ88P1Myc/v02CSA+SAzhzAmQDWaNutr4s39d8dz+bzGhEwEdiwc+fR/sDAWzp3ZD47hYwcIAcy5cAaF2UDTOSAVK/ve3/ZlgPHUO6IQFwEmgIHf5wp8fl9GktygBzQnQOrXnX3EoDlFCzd1P+7uMafF4mAPxDeqntH5vNTzMgBciBTDjz5ygHXLwHACajx9/0dcV5UOyIwCIFnmg9cnSnp+X0aSnKAHCAHwsKtiYCskX/067LNe385yPjzDyLgDww8xY5MY04OkAPkQOYcuO+FfUrMAMAR8G7of4eKRwQ+QqBpW/8IfyD8V3b8zDs+MSNm5AA5sGhjvzIOAI4MvmfzvpM/EgC+0RuBpuZwEY0YjRg5QA6QA9lxoGb9HmUcAMwCLN24p05v1ePTf4SAPxB+kB0/u45P3IgbOaA3B1TYAhgdA2AuAzyzZ+dHAsA3+iJQLsQn/IHwPhoxvY0Y25/tTw5kx4EVL7rzJMBY0Y/+e8G6vg+EEJ/QV/n45CYCTW8cOI8dP7uOT9yIGzlADjRuUGv633IE7n5hz/WUQc0R8G89OIlGjEaMHCAHyIHMOYAUwAiqs0RVpdfFm/obNJc/Pr4/MDCPHT/zjk/MiBk5QA489JJ60/+Wk9K4of8VKqDmCKwPhNfQkNGQkQPkADmQOQcWPqPm9D+cgIZn9uzRXP74+Ez/m3mnp6EkZuQAOfDkq2qk/7VG/LGvdU19f6ECao6APxDeQWNGY0YOkAPkQGYcWLJJneQ/seKPvxes73tfc/nj4/sD4f3s+Jl1fOJFvMgBvTmw+rUBUbG2T8ngP8sZqFzX9yEVUHME/IHwezRmehsztj/bnxzIjAOLFUr9awn+Ya9r+4Tm8sfHX/tGZsSnoSBe5AA5oDMHVDn69zDBXzN4u2LF2l46ALq7AE+9ekDo3Jn57BQzcoAcyIQDDc+qG/kf7RQsWMcZAN31/4hH/rifDkCABjATA8jvki+6cuDBLeru+48Wf7yvWU8HQHsH4MEX99EBoANADpAD5EAKDqx+/YCyWf9ixR9/V/vpAGjvACzZ2M+On6Lj6zra4XNzpE8OHOJAc1h4C2Tq33IGOAOgvfwfccT81bvpANABIAfIAXIgCQfuf3Gv0lv+LNGPfp339G4GAeruA/z24bfZ8ZN0fI6AOAomB/TmwBMvH1B+z3+08FvvSx9/mw6A7g7Aj+7ZQQeADgA5QA6QA3E4gIQ/C9YN3j5nCajqrz9Z/iYdAN0dgEk+Q3AroN4jHI5w2f7kwOEcwFG/9c+one0vkZOCLYC3+gw6ALo7AB6fIRqe6aP3H8f7p1E83CgSE2KiBQeaw6Igsv3FJP+xHIIFa3sFbL/u+qf984ME//HwW3QA6ACQA+QAOXCIA8ueU/ugH0voE72WPPo2HQDt1f+II46AAzB5kSHWvDHAzk8BIAfIAe05cO9zhRfxH+0IVK7tFd9dZNABoAMQcQDgBCx6lvkAtJjapMBpL3DkeeJlnPteKGzxhyNQva7PFH8uAdADMGcAQISf37+LhpHiSA6QA9py4HcaiD8cgN+sfIsOALU/ggDE3/rPtMCJRwYcNREbcqBwOXDP84U/8of4I/ufZe/xSh3UHIFoMpQ+9o623j+Ne+Ead7Yt2zYRB9YHwmLZZj3EHw7AjCfeoQOgueYPevxoB+DWRT3isT/xeOBExoLXKSTkQOFwYN0bYdG4obCj/SH61v/q9X1i8uIeOgCDFFDzP6IdALwvfoSpgWnkC8fIsy3ZlvE48PTrA2JhgSb5sQQ/9nXq44NH/7D3mssfHz/WAUBmwPtf2MulAAaDkQPkQEFyALn9CzW9b6zoW3/j6F9k/ou191RAzRGIJQT+xo4ArI3F85x5jbiQA+SAqhxYsWW/mL+2MNP7WmIf7/XOhyKJf2Ltvebyx8ePJYT1N9MD08irauRZb3I3lgNrmwfEkk36rPdHOwFVh9L+WrY9+pUKqDkC0WSIfv/dxQwIjDUi/JvCQg6ox4EnXzkgav36jfrhBODQn+8v3XHY1L9l6zWXPz6+RYR4r794YJfwN6vX4Wmk2WbkADkADiC3SYWGU/7mDMDaXvOcl3i23bpGBdQcAYsIiV5r1/UyFoDxEOQAOaAUB1a/fkB4n93z0Ra46ClxXd4j538iu25d11z++PgWERK9TmrsEfc9z10BHFFyREkOqMEBBPpB/HQR+njPWbO+97A9//FsPBVQcwTikSL22g+W7hDYOkMDqIYBZDuxnXTkwOrXBrQf9cMZqF7fK267O/G6f7R911z++PjRZEj2/t9+t5NHBnMamE4gOeA6DqxvHhD3/2Gf9qN+iD9mPn714MeH/SSz6fiMCqg5AqkIEv158aNvMSiQAuA6AdBxtMtnjszyPPan/dpG+B829b+2V0x7/N2U6/7RNl1z+ePjR5MhnfdIJ8kkQZxipgCRA/nkwO9fGxCLN+q5r/8w4T+U73/Oqt0ZiT/sPRVQcwTSEf3Y78x+6l2OAjkTQA6QA45zAAf4LH9+r6jQPMgv1gko/33m4k8HQHPxx+PHinu6f1eu2e1458/niIP35oiXHMgjB5oHBKL7caJdrPjp/nfF06m3+yWy65RAzRFIRIx0rtMJyKNB5OiTDqgmHFj50n5Rs17vPf3JnJx0bHWi72guf3z8RMRI9/rMJ99lYKAmhpgjYDp8TnLgkT/uF3VNFP644r+2V2Q77R9t26mAmiMQTYZs35c++rbAVhwnjQPvRTEiBwqQA81h8cifDoiFz1D44wr/ml5RsaZXzHoqs2j/RLZdc/nj4yciRqbX71r5lljzOp0AilIBihJneKQ799hZhKn+Ok0P7Ukk9rHXsc+/5NH4R/tmarPxfSqg5ghkQ5pEv/np8jfF4y/vl24sKLIUWXKgMDiwrjksHtzCNf5YoY/3NwIgf7liV8Zb/RLZazoAmos/Hj8ZObL57HtLdpjbdGigC8NAsx3ZjjI4sOaNSPY+RvWnd2ZBjb8v7fS+mdhtSqDmCGRClnS/e2tjj6hay1MEZRhOlklBVpkDT746IJZt7mfa3kPJe+KN9GOvLVjbK2BT07W/mXxPc/nj42dClky/O/XRt8XTjAvgkgjX0LXmAAKEH35pv2jQ/HjeWGFP9Xfl2j4x44l3pAi/ZcupgJojYBFB1uvtd+8UD/yBxwmrPGpj3TnrkA0HkK733uf3igXrmLwnldjHfl6zvk/82/1vShV/2HzN5Y+PL0v4o8vF9NX81buZL4AjYa1HwtmIqGq/Wd8cFg//cb/wbuA2vlhRT/dvLJ9OXixnyj/aLtMBoP7bHgQYS7Dov3+94i3xxMsHKAJ0BMiBAuPAk68cEHc/t1dUcbSfdari6nV94j8etm+LX7TtTfSeEqg5AomIIev6dxcdChBs5rSqaqM71pecjeYA4nvu/8M+7t3PIKAv0SwAAv2+v3SH9Cn/WLuuufzx8WMJ4dTf//eBXeKRl5gzINqg8j0F1u0cWPN6WKzYso8BfTaIPpwBrPXf9ZCzo/5oG08F1ByBaDI4/X7yIkPA82UaYQqf24VP5/ohw+eDL+4TXkbxZz29Hzvyr1jbJyrW7BbfXWQ4PuqPtvOayx8fP5oM+Xr/43t3irs3caeAziLDZ3eXE7j69cjxu40b9pi552MFjH+nl8AnHk4Y9f/8fnsz+mVru6mAmiOQLXFk/O6uh94Sj/2JQYIUQ3eJoS7t8eSrB8R9L+zlQTw2Te/Hij+C/KY9bs8hPnbZX83lj49vF5HsKgfLAjjmkgcLUQR1Ed58PSfy8OPIXWTmY0re7Ef0sUIf+zcO8Cl/erf4P4vzO90fz0ZTATVHIB4p3HDttmU7zHShv3thn8DIxM9dA9w6V2Bb5/Ih/KtePSAe+MM+4dvAdLyxQm3331jnX7CuV9x+z868rvMns+eayx8fPxk53PDZj+990wwUxP5iJBfBtiPTIaAY0CEgB1JyAIfuIDEPRvlYe7Zb5FhenJmDtYju7xX/dp97hd+y7VRAzRGwiOD2V2wbjDZgOB1r6ea94qGX9gsYuXyMpnhPLlO4jQNYOoPgIylPXRMF32kHxU0BfunYdM3lj4+fDknc9J1fPLDLnBGI7dh1/j1i2aa9YuWWfWLVawwkdJswsT5ynCXk21/50j6xdNNeUeun4MfaBUf+xojf3yd+9eBbrp3qT2TDqYCaI5CIGG6//u+/22mur81fG9/oVa3tE40b+s2o5sf/dECsbeYsAUVYjgg7hSuC9p54eb+4/8W9YvHGfrGAU/p5XdKoMBP59IqfO3Bojyx7rLn88fFlEcupcn+6fKc5I4BI21Tefl3THrHsuX6x8qX9AiMnBhaqLYhOCW9e7tMcFgjYQ9Y9cHZhExLHpOZ4qj7Az3PHsGJtr6ha1yt+ep/80/pk21EqoOYIyCaYU+XfdvcOMW/1boGTtNI1cpXrekXDM3vE3Zv7xYoX9wscaIJRVl4MPgPatMUdmTCffGXAXL7C2r33mT3mDph0eczvpd/nc8EKxxpD/H/k4qj+TO2t5vLHx8+UMG7//uRFPWL6E+8MChjMqNOv7TUPN8EUK7YgPvqnAwJZ0egU0DGygwMIWH385chWvKWb+kU9AvUSLGNlxFvODqTt+GeKKwL7Zj31rviuC/fx52qPqYCaI5Argdz8+/94+C1zO046ywOpjAK2Ifqe3SOWbd5r5kV/9E/7xWosI3DkTgzicABO42N/2m9yBVvwGp7tFxhBpuIZP3dmNJ8KZ+zhr17fK5Cd1M02Lte6aS5/fPxcCaTC72+/e6eYu3q3FAMMQ1Hn7xOLNvSLe5/fa67ZPvHyAW5NjCOKheYsrXkjbC4bIaZk+Qv7xJKN/WYa3UoKvbKODjIilq/eLWAzVLBtudaRCqg5ArkSSLXf37niLTOAB2t5qUYBuX4OIah/Zo9Ysmmv6Rw88OI+8cif9puJjJi7wP1LCmvfGBBPvXrAXAbCaXj3PheJvl/4TJ/ALpNc+cHfy++D6WAciebvE799+G1xq8996Xpl2ljN5Y+PL5Ncbi4bqYbnrtpt7t9Nx0jI+A6WJrB3G8esYj34vuf3iRVb9otH/3jAjACnkyDJSWgOm2dNPPnqgIk1Iu3v+8Nec3kHp99htwgF3h3iLKPfWWVibX/O73eLHy7TY7Qfzx5TATVHIB4pdLv209+9aU77IW+3ZRzc9Iq1Y4gSHAUEJyJS/L4X9pnryw+/tN8MKsOWMfMAJQ3zHSCKHs+O0TqWX5AJD6KOtNFYlkHcBoS9/pk+7p3XPFgQU/yVa3rFz36n/hY+O+y05vLHx7eDRIVSxiSfYQb9IOBP5YAtLD1gdIPYhIWHHAcIIJYiEJB273P7zDVrCCS2PyKdMk6FQ8IkJJrBWQvWf4gqciZY/xH4iKRKH/1PkIZ53RtR34n6PoLjUNaq1wYi93jlgHlfBMxBuCPivd+sF+q3/IW9psODTHeLN/Wb50EsfGaP+Wx4RmzldJOzxrq4rz2wZx8zOnc+pN8UfyrbTAXUHIFUBNH184+cgbW9HDVqPmqkqLtP1FO1CfKBYLRf8tg74tbGHi0C+rKx1ZrLHx8/G9Jo95vGyMwAgoWqmH6VI246RK7kAFIjL1jba4r+5EU7KPppBDRSATVHQDsxT6NTJMMEUcK/WbFLzH+6V1Tz8BVXCkGq0SE/V29En6jNsAxU8XSv+PWKXdpF8CezU+l+prn88fHTJQq/F3970O137xAzn3jX3E3A/d+FIyyJBIfX89vG2L6Lk/fm/n63+PG9+kbv22WPqYCaI2AXkViOYaYKLX70bfM8Aqw/UizyKxbEvzDwNyP31/YK9K3vLorviNP+ZIeL5vLHx2fHya7jpIMbDiia9vi75rqkyrsKKKSFIaSqtCN24dSs7xWzV73LUX6OS5ap7BQVUHMEUhGEn9vnIPz8d2+KOUg+hGAlbl/jDAmDCU0OwDmuXtcr5v7+XfGz+3cxeE+y6EfbdM3lj48fTQa+t0/sU2GJbYY/Wb5TTDdnCHDwCJcMVBmhsp65zYjAAcZ/jPAh+OgLqfoLP5eDERVQcwTYseR0rGxwxTnj0x5/x8xUZkY3O3BeAcUsNzEjfsnxQ7praw0fy2HgeDZ9g7+RY6c0lz8+PjuWnI5lB66TF/WIXzz4lpj95LvCMqTIRUDRIQau5MChCP3qdZEo/d+sfEt8dzGT8NhhC2SVQQXUHAFZxGK5chyL7y3pEXc+9JaYu+pdUb22L3KYEU+mo1PksGOIY7ARqGeK/ard4q6HdonvL2XyHdXsnubyx8dXjbCs7+GOBWYKfvXgm2Lmk++aWxBxwiB3HXCWwK5ZgkhUPo5A7hUzntotfvngLqbXLZC4BSqg5ghQUA8X1ELB5PvLesSvH9xlOgZIoIK1WAYb0jFI5BhUHhrBqoRZAAAgAElEQVTVI50uEu389pG3xe33cFRfKPYg3nNoLn98/Hik4LXCdQrQtt9f2iN+vXKXmP74O2L+07vNadwaf6/ASC+ROPB6YTgO2H5qbkNd32u2/fQn3jHT6IIT7PeF3e/jtS8VUHME4pGC1/QzBFabf3/ZDvGrB98S0554V5Sv3i0wKrRmDnCkKh0BdzsCaCOkyo1E3veZbTj9iXfFL1e8Jb5HkaeTE7N0obn88fEtw89XfUU/k7b/3pId4v8+sEuUPvq2mLPqXYFdCUjiAsHByNKcReD2RfsdJRxLbWbIi+CM4DtgjzYoefRt8fP7d1HgY8QtE17r+l0qoOYI6Ep8Prc8hweJXX50zw7xyxW7RMkjb4uZT70ryn+/28xvYGZ9O+QswGnAEa7Y4qjbzAKi6D8SdH9E1DE9j1gNzLzMeioi7Ai4w955nEJJzhIDuzmgufzx8e0mFMujkcqGA/+6uEfcce9OgXTJv1m5S0x55C2BqetZq941A9LmPR0RR4imKZymaPaKWjgTmPI+JKLWcoU5I+HHjESvuYyBpQz8xxQ5xDeew4HTHK3vRb/CSbHKxSyH+f/Q/bAVDv8ROId7QcBR17mrIiKO5DcIpsMz/fz+N83c9v+6hIF12XCEv7HftlABNUeAncr+TkVMiSk5QA6owAHN5Y+PrwJJWUcaU3KAHCAH7OcAFVBzBNip7O9UxJSYkgPkgAoc0Fz++PgqkJR1pDElB8gBcsB+DlABNUcgX51qXENIjKntFtfWdomxDSFGODPKmxwgB8gBhzmgufzx8Z10AIp8hri8slOcNL1VDCkOfvy/JGhe+1pVl8B3nKwT70W8yQFyQFcOUAE1R8Ap4o/3hsRps2KEP9oJOPT+MzNaxbdqu+kE0BEiB8gBckAyBzSXPz6+Ew4ARvWnzGz7eMQfR/ijZwSGFgfFOXPbxXe4NEADKNkAOsF/3oMzDG7lABVQcwScIOaX5nekLf7RjsCnSoPiKxWdYqKXBsSJduI9yDNyIDUHbm8IivraJ8SK6mViRfXd5vvbvEElnXXN5Y+PL7vD3+INiU+VtmTlAFjOwKentYgrqrqU7GCy8WX5qQ02MSJGdnDgx96tYnPlXPH+3BvFh3OuG/Qf1zZVlYk7GrYpZaeogJojYEfHSFbG1TVdOYm/5QTgddTMVjGmhvEByfDmZxQ7csB+Dty1cIs4UHbrINGPdQLw9/6yyQLfVaUNNJc/Pr5sol5ckd30f7Twx74/Y1YbAwW5Nq6MkZXdx1i+/YIfjSlG/umIv+UQwAlQZSaACqg5AtFEl/H+ovmdts0ADHIESoICjsB13DFAIaQzRA5I5ACm/S1xT/d1Y2W5Em2iufzx8WWIfnSZ2Pc/SLhT7ADI+LtwBGa3iWvpCChhcKK5wfdyR67EN3d8EfAXb80/lSPwjzk3ih96W1zfJ6mAmiMg20iMXdgthpREJf2x2wGIKm/UjFZxZXWX8HDXgOsNj2zesfzcxY8YGmaEfyqxT/R5Xe1Tru+HmssfH9+JTn76zNQJgDIe+UcJf+xvT5jeamYcnChxWtAJ3HgPihg5kF8OPFS9NOPpf8shWFm9jA4AJdbdCHh8xnuyjcwNdd1iWEluWwFjRT6dv0eWtogL53WIsQt51oDsNmb5+RUq4i8Hf4i4JeiZviJHgMvb5W/uVifWTjoCHl/PPidIin38RycZtacj6Nl+B/c9y4wTYC4BJ9qa95AjRsTVeVzrap/M2gGorXvS7Q5Av3SB4Q3cjYDHZ/Q4ZVgQqIekPtkKuR2/O3F6q7ikslPgbAKnnpv3cd5wE3NibgcHkOGvYIMAG42Qu9WJtZOOgMdnBOzoKOmWgbS+F1d0iuGlzgQGJnIahhW3iM/NaRNIVMSgQYpFuvzl9/TjCjL8ZTr9v6FynvsHGI09r0sXGN7A3Qh4GkNr8mHUsC5/9pz2vM4GWM7B8dNazViBm+qZZTAfXOA99RNVldocSX2Q3CddJ2Bf2XfFHV4FUgJ7jdXuVifWTjoCHl+oPJ+d8arqLnHC9PwuC1iOAE4hPHVmq7isqlOM50mE7h/BcJcH28ghDiC9bzpOAMT/TnVSAc+RLjC8gbsRKPKFPPl0AHDvIm9IfLWyUxwz1R2OABwC7FrAEgGCF29hXgEKjUNCk+++yPsnno3BqB4Z/pDkJ3Y2ANc2VpWrMfI/xOUir3GLu9WJtZOOwMTFO89xS6eH0OLo4OE5nh5ojejteoUzgGyDyGo4gc4AnQE6A1pzABn+kOQH2/zwH+9VyPoXa+cn+kJnSRcY3sDlCAhxpFNbAWMJmOjvcQ0hcX55hxjmUAbBTBwFBC9+dnabOWMxbmHi0UKiZ+N1YqY7B25f0irqH1srVqxeKVY8vdJ8f9uSVq2dijxwov8IIY50uTqxek4g4PEa9+eBgCk7/LiFIXGB6Qi4Z2kg1llA1kHUcQx3E6RsTzdyjHVyziH78bLt4rmNDeKfrbcJ0faDQf9xbfPGBnHH0u3kkTMzTPc6oS28hwIIYC3IzYYQOwY+X9ael2yCsYKf7O+RU1vEuWXt4soFiBtgngE3c4p1c074gfVd970sBpp/MUj0Y50A/H2g+Zfmd9k+cttnUkPPWAWkiVV0AoHJ3t7hHp/xV7d3OiwNfHFehxiR5xwCyZwA6zMrbuDSik7x7Xo6A27nFusnT3Aw8k9H/C2HAE4AZwLktYfHZ/zljvK3hzmhLbyHIgh4GkNPqGIEJzREkgmNnOrsIUOWuGfzinMJsKvg0spOcUMdHQJVuMZ65i5EmPa3xD3d100bvFwKkLQUUOQ1HlFEllhNpxC4dVHoG6oZO5z2d3lVp/jMDHUcAct5wHIBEiFh+yMTEOUuMqpxV5f6IuAv3pp/Kkfg/ZbbxQ8ZGCjFCZro7bncKV3hfRRCwOm0wHYawTE13eLMOe3iaBfuHLBEP9krZjPoENARsLNPuKEsRPunEvtEn9c9uk6KALoBlzzWYZtCksSqOonARK/x0zwS05bOjoBBxAlghJ1McN3+GZIinT6rzUxRjKBCbjmkc6Bi33zo6RVZOwArn15pi01QETdZdZ7gDf3ISU3hvRRCYETJ9n8vlOloZBfEQT9Ydx9aorYzYDkrcGqQkOjCeR3iyuou8R2mK6ZASFontkuAIOKJRvipriNHgF31YDmGudQ4YkrwJwpJEqvqJAJDSoJbMY1eaJ3l5vrIrICbUg1bop7Ta0lQHD+tRZw9t908YfGaGjoFhcZd1Z8H0/iphD7R57VcArDVFmMwNGRKcLuTmsJ7KYLAUaXbrzbFqCQoxtQW5ql4RT7DTNhz7tz2vB9HnJPwFyc/ShnbJEfNaBV4Thy9jJmQsZwtsNWYqi7MTtUfGf4YBJj/5atra7vFECs+asr2rysiS6ymUwgMKW55yhKlk2e0Ck+B57xHoh4c9IMp9UJZIrDaL9ErHYP8G2KnhNdN99mcxTbAjc/66LDZtbzjNcwBwUd2YUrwMad0hfdRAYHybSOGTAn+9SOCFAfN7WluMiIy6zJ2Ybf48vwOJbcTRrdZtu+PmxbJYHhDXWHO/MjkDstO7VQhqQ+S+ySa6o+9vr/5V+KOpUE6ADY5AMg9Msg2TAn+9YjybSNUkCbW0QEEhpZsLxpEkOKgOUVeKAGBmRjpm+pD4qL5HeLE6erlFohtw0z/HlocNHdQIIAyE8z43dQiqDtGSAWcjhMA8b9z+cvkn03iD3s23Jr6j1o6/OSU7d9xQFp4CxUQGFLc8mA8sRg1s01g3VxX44UUvjieeNTMVgFxjIdRIV47r6zwAkF15bCbnhujemT4Q5Kf2FE/rm3a4OPI30Z7C9t9yswEA5kp2+9TQZtYR9kIlItPDCkO7kskZAgic5MRyVddsOXu8spOM2ZA1WRDido43nXER+QLa963sJ1uZPjD7gBs88N/vGfWP/vbHMua8fo2rg0tDu494ggeByxbXl1f/tGlLeclIgmuQ+yuqeHacLQoTfCGxDcWdIlz5rYrn3AoUdt/elpLwQeCRrcp39svQMQ0f5hiJ9fRKWYth/1262jXCxQrKBeBoVOCkxKJgHX9mKlBgUA5duj4Hfr6um4zbuCUmW0FtVTwrQLdDkoex+cxcSkMXG5eGBLHlKZOfja0uGWiXHVh6a5HYGhxcJ4l9MleT5reKm4p8K2BdhjACV7D3Hd/QXmHOAmHFMUJwEmGs5s+Q/SwHZiwjMIQFraj+9sR25vTPRztqCktZa4XKFZQLgJHTWlZk67onDm7XeugwGwMIM4mQOzA6Llt4ljFzif40nw6ANm0OX/jfqEsxDZC0J+Z7S/F1L9l748qCa6Wqy4s3fUIIP2vRYh0XrHuXehJgmQaB0zP4Qhj4Hj8tAQRuml24HTaK5fv4KhimViwbAolOWATB7yGOLesPWHQX3w70PKG6wWKFZSLwJDi4I745Ei87e0LZR0UBpu26+CUvysWdInzyzvEKTPa4u7ZzbR97Pr+DXXMB0CBskmgbOovbI/47YElx8z7/XZDrrqwdNcjMKQ4uD9z4gTNE+nYGeN3xlxwQRIeCC+WDT5f1m6m8BxWnDqgJ5s2TPYbJELiTI/97ZsLN/hbtkc8DuD482R9OdFnka2ArpcoVlAmAkOKg+8lIkiq6ziWNh4hec1eQ3WLLyRwmMdXKjrF2XMOLR3IDC4sCYqruPWT3Oao3fUcgA1OZaeTfP6eTG1h2QogkGtSG4xSdc4WmC9nZ7w3JL5Z0yUQqDd6TrsZ+Tu8NPGyTRIjcJgBoWNnrwOXL47wvgXcjl5DnJ/xmv9g+zCspEUoIFGsokwEsMc/E3GI992z5rSJidwimP/RgtcQN9eHxJUL4Bh0iNFz2iKOQZqzBcNLW8SlzPyY/3bkyJttkIQDGHDB6Y9nizO5NnIqHQCZ2qpE2cj4lglpEn0Xx+piDzxHHS7EwGsIHApiOQZnz203cxSMnNoqRpa2mMGHF83vFGMbGPRH/rqQv0nEULf2mtBgiNNntdlis7ELSQmRYiXlIZBu0ohEwh99HYFjEBrdOiWfl6JBDpADsjmAbKxIyBZtc3N5f/IMOgDylFWRkj87K/eppGgSfqq0xVyblt0ZWD4NLjlADujCgWtqutJK7xtti1O9R9IgRWSK1ZSFQI5RpHG9URydizVoXTonn5NCRA6QA7I4gJTcuQZrx3MGYPtl6QrLVQQBnGoXjxx2XMNaM07Ok9UxWC6NLjlADhQqB8Y3hMRZs+1Z749nz6+s7qIDoIhOS6vmTfXd0hwAkO7YaS1iDPeU0wliIBc5QA6kzQGcxGlXgHY88cc17BiSJiwsWA0EkO3Njq2AiUiG61gSQLYq5gvgaK1QR2t8LnLbFg54DTPh19GSzwPBFkDYfjVUirWUhgBIi4Npkgm4XZ+dNqtVIJLVlo7C0QRxJAfIgQLiAEbkp860L8o/md3GwUGww9KEhQWrgQBIgLWgZGSx87NhJZEAQc4GcMRER5AcIAcMcySOQL/haSbsssMeIycIHQA1NFpqLUGCW7whAWG2g1jpljFqRqu4sZ6zATSAFEFyQF8OIAbLqVG/ZZvhaOB8EToAUqVVjcIt43PmbGeWASwS4hW5qLFdkGmE9TWAFv/4Sg7oxIGJPkMg+2Y+TvrE7iwLazVUirWUhoBFBETqR4uzk+8R7WpNSVn14SsFgRwgBwqRA1dXd4kTptuTgj0bO40dBhau0oSFBauBgEUEvNqZFjgbYp4xq01gSiy6TnxPESAHyIFC4MC360MC2feysY12/eakGa2D7KsaKsVaSkMgumNdVuVcMGAiQmNKDFsGebAQjX40N/mefFCVAzjA51/KO6Rk80tkRxNd/1pVJPjPwlKasLBgNRCwiIBXrEsdN82ZbSiJCGpdx5kCjA+g0Y/mJ9+TDypxALFNiO7HiZuWXcvnK2w7bHw0hmqoFGspDYFoMuD916s6XUFWq6McO7XF7ERFTCk8qOPGthv/HmzYiAfxyBcHsMX5iqou1wymLFuKOsViIk1YWLAaCMQSAtmhsEXPIo1bXk+Y3mrmKzisvjEeLT+n4ScHyIG8cMAbyamSzwC/RPYaR//CtsfiooZKsZbSEIglBP6+trZbDHE4L0Ai4sZeP3F6q7i8qlNwRuDwzhyvLXmNOJEDcjmAET92MeU7iDrWVn70d0lQjImK/I/mgzRhYcFqIBBNhuj3TqUH/oikGea+xnoW1teYUVCucYvmBN8Ta3LgYw5YU/3HT3ffjGm0XT03at9/bPupoVKspTQEYglh/Y3IVbcEBEaTOfa95QhYma2s+vP1Y0NFLIgFOWAfB2BrMPg4bpo7gvtibWL036hjsiPZpQkLC1YDgWSGYUxNl3mSXzSh3Pr+mKkt4oLyDjF2YSTFZbLn4mf2GUNiSSx14cC4hYa5Mwm2xq12MLpeOIX1mhRHsauhUqylNARSdd4vlDmfIjiaxJm+xzGaSLaBOIZUz8bPKV7kADmQigPX13ULTKPnI21vpvYv+vvnl3ektIHShIUFq4FAKvJjL+spDh1RGU1eO96j3lcs6OJZA9wpkdIQpuoH/FwvRwH75WE7TpmZ38x92dpB7OSK3fMfj8NqqBRrKQ2BeKSIvYapr5FT3R3okqyjHDM1KDCTcUMdlwdi25Z/6yVsbO/k7Y10vVhKhM1IZlPc/Blyp4xrSM/WSRMWFqwGAukahOvquh0/MlhGJ0MubATw4AjkdJ+d30tuNIkP8VGZA5jlRJKc0zDad+n253RtIU5YjT7sJ1W7qKFSrKU0BFIRJPrzry/oVCYoMFWHQarhz5e1Z9RZorHge4oeOaA2B66t7TJtAGxBKnuhwucI+ouX7S8ZT6UJCwtWA4Fk5Ij32VcrO5X3kmM7M6bMMO2H6b94z8xraht6th/bz+LA2IXdZiQ/jiCPtQNK/10SFJdWdGZsv9RQKdZSGgJWx8jk9eKKjsLqPFYSopKgGDWzzexI30lzDS0T3PhdChE54DwHxi0MiUsqOiMpzhWf4k/kpODgtGy4JU1YWLAaCGRDGvwGR/YmImMhXB9a0mI6A1+p6BQwINnixN85b/CJOTGHA4+U4WfManPFMbwybeKF87ITf/QTNVSKtZSGQC7GstCdAKvTYm0NMwPwsm+qZ36BXDjD31KcZXEAScAQ4AvRR5+1+m8hv8IG54KnNGFhwWogkAt58FuMkHXpbKYhKQmah37A68bOiHgnbOWKKX9PkSQH0uCA1xDX1Xabs5HmQTwFOr0f14EpCYovZ7HmH8srNVSKtZSGQCwhsvn7a1VdBT/NFrcTFgcF0oKePbfdjL5NlnM7G1z5mzREgEmOchoBqsYxbN+9uqbLzOsxUpGUvIlsR7bXMeC6rCrzgL94bS1NWFiwGgjEI0U213Ac5nCdPPA4U4xIFXr6rDaBIEkmHaJ4Z9OP+JsY3ngNcUNdt9mn0LdUS8ebrcgn+t3w0qC4qrrLNqdPDZViLaUhYKfBQc5sFU7IStS57L5+TGmLeS4B1iVvZiChbUbLTs6yrBjBdcGMCjKPYj878u/rOsqPZ4uQjdVcdrSxjaQJCwtWAwG7DSCib09VNH92vE5n5zWcG47kQzBuY7nNkA6BjYbc7n7sZHkI3kOSsfPKOsTx09RNOW6nrYgtC2cSpJveN5O2U0OlWEtpCGRClnS/W+QzzMQ6sSTm34MjkxE/gJMLMUOAaU4GFLpvNJou5/m99NsOgm+N8E+Y3lJwicXstnOYCUG6YhkckyYsLFgNBGSQyirz8spO7eMCMjEGcAjOnN1urneOqe3meQUcIUsx+lb/dOL1Fq8hxtR0iS/P7zCdXU7pDx4EJLMPw0tbxNcW2LfeH6+91VAp1lIaAvFIYee1m+tDYpSixwkn65xOfIZoX4yQsMsA2y2x5QmzK3a2D8sinnZyAHkykIAHp28id8bRmgcGZ2snsK3RidTk0oSFBauBgJ2dP1FZEC3sm9cqX0CcXQLZGoPo32FUgPVAxBJgKxCCgtI59ztR2/A6HYBsOADOgXs4GwRcPGVGG2f77OjzJUETT6f6tBoqxVpKQyCbzp/tb66u7haIZI0WNL5Pf0owEVYYZZ04vVWMnostiJ3imzXdUgKGsm13/k5tJwNR+d+s6TKXpkbPaTO5xpF97v02tj8fO63F7LtO9hdpwsKC1UDASbLhXlgTxMl7nA2w34DEGpQRpS3ipBmt5hIC0hgjV4OZylhSQJHTXOL97HUsxjcYArEnCErFFP5pM9vEyAI5Kje2b7jq75KgueUxH4nE1FAp1lIaAvkyojA03PIj3wmIZ+hGlLSY6YzPmtNmplHFmu21td089EiD+ApsJRtT0y0QoIs88uAA1pvBiXhc4TW5ffS4aa2Oj/qjbb40YWHBaiAQTQan3yOtJ2YDOJ0o18hkYsQhBCdNbzV3I6BtLqmIzBxgm+J4L09FdLqPZHq/8Q0hgYRcmO1B26ENsbMEbYr4kUy4wO/K65dHFwfFv5S3i1t8+e1TaqgUaykNgUwNjIzvI9oVJ3jR4MgzOHZhCxHBzoQzZreJ8+a2m8Gdl1V2mYID4UGCI+5UsHdqHn0OmGL/vCXuCABFYO15Ze1m30GbUODd33/QD0+b1eaaVOHShIUFq4GADEHPtswrq7sEpsTsEiuWkx+DOLSkxTwkCaNOOHbnzG0XF5S3m8cpI2r8G9Wd4pqaLtMIQtScinjOlpcyfodnxrPjzAhgAUyADWI1zi9vF6PnRIQdGGLvPDAln/PDZ7tw//S0FjMBkgw+ZVumGirFWkpDIFviyPodpsQwstH9YCG7jI4q5aC9sUME6ZKxJo0AtM/NbjOFENvMMF0Kcby0IiKUyCSH/9hZgtPhvlXbbeZJwGwSAh0hrghqO+x/kmUMLHEc9v2GiFCjTJSNXAy4F+6Je1v1QOAc6oY6oq6oM3Zl4BnwLHgmPBvEHAe6qNIurGfubYX2vmh+h7RsfrnYYmnCwoLVQCAX8sj8Lc4UYHxA7saHBpwYkgP54QBim5DG183nfqihUqylNARkirgdZeMUPXQiToHmx4hRPIg7OZAZB7DFGWd8mFtuXb6zRJqwsGA1ELBDpJ0oA1HoDBTMzBDRcBMvcsBBDpQETRuFuA4nbKId91BDpVhLaQjYQSIny0AU9NlzOCNAw+6gYbcjxSvLKNi4B4z4sSsGsSFO2kI77iVNWFiwGgjYQaJ8lIHpNXNpgIa1YA0rnRw6OW7mgDXVfyOO8nb5VH+i+qmhUqylNAQSEUOV65YjMKyY26TcbCxZN4p5oXAAtgaDj5vq1ZnqT2TPpQkLC1YDgUTEUO36uIUhcwsWzxun0BSK0PA53MXlY6YGzZ1JsDWq2cdE9VVDpVhLaQgkIoaq15FgBXuzT57BhEIUEHcJCNtDzfbASZvI85DvtL0ybLI0YWHBaiAgg1RuKfOamm4zEQvPGlDT8FIw2W754gBy9SOJE7I0usWeyaiHGirFWkpDQAap3FYmzjO/uKLTzGGfL4PC+1LMyAH3cwDpepHNETbDbXZMRn2kCQsLVgMBGaRyc5lI5YoAnmHMrc7dA9xBQg4UB83TSJG4B+mdPV49hN+y0WqoFGspDQGLCLq9ItXwVyo6zRztHJm5f2TGNmIb2c2Bk2e0mTYAtkA3+2c9rzRhYcFqIGARQedXpBvGtB+m/+w2MiyPwkUOuIcDOHAKZ4zgYCedbZ717GqoFGspDQGLCHw1zOm/MTVd4tyydvGpUjoDFC73CBfbIvu2OGZqizivrF2MQaY+zab4U9l1acLCgtVAIBVBdP28yBsScAZwrCsMCA1w9gaY2BE7pzkABx4pw6+s7nLlMbxusatqqBRrKQ0BtxDRzfUo8hmmM4Cpw+OmMb+A08ac96MDkQ4HkAQMAb4QffRZN9sUt9RNmrCwYDUQcAsRlamH1zAP/fjivA5x0vRWMaSExjkd48zvkCe2c6AkKE6a0SounNcROYiH0/sZOz1qqBRrKQ0BZYTXpR490oJeXtlpnv89nM4Al0q4tVAqB7B997SZbWZej7EFlJI3X3ZYmrCwYDUQyBfxCvG+SBV6VXWX+EJZB5MOUQilCqHto2m3tldJUJwwvdXsU+hbhZiON5+2UA2VYi2lIZBP8hX6vcc1hMxzCbAueSwDCSmIbhVZl9ULh+4gMQ/y73OULzeWQZqwsGA1ECh0EXbT8+HccCQfgnEbyW2GdAhcJrz5mlVA8N6Zs9vFJRUd4sb67ozXsd3Ux1WrixoqxVpKQ0A1whZSfRE/gJMLMUOAaU4GFDJQLl8i7OR9IfjWCP+GuhD35ucxvkmasLBgNRAoJEFV/VngEHx9Qae53jlqRivPK+AIWflZkmElQTFqZps4v7zDdHY5pS93Sj9TG6iGSrGW0hDIlDD8vnMdGHuZMULCLgMkJMKWp6EUReVF0cnRttP3Qp4MJODB6ZtIpDWRW/NcvaQhTVhYsBoIUNCdE3Q7sB7fEDLPKEcsweg57WYuApxd7rSh5/30xhycQx6Mc+a2m3Et19R2iQle5te3o487WYYaKsVaSkPASbLxXnKcDYyyrq/rFpdVYgtiuzh1Zqs4hkGGdIpscgwRlX/qzDZzaeqyqi6TaxzZy+nLTttIacLCgtVAwGnC8X7OGQ7MFlxX220uISCN8Rmz2yKpjJmwiM5BHOdgRGlQIPYEQamYwr+6pkuM1fioXB1slRoqxVpKQ0AHkvMZBzsd470hM3Xq16q6zDSqWLM9eUYrDz2KI4qFttSBmaFRM1vF2XPbzbYHB75V2y3ACfaTwf1EBzykCQsLVgMBHUjOZ0zfsEEIrqvrNncjfGl+hzivLDJzgG2KI0p4KqLbHYIRpS3ixOmt5mwP2g5tiJ0laFPMCLEvpN8XdMBKDZViLaUhoAPJ+Yz2GT2ICHYmXLmgS1xS2SlwKNLouW3ijFltpvAgwRF3KtgfIAhMsX/eFPdZbVMH8kEAACAASURBVGYAKLC/pKLTPP0ObUKBt4/nutgMacLCgtVAQBei8zmdM45F3pBATgOMOnE061crO8WX5ncKxCEgavyzs9rFKTPbzPMSIGo67mLAM+PZT5jeYmIBTIANMPry/E5xWVVE2IEh9s4DU3LYOQ7rgrUaKsVaSkNAF6LzOd1tPLGFbOzCboF0yViTRgDaFQu6TCHElseLDjkQ55ZFhBKZ5PD/tFmt5ulwn5nRauZJ+PS0FjPQEeKKoLbD/idZxsASx2HfL40INfa3o2zkYsC9cCId7m3VA4FzqBsEHHVFnbErA8+AZ8Ez4dkg5hMa3N0W7Cv6tI80YWHBaiDAzq5PZ2dbs63JAXIgmgNqqBRrKQ2BaDLwPY0DOUAOkAP6cECasLBgNRBgZ9ens7Ot2dbkADkQzQE1VIq1lIZANBn4nsaBHCAHyAF9OCBNWFiwGgjkq7OPawiJMbXd4tpaZhvLVxvwvvoYerY12zoeB9RQKdZSGgLxSCHrGk63w8l2OERkUEKVksjBIshKhu/Iuj/LJbbkADlADnzMAWnCwoLVQMCpzoAMc9g2NUj446RexRYrbJlyql68z8fGgFgQC3JALw6ooVKspTQEnOjwGNUj8Usq8bc+R9YzJEX5DlOX0hHijBA5QA5I44A0YWHBaiDghAOAfOSWuGfy+qnSoJlQhUeP6jUqcYKTvAc5lS0Hbl/SKuofWytWrF4pVjy90nx/25JWaSKdbT3T+Z0aKsVaSkMgHZLk8p1bvCHxqRzPpkcGtiuqupTsYLlgx99SpMgB93Dgx8u2i+c2Noh/tt4mRNsPBv3Htc0bG8QdS7crZaekCQsLVgMB2QYGaVAzGfUn+y6OMR1Tw/gA2W3G8t0jOmwLd7TFXfe9LAaafzFI9GOdAPx9oPmXAt9Vpd3UUCnWUhoCsol6cUV20//JHAGcPMdAQXcYRtn8Yfls53xzACP/dMTfcgjgBKgyEyBNWFiwGgjI7lw4GCWZmGf9WUnQPIL2Ou4YUGa0IZtrLJ/OggwOYNrfEvd0Xzdt8CrRL9VQKdZSGgIyOkx0mdj3n7XIx9kmeFhZcARmt4lr6QgoYXCiucH3FGy3cwABf/HW/FM5Au+33C5+qEBgoDRhYcFqICC7A+KI1yElQblOwCFHYdSMVvP8eY+XhlV2u7J8ckwHDiDaP5XYJ/q87tF1rnfK1VAp1lIaAk504tNnpk4AdNjIPp3Rf4LvnDC91cw4OJH7h11vgJzgH+9BZyVbDjz09IqsHYCVT690ff+TJiwsWA0EPD7jvWw7R7q/u6GuWwwraXFkFiDakRhZ2iIunNchxi4Mub4jposlv0cxIwec4wBEPNEIP9V15AhweVv9TQ2VYi2lIeDx9exzgqTYx390ghF7tGjLeI/7nmXGCTCXgBNtzXs4J1DEWi7WmMZPJfSJPq91/xJAvzRhYcFqIODxGT1OGREE6iGpjwyRT7fME6e3iksqOwXOJnDquXkfuUaa+BJfWRxAhr+CDQJsNEJqqBRrKQ0Bj88IyOo88cpFWt+LKzrF8FJnAgMTOQbDilvE5+a0CSQqYtAgBSQeV3mNvAAHNmexDXDjsz73DzAae16XJiwsWA0EPI2hNfkwdFiXP3tOe15nAyzn4PhprWaswE31zDKYDy7wnhRaN3MASX2Q3CfRVH/s9f3NvxJ3LA263wHwGqvVUCnWUhoCHl+oPJ+d76rqLnHC9PwuC1iOAE4hPHVmq7isqlOM50mE7jdg3OXBNnKIA0jvm44TAPG/c7kyqYDnSBMWFqwGAkW+kCefDgDuXeQNia9WdopjprrDEYBDgF0LWCJA8OItzCtAoXFIaPLdF3n/xLMxGNUjwx+S/MSO+nFt0wafGiP/Q1wu8hq3qKFSrKU0BCYu3nmOWzo9hBZHBw/P8fRAa0Rv1yucAWQbRFbDCXQG6AzQGdCaA8jwh90B2OaH/3ivQta/WDs/0Rc6S5qwsGBFEBDiSKe2AsYSMNHf4xpC4vzyDjHMoQyCmTgKCF787Ow2c8Zi3MLEo4VEz8brxEx3DtzeEBT1tU+IFdXLxIrqu833t3kVWDMvLMev/wghjlREpVhNmQh4vMb9bjRK4xaGxAWmI+CepYFYZwFZB1HHMdxNoPWo0I39x211+rF3q9hcOVe8P/dG8eGc6wb9x7VNVWXijoZt5JEzjsa9MjWFZSuEANaC3GYsouuDHQOfL2vPSzbBWMFP9vfIqS3i3LJ2ceUCxA0wz0B0G/K93jMfdy3cIg6U3TpI9GOdAPy9v2yywHfJF7l8mdTQM1YhiWJVZSIw2ds73OMz/ur2ToelgS/O6xAj8pxDIJkTYH1mxQ1cWtEpvl1PZ8Dt3GL95AkORv7piL/lEMAJ4EyAvPbw+Iy/3FH+9jCZmsKyFUPA0xh6QhUjOKEhkkxo5FRnDxmyxD2bV5xLgF0Fl1Z2ihvq6BCowjXWM3chwrS/Je7pvm6sLOcsgKSlgCKv8Yhi8sTqykbg1kWhb6hm7HDa3+VVneIzM9RxBCznAcsFSISE7Y9MQJS7yKjGXV3qi4C/eGv+qRyBf8y5UfzQ20InQIITMNHbc7lsPWH5CiLgdFpgO43gmJpuceacdnG0C3cOWKKf7BWzGXQI6AjY2SfcUBai/VOJfaLP62qfogNgvwOwTUFpYpWdQGCi1/ipG4xGLnVAwCDiBDDCTia4bv8MSZFOn9VmpihGUCG3HNI5yKVf5Ou3D1UvzdoBWFm9jA6AzQ7ABG/oR05oCe+hIAIjSrb/e6FMRyO7IA76wbr70BK1nQHLWYFTg4REF87rEFdWd4nvMF0xBcJmgbDbUYCIJxrhp7qOHAF210fn8mDbR0wJ/kRBaWKVnUBgSElwK6bRC62T3FwfmRVwU6phS9Rzei0JiuOntYiz57abJyxeU0OnoNC4q/rz1NU+mbUDUFv3ZMHZony2JwZDQ6YEtzuhJbyHYggcVbr9alOMSoJiTG1hnopX5DPMhD3nzm3P+3HEOQl/cfKjlLFNctSMVoHnxNHLmAkZy9kCikkeZguQ4Y9BgPlfvrq2tlsMseKjpmz/umLyxOrKRmBIcctTliidPKNVeAo85z0S9eCgH0ypF8oSgdV+iV7pGOTfEOdzBJiveyPDX6rp/tjPN1TOo8Nml8PmNcwBwUd2YUrwMdl6wvJVQqB824ghU4J//YggxUFze1q+DIbT9x27sFt8eX6HktsJo9ss2/fHTYtkMLyhrjBnfpzmE+832NFCUh8k94kV+UR/7yv7rrjDy5TAdvEIuUcG2YYpwb8eUb5thEoSxbpKRGBoyfaiQQQpDppT5IUSEJhJR7qpPiQumt8hTpyuXm6B2DbM9O+hxUFzBwUCKDPBjN8dLHjE43A8kN43HScA4n8nUwHb1v9gz4ZbU/9RS4efnLL9OxIlhUWrhMCQ4pYH44nFqJltAuvmuho0pPDF8cSjZrYKiGM8jArx2nllhRcIqiuH3fTcGNUjwx+S/MSO/nFtY1U5R/422lvY7lNmJhjITNl+n0oaxbrKQqBcfGJIcXBfIiFDEJmbjEi+6oItd5dXdpoxA6omG0rUxvGuIz4iX1jzvoXtdCPDH5L8YJsf/uM9s/7Z3+ZY1ozXt3FtaHFw7xFH8DhgWbKqTLlHl7acl4gkuA6xu6aGa8PRojTBGxLfWNAlzpnbrnzCoURt/+lpLQUfCBrdpnxvvwAR0/xhip1cR6eYtRz2262jlREqVlQOAkOnBCclEgHr+jFTgwKBcuzQ8Tv09XXdZtzAKTPbCmqp4FsFuh2UPI7PY+JSGLjcvDAkjilNnfxsaHHLRDmqwlKVQWBocXCeJfTJXk+a3ipuKfCtgXYYwAlew9x3f0F5hzgJhxTFCcBJhrObPkP0sB2YsIzCEBa2o/vbEdub0z0c7agpLWXKCBUrKgeBo6a0rElXdM6c3a51UGA2BhBnEyB2YPTcNnGsYucTfGk+HYBs2py/cb9QFmIbIejPzPaXYurfsvdHlQRXy1EVlqoMAkj/axEinVesexd6kiCZxgHTczjCGDgePy1BhG6aHTid9srlOziqWCYWLJtCSQ7YxAGvIc4ta08Y9BffDrS8oYxQsaJyEBhSHNwRnxyJt719oayDwmDTdh2c8nfFgi5xfnmHOGVGW9w9u5m2j13fv6GO+QAoUDYJlE39he0Rvz2w5Jh5v99uyFEVlqoMAkOKg/szJ07QPJGOnTF+Z8wFFyThgfBi2eDzZe1mCs9hxakDerJpw2S/QSIkzvTY3765cIO/ZXvE4wCOP0/WlxN9FtkKqIxUsaIyEBhSHHwvEUFSXcextPEIyWv2GqpbfCGBwzy+UtEpzp5zaOlAZnBhSVBcxa2f5DZH7a7nAGxwKjud5PP3ZGgKy1QIgVyT2mCUqnO2wHw5O+O9IfHNmi6BQL3Rc9rNyN/hpYmXbZIYgcMMCB07ex24fHGE9y3gdvQa4vyM1/wH24dhJS1CIaliVWUggD3+mYhDvO+eNadNTOQWwfyPFryGuLk+JK5cAMegQ4ye0xZxDNKcLRhe2iIuZebH/LcjR95sgyQcwIALTn88W5zJtZFT6QDI0FSlykTGt0xIk+i7OFYXe+A56nAhBl5D4FAQyzE4e267maNg5NRWMbK0xQw+vGh+pxjbwKA/8teF/E0ihrq114QGQ5w+q80Wm41dSEqJFStrPwLpJo1IJPzR1xE4BqHRrVPyeSka5AA5IJsDyMaKhGzRNjeX9yfPoANgv6IqVuJnZ+U+lRRNwk+Vtphr07I7A8unwSUHyAFdOHBNTVda6X2jbXGq90gapJhcsbp2I5BjFGlcbxRH52INWpfOyeekEJED5IAsDiAld67B2vGcAdh+u/WE5SmGAE61i0cOO65hrRkn58nqGCyXRpccIAcKlQPjG0LirNn2rPfHs+dXVnfRAVBMr22v7k313dIcAJDu2GktYgz3lNMJYiAXOUAOpM0BnMRpV4B2PPHHNewYsl1QWKBaCCDbmx1bARORDNexJIBsVcwXwNFaoY7W+Fzkti0c8Bpmwq+jJZ8Hgi2AsP1qqRVrazsCIC0Opkkm4HZ9dtqsVoFIVls6CkcTxJEcIAcKiAMYkZ86074o/2R2GwcHwQ7bLigsUC0EQAKsBSUji52fDSuJBAhyNoAjJjqC5AA5YJgjcQT6DU8zYZcd9hg5QegAqKXVUmoLEtziDQkIsx3ESreMUTNaxY31nA2gAaQIkgP6cgAxWE6N+i3bDEcD54vQAZAiqWoVahmfM2c7swxgkRCvyEWN7YJMI6yvAbT4x1dyQCcOTPQZAtk383HSJ3ZnWVirpVasre0IWERApH60ODv5HtGu1pSUVR++UhDIAXKgEDlwdXWXOGG6PSnYs7HT2GFg4Wq7oLBAtRCwiIBXO9MCZ0PMM2a1CUyJRdeJ7ykC5AA5UAgc+HZ9SCD7Xja20a7fnDSjdZB9VUutWFvbEYjuWJdVORcMmIjQmBLDlkEeLESjH81NvicfVOUADvD5l/IOKdn8EtnRRNe/VhUJ/rOwtF1QWKBaCFhEwCvWpY6b5sw2lEQEta7jTAHGB9DoR/OT78kHlTiA2CZE9+PETcuu5fMVth02PhpDtdSKtbUdgWgy4P3XqzpdQVaroxw7tcXsREVMKTyo48a2G/8ebNiIB/HIFwewxfmKqi7XDKYsW4o6xWJiu6CwQLUQiCUEskNhi55FGre8njC91cxXcFh9Yzxafk7DTw6QA3nhgDeSUyWfAX6J7DWO/oVtj8VFLbVibW1HIJYQ+Pva2m4xxOG8AImIG3v9xOmt4vKqTsEZgcM7c7y25DXiRA7I5QBG/NjFlO8g6lhb+dHfJUExJiryP5oPtgsKC1QLgWgyRL93Kj3wRyTNMPc11rOwvsaMgnKNWzQn+J5YkwMfc8Ca6j9+uvtmTKPt6rlR+/5j208ttWJtbUcglhDW34hcdUtAYDSZY99bjoCV2cqqP18/NlTEgliQA/ZxALYGg4/jprkjuC/WJkb/jTomO5LddkFhgWohkMwwjKnpMk/yiyaUW98fM7VFXFDeIcYujKS4TPZc/Mw+Y0gsiaUuHBi30DB3JsHWuNUORtcLp7Bek+IodrXUirW1HYFUnfcLZc6nCI4mcabvcYwmkm0gjiHVs/Fzihc5QA6k4sD1dd0C0+j5SNubqf2L/v755R0pbaDtgsIC1UIgFfmxl/UUh46ojCavHe9R7ysWdPGsAe6USGkIU/UDfq6Xo4D98rAdp8zMb+a+bO0gdnLF7vmPx2G11Iq1tR2BeKSIvYapr5FT3R3okqyjHDM1KDCTcUMdlwdi25Z/6yVsbO/k7Y10vVhKhM1IZlPc/Blyp4xrSM/W2S4oLFAtBNI1CNfVdTt+ZLCMToZc2AjgwRHI6T47v5fcaBIf4qMyBzDLiSQ5p2G079Ltz+naQpywGn3YT6p2UUutWFvbEUhFkOjPv76gU5mgwFQdBqmGP1/WnlFnicaC7yl65IDaHLi2tsu0AbAFqeyFCp8j6C9etr9kPLVdUFigWggkI0e8z75a2am8lxzbmTFlhmk/TP/Fe2ZeU9vQs/3YfhYHxi7sNiP5cQR5rB1Q+u+SoLi0ojNj+6WWWrG2tiNgdYxMXi+u6CiszmMlISoJilEz28yO9J0019AywY3fpRCRA85zYNzCkLikojOS4lzxKf5ETgoOTsuGW7YLCgtUC4FsSIPf4MjeRGQshOtDS1pMZ+ArFZ0CBiRbnPg75w0+MSfmcOCRMvyMWW2uOIZXpk28cF524o9+opZasba2I5CLsSx0J8DqtFhbw8wAvOyb6plfIBfO8LcUZ1kcQBIwBPhC9NFnrf5byK+wwbngabugsEC1EMiFPPgtRsi6dDbTkJQEzUM/4HVjZ0S8E7ZyxZS/p0iSA2lwwGuI62q7zdlI8yCeAp3ej+vAlATFl7NY84/llVpqxdrajkAsIbL5+2tVXQU/zRa3ExYHBdKCnj233Yy+TZZzOxtc+Zs0RIBJjnIaAarGMWzfvbqmy8zrMVKRlLyJbEe21zHguqwq84C/eG1tu6CwQLUQiEeKbK7hOMzhOnngcaYYkSr09FltAkGSTDpE8c6mH/E3MbzxGuKGum6zT6FvqZaON1uRT/S74aVBcVV1l21On1pqxdrajoCdBgc5s1U4IStR57L7+jGlLea5BFiXvJmBhLYZLTs5y7JiBNcFMyrIPIr97Mi/r+soP54tQjZWc9nRxjayXVBYoFoI2G0AEX17qqL5s+N1Ojuv4dxwJB+CcRvLbYZ0CGw05Hb3YyfLQ/AekoydV9Yhjp+mbspxO21FbFk4kyDd9L6ZtJ1aasXa2o5AJmRJ97tFPsNMrBNLYv49ODIZ8QM4uRAzBJjmZECh+0aj6XKe30u/7SD41gj/hOktBZdYzG47h5kQpCuWwTHbBYUFqoWADFJZZV5e2al9XEAmxgAOwZmz2831zjG13TyvgCNkKUbf6p9OvN7iNcSYmi7x5fkdprPLKf3Bg4Bk9mF4aYv42gL71vvjtbdaasXa2o5APFLYee3m+pAYpehxwsk6pxOfIdoXIyTsMsB2S2x5wuyKne3DsoinnRxAngwk4MHpm8idcbTmgcHZ2glsa3QiNbntgsIC1ULAzs6fqCyIFvbNa5UvIM4ugWyNQfTvMCrAeiBiCbAVCEFB6Zz7nahteJ0OQDYcAOfAPZwNAi6eMqONs3129PmSoImnU31aLbVibW1HIJvOn+1vrq7uFohkjRY0vk9/SjARVhhlnTi9VYyeiy2IneKbNd1SAoaybXf+Tm0nA1H536zpMpemRs9pM7nGkX3u/Ta2Px87rcXsu072F9sFhQWqhYCTZMO9sCaIk/c4G2C/AYk1KCNKW8RJM1rNJQSkMUauBjOVsaSAIqe5xPvZ61iMbzAEYk8QlIop/NNmtomRBXJUbmzfcNXfJUFzy2M+EomppVasre0I5MuIwtBwy498JyCeoRtR0mKmMz5rTpuZRhVrttfWdvPQIw3iK7CVbExNt0CALvLIgwNYbwYn4nGF1+T20eOmtTo+6o+2+bYLCgtUC4FoMjj9Hmk9MRvA6US5RiYTIw4hOGl6q7kbAW1zSUVk5gDbFMd7eSqi030k0/uNbwgJJOTCbA/aDm2InSVoU8SPZMIFfldevzy6OCj+pbxd3OLLb59SS61YW9sRyNTAyPg+ol1xghcNjjyDYxe2EBHsTDhjdps4b267Gdx5WWWXKTgQHiQ44k4Fe6fm0eeAKfbPW+KOAFAE1p5X1m72HbQJBd79/Qf98LRZba5JFW67oLBAtRCQIejZlnlldZfAlJhdYsVy8mMQh5a0mIckYdQJx+6cue3igvJ28zhlRI1/o7pTXFPTZRpBiJpTEc/Z8lLG7/DMeHacGQEsgAmwQazG+eXtYvSciLADQ+ydB6bkc374bBfun57WYiZAksGnbMtUS61YW9sRyJY4sn6HKTGMbHQ/WMguo6NKOWhv7BBBumSsSSMA7XOz20whxDYzTJdCHC+tiAglMsnhP3aW4HS4b9V2m3kSMJuEQEeIK4LaDvufZBkDSxyHfb8hItQoE2UjFwPuhXvi3lY9EDiHuqGOqCvqjF0ZeAY8C54JzwYxx4EuqrQL65l7W6G9L5rfIS2bXy622HZBYYFqIZALeWT+FmcKMD4gd+NDA04MyYH8cACxTUjj6+ZzP9RSK9bWdgRkirgdZeMUPXQiToHmx4hRPIg7OZAZB7DFGWd8mFtuXb6zxHZBYYFqIWCHSDtRBqLQGSiYmSGi4SZe5ICDHCgJmjYKcR1O2EQ77qGWWrG2tiNgB4mcLANR0GfP4YwADbuDht2OFK8so2DjHjDix64YxIY4aQvtuJftgsIC1ULADhLlowxMr5lLAzSsBWtY6eTQyXEzB6yp/htxlLfLp/oT1U8ttWJtbUcgETFUuW45AsOKuU3KzcaSdaOYFwoHYGsw+LipXp2p/kT23HZBYYFqIZCIGKpdH7cwZG7B4nnjFJpCERo+h7u4fMzUoLkzCbZGNfuYqL5qqRVrazsCiYih6nUkWMHe7JNnMKEQBcRdAsL2ULM9cNIm8jzkO22vDJtsu6CwQLUQkEEqt5R5TU23mYiFZw2oaXgpmGy3fHEAufqRxAlZGt1iz2TUQy21Ym1tR0AGqdxWJs4zv7ii08xhny+DwvtSzMgB93MA6XqRzRE2w212TEZ9bBcUFqgWAjJI5eYykcoVATzDmFuduwe4g4QcKA6ap5EicQ/SO3u8egi/ZaPVUivW1nYELCLo9opUw1+p6DRztHNk5v6RGduIbWQ3B06e0WbaANgC3eyf9by2CwoLVAsBiwg6vyLdMKb9MP1nt5FheRQucsA9HMCBUzhjBAc76WzzrGdXS61YW9sRsIjAV8Oc/htT0yXOLWsXnyqlM0Dhco9wsS2yb4tjpraI88raxRhk6tNsij+VXbddUFigWgikIoiunxd5QwLOAI51hQGhAc7eABM7Yuc0B+DAI2X4ldVdrjyG1y12VS21Ym1tR8AtRHRzPYp8hukMYOrwuGnML+C0Mef96ECkwwEkAUOAL0QffdbNNsUtdbNdUFigWgi4hYjK1MNrmId+fHFehzhpeqsYUkLjnI5x5nfIE9s5UBIUJ81oFRfO64gcxMPp/YydHrXUirW1HQFlhNelHj3Sgl5e2Wme/z2czgCXSri1UCoHsH33tJltZl6PsQWUkjdfdth2QWGBaiGQL+IV4n2RKvSq6i7xhbIOJh2iEEoVQttH025tr5KgOGF6q9mn0LcKMR1vPm2hWmrF2tqOQD7JV+j3HtcQMs8lwLrksQwkpCC6VWRdVi8cuoPEPMi/z1G+3FgG2wWFBaqFQKGLsJueD+eGI/kQjNtIbjOkQ+Ay4c3XrAKC986c3S4uqegQN9Z3Z7yO7aY+rlpd1FIr1tZ2BFQjbCHVF/EDOLkQMwSY5mRAIQPl8iXCTt4Xgm+N8G+oC3Fvfh7jm2wXFBaoFgKFJKiqPwscgq8v6DTXO0fNaOV5BRwhKz9LMqwkKEbNbBPnl3eYzi6n9OVO6WdqA9VSK9bWdgQyJQy/71wHxl5mjJCwywAJibDlaShFUXlRdHK07fS9kCcDCXhw+iYSaU3k1jxXL2nYLigsUC0EKOjOCbodWI9vCJlnlCOWYPScdjMXAc4ud9rQ8356Yw7OIQ/GOXPbzbiWa2q7xAQv8+vb0cedLEMttWJtbUfASbLxXnKcDYyyrq/rFpdVYgtiuzh1Zqs4hkGGdIpscgwRlX/qzDZzaeqyqi6TaxzZy+nLTttI2wWFBaqFgNOE4/2cMxyYLbiutttcQkAa4zNmt0VSGTNhEZ2DOM7BiNKgQOwJglIxhX91TZcYq/FRuTrYKrXUirW1HQEdSM5nHOx0jPeGzNSpX6vqMtOoYs325BmtPPQojigW2lIHZoZGzWwVZ89tN9seHPhWbbcAJ9hPBvcTHfCwXVBYoFoI6EByPmP6hg1CcF1dt7kb4UvzO8R5ZZGZA2xTHFHCUxHd7hCMKG0RJ05vNWd70HZoQ+wsQZtiRoh9If2+oANWaqkVa2s7AjqQnM9on9GDiGBnwpULusQllZ0ChyKNntsmzpjVZgoPEhxxp4L9AYLAFPvnTXGf1WYGgAL7Syo6zdPv0CYUePt4rovNsF1QWKBaCOhCdD6nc8axyBsSyGmAUSeOZv1qZaf40vxOgTgERI1/dla7OGVmm3leAkRNx10MeGY8+wnTW0wsgAmwAUZfnt8pLquKCDswxN55YEoOO8dhXbBWS61YW9sR0IXofE53G09sIRu7sFsgXTLWpBGAdsWCLlMIseXxokMOxLllEaFEJjn8P21Wq3k63GdmtJp5Ej49rcUMdIS4IqjtsP9JljGwxHHY90sjQo397SgbuRhwL5xIh3tb9UDgHOoGAUddUWfsysAz4FnwTHg2iPmEBne3dcnLcgAAFDNJREFUBfuKPu1ju6CwQLUQYGfXp7OzrdnW5AA5EM0BtdSKtbUdgWgy8D2NAzlADpAD+nDAdkFhgWohwM6uT2dnW7OtyQFyIJoDaqkVa2s7AtFk4HsaB3KAHCAH9OGA7YLCAtVCIF+dfVxDSIyp7RbX1jLbWL7agPfVx9CzrdnW8TigllqxtrYjEI8Usq7hdDucbIdDRAYlVCmJHCyCrGT4jqz7s1xiSw6QA+TAxxywXVBYoFoIONUZkGEO26YGCX+c1KvYYoUtU07Vi/f52BgQC2JBDujFAbXUirW1HQEnOjxG9Uj8kkr8rc+R9QxJUb7D1KV0hDgjRA6QA9I4YLugsEC1EHDCAUA+ckvcM3n9VGnQTKjCo0f1GpU4wUneg5zKlgO3NwRFfe0TYkX1MrGi+m7z/W3eoDSRzrae6fxOLbVibW1HIB2S5PKdW7wh8akcz6ZHBrYrqrqU7GC5YMffUqTIAfdw4MferWJz5Vzx/twbxYdzrhv0H9c2VZWJOxq2KWWnbBcUFqgWArINDNKgZjLqT/ZdHGM6pobxAbLbjOW7R3TYFu5oi7sWbhEHym4dJPqxTgD+3l82WeC7qrSbWmrF2tqOgGyiXlyR3fR/MkcAJ88xUNAdhlE2f1g+2znfHMDIPx3xtxwCOAGqzATYLigsUC0EZHcuHIySTMyz/qwkaB5Bex13DCgz2pDNNZZPZ0EGBzDtb4l7uq8bK8uV6JdqqRVrazsCMjpMdJnY95+1yMfZJnhYWXAEZreJa+kIKGFwornB9xRst3MAAX/x1vxTOQL/mHOj+KG3xfV90nZBYYFqISC7A+KI1yElQblOwCFHYdSMVvP8eY+XhlV2u7J8ckwHDiDaP5XYJ/q8rvYpOgBqyaF+tXWiE58+M3UCoMNG9umM/hN854TprWbGwYncP+x6A+QE/3gPOivZcuCh6qVZOwArq5e5vv/pp3h84kEIeHzGe9l2jnR/d0NdtxhW0uLILEC0IzGytEVcOK9DjF0Ycn1HTBdLfo9iRg44xwGIeKIRfqrryBHg8rb62yAx4B/6IeDx9exzgqTYx390ghF7tGjLeI/7nmXGCTCXgBNtzXs4J1DEWi7WdbVPZu0A1NY96XYHoF8/xeMTD0LA4zN6nDIiCNRDUh8ZIp9umSdObxWXVHYKnE3g1HPzPnKNNPElvrI4gAx/BRsE2GiEBokB/9APAY/PCMjqPPHKRVrfiys6xfBSZwIDEzkGw4pbxOfmtAkkKmLQIAUkHld5jbwAB5DhL9V0f+znGyrnuX+A0djzun6KxycehICnMbQmH4YO6/Jnz2nP62yA5RwcP63VjBW4qZ5ZBvPBBd6TQutmDiCpD5L7xIp8or/3lX1X3OFVICWw11g9SAz4h34IeHyh8nx2vququ8QJ0/O7LGA5AjiF8NSZreKyqk4xnicRun8Ew10ebCOHOID0vuk4ARD/O9VJBTxHP8XjEw9CoMgX8uTTAcC9i7wh8dXKTnHMVHc4AnAIsGsBSwQIXryFeQUoNA4JTb77Iu+feDYGo3pk+EOSn9jRP65trCpXY+R/iMtFXuOWQWLAP/RDYOLinee4pdNDaHF08PAcTw+0RvR2vcIZQLZBZDWcQGeAzgCdAa05gAx/SPKDbX74j/cqZP2LtfMTfaGz9FM8PvFgBIQ40qmtgLEETPT3uIaQOL+8QwxzKINgJo4Cghc/O7vNnLEYtzDxaCHRs/E6MdOdA7cvaRX1j60VK1avFCueXmm+v21Jq9ZORR440X+EEEcOFgP+pSUCHq9xfx4ImLLDj1sYEheYjoB7lgZinQVkHUQdx3A3Qcr2dCPHWCfnHLIfL9suntvYIP7ZepsQbT8Y9B/XNm9sEHcs3U4eOTPDdK+WYseHPhwBrAW52RBix8Dny9rzkk0wVvCT/T1yaos4t6xdXLkAcQPMM+BmTrFuzgk/sL7rvpfFQPMvBol+rBOAvw80/9L8LttHbvtMaugZe7gS8IqWCEz29g73+Iy/ur3TYWngi/M6xIg85xBI5gRYn1lxA5dWdIpv19MZcDu3WD95goORfzribzkEcAI4EyCvPTw+4y93lL89TEux40PHR8DTGHpCFSM4oSGSTGjkVGcPGbLEPZtXnEuAXQWXVnaKG+roEKjCNdYzdyHCtL8l7um+btrg5VKApKWAIq/xSHwV4FVtEbh1Uegbqhk7nPZ3eVWn+MwMdRwBy3nAcgESIWH7IxMQ5S4yqnFXl/oi4C/emn8qR+D9ltvFDxkYKMUJmujtuVxboeODJ0bA6bTAdhrBMTXd4sw57eJoF+4csEQ/2StmM+gQ0BGws0+4oSxE+6cS+0Sf1z26TooAugGXPNZhW2IF4CdaIzDJG/pRHolpS2dHwCDiBDDCTia4bv8MSZFOn9VmpihGUCG3HNI5ULFvPvT0iqwdgJVPr7TFJqiIm6w6F/mMH2gtcnz4xAhMLu8a6vEZu2SRz8lykV0QB/1g3X1oidrOgOWswKlBQqIL53WIK6u7xHeYrpgCIWmd2K6+ChFPNMJPdR05AuyqB8sxHeg3YeMTKwA/0R4BT2PP/ym0znJzfWRWwE2phi1Rz+m1JCiOn9Yizp7bbp6weE0NnYJC467qz4Np/FRCn+jzWi4B2OoATWoMTdJe4AhACgTMzIDGK6obnnj1L/IZZsKec+e25/044pyEvzj5UcrYJjlqRqvAc+LoZcyEjOVsga3GNB6/eO3wZRpk+GMQ4OG4OM4VHP3LzH8pxI8fmwh4Grq/7vEZHzpOUgenM5GoBwf9YEq9UJYIUjkVdAxcYIgd5Lhb+u/mLLYBbnzWR4fNPq7All9JeSMCaSPg1vTAMoza2IXd4svzO5TcTphK9NP5/LhpkQyGN9R10+jaZ3SJ5SEskdQHyX0STfXHXt/f/Ctxx9Ig8bOJi5MajXvSNvz8IhEAApOXdR3j8RlvyhBcN5d5U31IXDS/Q5w4Xb3cAumIfbLvDC0OmjsoEEDp5jZi3dSbyUAq4HScAIj/nctfJv9sEn+P13hrQq0xkqpGBDJGoKix5yqPz/hAV4OLFL44nnjUzFYBcUwmnoX02Xll7TTAdhlglvMRlzCqR4Y/JPmJHfXj2qYNPo787eXLB0Xe0DUZG37+gAhYCBT5jEZdHYDo58aWu8srO82YAVWTDWXipCA+Ivr5+V69Ubdb2wwZ/rA7ANv88B/vmfXPfn4V+UINlh3nKxHICoGfLd82xOMzXnKrMclHvSZ4Q+IbC7rEOXPblU84lMgp+PS0FuHx2m+U8tFevCfbUUMOvMI9/1lJHn8Ui8CExo5RHp+xW8NOlNYo+Pq6bjNu4JSZbQW1VPCtWgYFkvN0HhTkwLtF9W+eHGvH+TcRyBqBSQ07v6LCkcH57qwTvIa57/6C8g5xEg4pUvRsAswM4OTCfOPJ+1OAyYGMOPC3SV7jq1kbev6QCCRCoMjb8686BwVmY4hwNgFiB0bPbRPHKnY+wZfm0wHIps35m4wEi06mfYF/HxQ1GpMT2W9eJwI5IzDJZ/yk0JMEyTTgN8MhqOo04weOn+burYY4qlgmFiybQkkO2MaBDz2NoZ/nbOBZABFIhYDHZ/wHO649HRen/F2xoEucX94hTpnRJoa7aMnghjrmAyDP7eE5cZSO49RUdpufEwHbECjyGZXs1PZ3aiThgfBi2eDzZe1mTv9hxc6fZohESNwFYH/7ss8QU7s5UOQNzbPNsLMgIpAuAnQCnDFmt/hC4trabvGVik5x9px2YS4dyJwpKAmKq2q4A8BuQ83ynOkvmuE8P117ze8RAdsRmNQY+jUDA503bOO9IfHNmi6BQL3Rc9rNcwyGl9qTrfDCeR1c+7cvMItYEksZHPjQ4w0V227QWSARyBSBIp/xA4/P+IdmnreMTp1bmV5D3FwfElcugGPQIUbPaYs4BmnOFgwvbRGXVjDwjzx23qEl5hlh/n6R1/hxpnaa3ycC0hAoagx9x+Mz/sKOnFFHzk3w0x1ZeQ2BQ44sx+Dsue1mjoKRU1vFyNIWM/jwovmdYmwDg/7IXxfyN12e6/G9/5no67lZmiFnwUQgWwQmNRpfwulTNKI0ouQAOUAO2M6B3R5f9yXZ2mf+jghIR6BoaehEj8/4Azu/7Z3fmdkCPUZRxJLtrBgHQn9kel/p8sUb2IHAmPItR3l8Rg2dADoB5AA5QA7kyoGe5TiUzQ7bzDKIgGMIFDX23O7xGf9NA5CrAeDvySFyQDcOFPmM//J4Q993zGDzRkTAbgQm+kJnebzGq7p1Xj4vBYscIAdy4EBgsrfrXLvtMcsjAo4jEFkSCJUzXwANYg4GUbE1W7Y12zorDnw4yWssmlzeNdRxQ80bEgGZCBQ1dt/g8Rm7aRiyMgwUQAaukQOFzYG3PQ3GtTJtMMsmAnlFYPzybSMOBQh+QEeAjgA5QA6QA8aHHl/P8gm1xsi8GmfenAg4hYDHZ1zpaTRC7PwUAHKAHNCYA2/e6guNccru8j5EwDUITPb2Dvf4jFqmEaYAaCwAnNYv7Gn9RO37vx5fz4I7yt8e5hqDzIoQgXwgUNQQ+rzHazxLEaAjQA6QA4XOgSKv8cIkb9cX82FreU8i4FoEJnlD4z0+Y1ehGwA+H0WOHNCRAz07ixqNya41wKwYEcg3ApgSm+QzZvFgIR0NJJ+ZjkFBcuB/Jnl7pt+8eOfR+bavvD8RUAKB8Qt7Tjq0W+A9GsWCNIqJ1kZ5Xc818UJs938gun9yXdcpShhdVpIIuA2ByY1dn0Mn8viMf9IRoCNADpADCnDgg0k+Y9XExTvPcZs9ZX2IgJII3OINXeTxGX4FOn8hjmT4TByVkwOpOfDhJJ+xjgF+SkoMK60CApMajS95fMbDnBHgSJDOIDngEg58MMnb0+Rp7LlMBRvKOhIB5RHA9NqhpYH3XWIEOEJKPUIiRsSokDhgTvUX+XZcoLxB5QMQARUR8Ph2jDYdgUbj73QEOCIkB8gB6RxoNP4+qdG4Z/IS42wVbSbrTAQKDoHJi3d+pqjRmObxGb3SDQBHcYU0iuOzkM9pcqBnH3YmTVhinFZwBpQPRAQKAQEco4lkG57GntfpCHA0SA6QA7lyYJLPaPH4Qj9j2t5CUAg+gzYIFHlD13h8xu951gBFIFcR4O+149D/mrajccc3tTGYfFAiUIgITGjsGDXJa9zl8fV00pBrZ8jTnN4lLuwbJgd2YCkRNqMQbSGfiQhojcDERaFLD+0e+BsNHkWPHCAHPD7jPSTu8fh2XH+EEEdqbSD58ERABwSQario0bjT4zOaKQIUAXJARw6E3pjUGPp10dLQiTrYPD4jESACcRDwLOw+M7KDoGcnhUBHIeAza8T73YjkxxHkcUwBLxEBIqAtAkIcWdTYc5XHZ9zr8RkDGhlFrpNzK1whc+CAx2fc7fEZV3KKX1vrzgcnAukjMHmV+CScgUleY5HHZ+yhM8BRMjmgFAfgwD88yRsa/7Pl24ak3/P5TSJABIhAFALl5eITh2YGajw+400KgVJCUMgjWz7b4JmbXgT4QvTHlG85KqoL8y0RIAJEwAYEhDhyorfnco/PmO/xGds9PuNDOgR0CMiBvHAAfW9bkTc0zzyIhxH8Nhg4FkEEiEDaCERSEPfcHtlGZPw3hSAvQsCR8OCRcCHj8TePL/S8mddj8c4z0u6o/CIRIAJEQCYCSBU60ddzs8dn+Dw+o4POAJ0BciBnDnw4yWe0T2oMeYu8xk1MxyvTgrFsIkAEbEOgqP7Nk81zCXw9yz0+4x2KQc5iUMgjWz7bR7MYPfsiM2qhn3k4yrfNHrEgIkAE8ogAzg1H4hHTuDUae+kQ0CEgB0wO9Bf5jKeKfD2/mrSw5/w8dlHemggQASLgDAI4VtSaISjyhroYUEiHQBOHoN8a4U/ydn2Re/OdsTe8CxEgAi5GAA7BJK/xXax3enzGKx6fwfMKPpoWpnOgqHPwV4/PeLnIF2qIOLvdp7q4C7JqRIAIEAF3IIC9zBghFTX23H4oIdE2j8/4QFEh4Bq3Hs7MrkgCHuMu5M64efHOo93Rm1gLIkAEiIDiCNy8eOexnsYd3zQPMmo0HvQ0hoIen4GzyymwxMBJDoBz24t8xgMeX+g3t3p7rp5Qa4xUvHux+kSACBABtRBAqtOJvh0Xe3yhO4p8RqOn0XjR4zP20ymgU2QPB3r2eXzGH7C9dZI39KOihp4vM72uWjaCtSUCREAzBCb63v70xEWhS7GEgBPQJnl7mjw+A1O0zF7I2YLDZgsm+Yw/R2JPkE7XuMvj23H95LquUzTrNnxcIkAEiEDhIjC5ZtdxSGc8yRf63v+LKZiDNVuPz3jN4zNwatphwsBrBYXJfo/XeNXjCz2Etjc50NhzGThRuIznkxEBIkAEiEBKBCAEHl/3/9/e2as0EARxvLD1BSx8Axt9BjsF2TnzANoppPMDbFNn54QIQQV7CzubdLZpVNTs7GmXBzBvoP53r5AQSSOH4L+45jhudn6zMHN787GGagRX2nGhoYeTA3RjE7UJg4E/Hwy8i9pjtlnofVWSHMGWsCnyR+ZuAD5AAiRAAiRAArMIwIm409GKK8Om+Lgv3jqi8Uq83Yrag+QGR6xU+P2TFDBF/fx9Yo0EUG+dQm1PtNpAtQgd/Kwdy3skQAIkQAKNEWhdfyygpwG+OpNzUtstSjtEHoJ4u5Qy3IiGO9H4DKf2T6sYkEUP3Z8Si8TELsDIaThw3nYSu+7rquhoCUwbMyAFkQAJkAAJkEBTBFBCttV9W0a75DxuuVoXte3sCENbfDhJAYRav/DhHJ3kcje5OMB0OFEbYjSsqFV1ouMYSW3T15zfGJPp5+vEuHH9zljLGGaZcfBtHZj30M9BDtYa2qjKgA5IpoNO0A297VtnL4tNcaUcEiCBnwl8AuYoIEq4mO40AAAAAElFTkSuQmCC;" vertex="1" parent="1">
          <mxGeometry x="676" y="864" width="74" height="74" as="geometry" />
        </mxCell>
        <mxCell id="RpmGVlQQaQAQjmuWH_eU-34" value="&lt;b style=&quot;color: light-dark(rgb(26, 95, 180), rgb(237, 237, 237));&quot;&gt;172.20.10.5:8086&lt;/b&gt;" style="text;whiteSpace=wrap;html=1;fontFamily=Architects Daughter;fontSource=https%3A%2F%2Ffonts.googleapis.com%2Fcss%3Ffamily%3DArchitects%2BDaughter;" vertex="1" parent="1">
          <mxGeometry x="693" y="803.0042857142857" width="117" height="36" as="geometry" />
        </mxCell>
        <mxCell id="RpmGVlQQaQAQjmuWH_eU-39" value="&lt;span style=&quot;color: light-dark(rgb(26, 95, 180), rgb(237, 237, 237));&quot;&gt;Base de donnée MySQL contenant les Maisons&lt;/span&gt;" style="text;html=1;align=center;verticalAlign=middle;whiteSpace=wrap;rounded=0;fontFamily=Architects Daughter;fontSource=https%3A%2F%2Ffonts.googleapis.com%2Fcss%3Ffamily%3DArchitects%2BDaughter;" vertex="1" parent="1">
          <mxGeometry x="42.5" y="970" width="116" height="49" as="geometry" />
        </mxCell>
        <mxCell id="RpmGVlQQaQAQjmuWH_eU-40" value="&lt;span style=&quot;color: light-dark(rgb(26, 95, 180), rgb(237, 237, 237));&quot;&gt;Base de donnée influx DB contenant les données par token&lt;/span&gt;" style="text;html=1;align=center;verticalAlign=middle;whiteSpace=wrap;rounded=0;fontFamily=Architects Daughter;fontSource=https%3A%2F%2Ffonts.googleapis.com%2Fcss%3Ffamily%3DArchitects%2BDaughter;" vertex="1" parent="1">
          <mxGeometry x="658" y="952" width="116" height="49" as="geometry" />
        </mxCell>
        <mxCell id="RpmGVlQQaQAQjmuWH_eU-41" value="&lt;font style=&quot;font-size: 19px;&quot;&gt;&lt;b style=&quot;color: light-dark(rgb(26, 95, 180), rgb(237, 237, 237));&quot;&gt;GET/POST &lt;br&gt;&lt;/b&gt;&lt;/font&gt;" style="text;whiteSpace=wrap;html=1;fontFamily=Architects Daughter;fontSource=https%3A%2F%2Ffonts.googleapis.com%2Fcss%3Ffamily%3DArchitects%2BDaughter;" vertex="1" parent="1">
          <mxGeometry x="217" y="477.00428571428574" width="117" height="36" as="geometry" />
        </mxCell>
      </root>
    </mxGraphModel>
  </diagram>
</mxfile>
